%TF.GenerationSoftware,KiCad,Pcbnew,(5.1.6)-1*%
%TF.CreationDate,2020-11-03T19:25:33-05:00*%
%TF.ProjectId,Kitty Caddy,4b697474-7920-4436-9164-64792e6b6963,rev?*%
%TF.SameCoordinates,Original*%
%TF.FileFunction,Paste,Top*%
%TF.FilePolarity,Positive*%
%FSLAX46Y46*%
G04 Gerber Fmt 4.6, Leading zero omitted, Abs format (unit mm)*
G04 Created by KiCad (PCBNEW (5.1.6)-1) date 2020-11-03 19:25:33*
%MOMM*%
%LPD*%
G01*
G04 APERTURE LIST*
%ADD10C,0.100000*%
%ADD11R,0.750000X0.800000*%
%ADD12R,0.800000X0.750000*%
%ADD13R,2.500000X1.800000*%
%ADD14R,0.800000X0.800000*%
%ADD15R,1.800000X2.500000*%
%ADD16R,0.500000X0.900000*%
%ADD17R,1.300000X0.700000*%
%ADD18R,0.900000X0.500000*%
%ADD19R,2.600000X3.100000*%
%ADD20R,1.550000X0.600000*%
%ADD21R,0.508000X1.143000*%
G04 APERTURE END LIST*
D10*
%TO.C,Y1*%
G36*
X84793843Y-85675408D02*
G01*
X85642371Y-84826880D01*
X86632321Y-85816830D01*
X85783793Y-86665358D01*
X84793843Y-85675408D01*
G37*
G36*
X86349478Y-87231043D02*
G01*
X87198006Y-86382515D01*
X88187956Y-87372465D01*
X87339428Y-88220993D01*
X86349478Y-87231043D01*
G37*
G36*
X85147396Y-88433124D02*
G01*
X85995924Y-87584596D01*
X86985874Y-88574546D01*
X86137346Y-89423074D01*
X85147396Y-88433124D01*
G37*
G36*
X83591761Y-86877489D02*
G01*
X84440289Y-86028961D01*
X85430239Y-87018911D01*
X84581711Y-87867439D01*
X83591761Y-86877489D01*
G37*
%TD*%
D11*
%TO.C,C2*%
X39443400Y-85988600D03*
X39443400Y-87488600D03*
%TD*%
D12*
%TO.C,C5*%
X44943400Y-90738600D03*
X43443400Y-90738600D03*
%TD*%
%TO.C,C7*%
X49443400Y-88488600D03*
X50943400Y-88488600D03*
%TD*%
D11*
%TO.C,C8*%
X89159200Y-65065400D03*
X89159200Y-66565400D03*
%TD*%
%TO.C,C9*%
X118394600Y-72914000D03*
X118394600Y-74414000D03*
%TD*%
%TO.C,C10*%
X110114200Y-72914000D03*
X110114200Y-74414000D03*
%TD*%
D10*
%TO.C,C11*%
G36*
X81991748Y-88937122D02*
G01*
X82522078Y-89467452D01*
X81956392Y-90033138D01*
X81426062Y-89502808D01*
X81991748Y-88937122D01*
G37*
G36*
X83052408Y-87876462D02*
G01*
X83582738Y-88406792D01*
X83017052Y-88972478D01*
X82486722Y-88442148D01*
X83052408Y-87876462D01*
G37*
%TD*%
%TO.C,C12*%
G36*
X89544852Y-85568878D02*
G01*
X89014522Y-85038548D01*
X89580208Y-84472862D01*
X90110538Y-85003192D01*
X89544852Y-85568878D01*
G37*
G36*
X88484192Y-86629538D02*
G01*
X87953862Y-86099208D01*
X88519548Y-85533522D01*
X89049878Y-86063852D01*
X88484192Y-86629538D01*
G37*
%TD*%
D11*
%TO.C,C13*%
X117124600Y-85386800D03*
X117124600Y-83886800D03*
%TD*%
D10*
%TO.C,C14*%
G36*
X96063348Y-74103522D02*
G01*
X96593678Y-74633852D01*
X96027992Y-75199538D01*
X95497662Y-74669208D01*
X96063348Y-74103522D01*
G37*
G36*
X97124008Y-73042862D02*
G01*
X97654338Y-73573192D01*
X97088652Y-74138878D01*
X96558322Y-73608548D01*
X97124008Y-73042862D01*
G37*
%TD*%
%TO.C,C15*%
G36*
X95971052Y-72970478D02*
G01*
X95440722Y-72440148D01*
X96006408Y-71874462D01*
X96536738Y-72404792D01*
X95971052Y-72970478D01*
G37*
G36*
X94910392Y-74031138D02*
G01*
X94380062Y-73500808D01*
X94945748Y-72935122D01*
X95476078Y-73465452D01*
X94910392Y-74031138D01*
G37*
%TD*%
D13*
%TO.C,D1*%
X46506000Y-93450600D03*
X42506000Y-93450600D03*
%TD*%
D14*
%TO.C,D2*%
X85158600Y-65942400D03*
X83558600Y-65942400D03*
%TD*%
%TO.C,D3*%
X79875600Y-65942400D03*
X81475600Y-65942400D03*
%TD*%
D15*
%TO.C,D4*%
X92131000Y-63764600D03*
X92131000Y-67764600D03*
%TD*%
D14*
%TO.C,D5*%
X102087800Y-79772600D03*
X102087800Y-78172600D03*
%TD*%
D16*
%TO.C,R1*%
X83483000Y-74832400D03*
X81983000Y-74832400D03*
%TD*%
%TO.C,R2*%
X83508400Y-73003600D03*
X82008400Y-73003600D03*
%TD*%
D17*
%TO.C,R3*%
X51458640Y-86974160D03*
X51458640Y-85074160D03*
%TD*%
%TO.C,R4*%
X49208640Y-85074160D03*
X49208640Y-86974160D03*
%TD*%
D18*
%TO.C,R5*%
X110139600Y-65752600D03*
X110139600Y-64252600D03*
%TD*%
%TO.C,R6*%
X99979600Y-64227200D03*
X99979600Y-65727200D03*
%TD*%
%TO.C,R7*%
X89159200Y-62144400D03*
X89159200Y-63644400D03*
%TD*%
D16*
%TO.C,R8*%
X116831800Y-71403400D03*
X118331800Y-71403400D03*
%TD*%
%TO.C,R9*%
X111753200Y-71352600D03*
X110253200Y-71352600D03*
%TD*%
D18*
%TO.C,R10*%
X85120600Y-68953000D03*
X85120600Y-67453000D03*
%TD*%
%TO.C,R11*%
X79837400Y-68941000D03*
X79837400Y-67441000D03*
%TD*%
%TO.C,R12*%
X94823400Y-66475800D03*
X94823400Y-64975800D03*
%TD*%
%TO.C,R13*%
X116819800Y-72939400D03*
X116819800Y-74439400D03*
%TD*%
%TO.C,R14*%
X111739800Y-72914000D03*
X111739800Y-74414000D03*
%TD*%
D16*
%TO.C,R15*%
X99128000Y-79785400D03*
X100628000Y-79785400D03*
%TD*%
D18*
%TO.C,R16*%
X115549800Y-83886800D03*
X115549800Y-85386800D03*
%TD*%
D16*
%TO.C,R17*%
X115612600Y-86821200D03*
X117112600Y-86821200D03*
%TD*%
D19*
%TO.C,U3*%
X44193400Y-86988600D03*
D20*
X46893400Y-88893600D03*
X46893400Y-87623600D03*
X46893400Y-86353600D03*
X46893400Y-85083600D03*
X41493400Y-85083600D03*
X41493400Y-86353600D03*
X41493400Y-87623600D03*
X41493400Y-88893600D03*
%TD*%
D21*
%TO.C,U5*%
X116819800Y-75924600D03*
X115549800Y-75924600D03*
X114279800Y-75924600D03*
X113009800Y-75924600D03*
X111739800Y-75924600D03*
X110469800Y-75924600D03*
X109199800Y-75924600D03*
X109199800Y-82274600D03*
X110469800Y-82274600D03*
X113009800Y-82274600D03*
X114279800Y-82274600D03*
X115549800Y-82274600D03*
X116819800Y-82274600D03*
X111739800Y-82274600D03*
%TD*%
D10*
%TO.C,U6*%
G36*
X85007066Y-79274045D02*
G01*
X84618157Y-78885136D01*
X85749528Y-77753765D01*
X86138437Y-78142674D01*
X85007066Y-79274045D01*
G37*
G36*
X85572752Y-79839730D02*
G01*
X85183843Y-79450821D01*
X86315214Y-78319450D01*
X86704123Y-78708359D01*
X85572752Y-79839730D01*
G37*
G36*
X86138437Y-80405416D02*
G01*
X85749528Y-80016507D01*
X86880899Y-78885136D01*
X87269808Y-79274045D01*
X86138437Y-80405416D01*
G37*
G36*
X86704122Y-80971101D02*
G01*
X86315213Y-80582192D01*
X87446584Y-79450821D01*
X87835493Y-79839730D01*
X86704122Y-80971101D01*
G37*
G36*
X87269808Y-81536787D02*
G01*
X86880899Y-81147878D01*
X88012270Y-80016507D01*
X88401179Y-80405416D01*
X87269808Y-81536787D01*
G37*
G36*
X87835493Y-82102472D02*
G01*
X87446584Y-81713563D01*
X88577955Y-80582192D01*
X88966864Y-80971101D01*
X87835493Y-82102472D01*
G37*
G36*
X88401179Y-82668157D02*
G01*
X88012270Y-82279248D01*
X89143641Y-81147877D01*
X89532550Y-81536786D01*
X88401179Y-82668157D01*
G37*
G36*
X88966864Y-83233843D02*
G01*
X88577955Y-82844934D01*
X89709326Y-81713563D01*
X90098235Y-82102472D01*
X88966864Y-83233843D01*
G37*
G36*
X92148845Y-82844934D02*
G01*
X91759936Y-83233843D01*
X90628565Y-82102472D01*
X91017474Y-81713563D01*
X92148845Y-82844934D01*
G37*
G36*
X92714530Y-82279248D02*
G01*
X92325621Y-82668157D01*
X91194250Y-81536786D01*
X91583159Y-81147877D01*
X92714530Y-82279248D01*
G37*
G36*
X93280216Y-81713563D02*
G01*
X92891307Y-82102472D01*
X91759936Y-80971101D01*
X92148845Y-80582192D01*
X93280216Y-81713563D01*
G37*
G36*
X93845901Y-81147878D02*
G01*
X93456992Y-81536787D01*
X92325621Y-80405416D01*
X92714530Y-80016507D01*
X93845901Y-81147878D01*
G37*
G36*
X94411587Y-80582192D02*
G01*
X94022678Y-80971101D01*
X92891307Y-79839730D01*
X93280216Y-79450821D01*
X94411587Y-80582192D01*
G37*
G36*
X94977272Y-80016507D02*
G01*
X94588363Y-80405416D01*
X93456992Y-79274045D01*
X93845901Y-78885136D01*
X94977272Y-80016507D01*
G37*
G36*
X95542957Y-79450821D02*
G01*
X95154048Y-79839730D01*
X94022677Y-78708359D01*
X94411586Y-78319450D01*
X95542957Y-79450821D01*
G37*
G36*
X96108643Y-78885136D02*
G01*
X95719734Y-79274045D01*
X94588363Y-78142674D01*
X94977272Y-77753765D01*
X96108643Y-78885136D01*
G37*
G36*
X94977272Y-77223435D02*
G01*
X94588363Y-76834526D01*
X95719734Y-75703155D01*
X96108643Y-76092064D01*
X94977272Y-77223435D01*
G37*
G36*
X94411586Y-76657750D02*
G01*
X94022677Y-76268841D01*
X95154048Y-75137470D01*
X95542957Y-75526379D01*
X94411586Y-76657750D01*
G37*
G36*
X93845901Y-76092064D02*
G01*
X93456992Y-75703155D01*
X94588363Y-74571784D01*
X94977272Y-74960693D01*
X93845901Y-76092064D01*
G37*
G36*
X93280216Y-75526379D02*
G01*
X92891307Y-75137470D01*
X94022678Y-74006099D01*
X94411587Y-74395008D01*
X93280216Y-75526379D01*
G37*
G36*
X92714530Y-74960693D02*
G01*
X92325621Y-74571784D01*
X93456992Y-73440413D01*
X93845901Y-73829322D01*
X92714530Y-74960693D01*
G37*
G36*
X92148845Y-74395008D02*
G01*
X91759936Y-74006099D01*
X92891307Y-72874728D01*
X93280216Y-73263637D01*
X92148845Y-74395008D01*
G37*
G36*
X91583159Y-73829323D02*
G01*
X91194250Y-73440414D01*
X92325621Y-72309043D01*
X92714530Y-72697952D01*
X91583159Y-73829323D01*
G37*
G36*
X91017474Y-73263637D02*
G01*
X90628565Y-72874728D01*
X91759936Y-71743357D01*
X92148845Y-72132266D01*
X91017474Y-73263637D01*
G37*
G36*
X90098235Y-72874728D02*
G01*
X89709326Y-73263637D01*
X88577955Y-72132266D01*
X88966864Y-71743357D01*
X90098235Y-72874728D01*
G37*
G36*
X89532550Y-73440414D02*
G01*
X89143641Y-73829323D01*
X88012270Y-72697952D01*
X88401179Y-72309043D01*
X89532550Y-73440414D01*
G37*
G36*
X88966864Y-74006099D02*
G01*
X88577955Y-74395008D01*
X87446584Y-73263637D01*
X87835493Y-72874728D01*
X88966864Y-74006099D01*
G37*
G36*
X88401179Y-74571784D02*
G01*
X88012270Y-74960693D01*
X86880899Y-73829322D01*
X87269808Y-73440413D01*
X88401179Y-74571784D01*
G37*
G36*
X87835493Y-75137470D02*
G01*
X87446584Y-75526379D01*
X86315213Y-74395008D01*
X86704122Y-74006099D01*
X87835493Y-75137470D01*
G37*
G36*
X87269808Y-75703155D02*
G01*
X86880899Y-76092064D01*
X85749528Y-74960693D01*
X86138437Y-74571784D01*
X87269808Y-75703155D01*
G37*
G36*
X86704123Y-76268841D02*
G01*
X86315214Y-76657750D01*
X85183843Y-75526379D01*
X85572752Y-75137470D01*
X86704123Y-76268841D01*
G37*
G36*
X86138437Y-76834526D02*
G01*
X85749528Y-77223435D01*
X84618157Y-76092064D01*
X85007066Y-75703155D01*
X86138437Y-76834526D01*
G37*
%TD*%
M02*
