M48
; DRILL file {KiCad (5.1.6)-1} date 11/03/20 19:25:52
; FORMAT={-:-/ absolute / inch / decimal}
; #@! TF.CreationDate,2020-11-03T19:25:52-05:00
; #@! TF.GenerationSoftware,Kicad,Pcbnew,(5.1.6)-1
FMAT,2
INCH
T1C0.0118
T2C0.0157
T3C0.0315
T4C0.0394
T5C0.0402
T6C0.0413
T7C0.0472
T8C0.1063
T9C0.0512
%
G90
G05
T1
X1.7163Y-3.3539
X1.7163Y-3.3972
X1.7163Y-3.4484
X1.7163Y-3.4956
X1.7635Y-3.3539
X1.7635Y-3.3972
X1.7635Y-3.4484
X1.7635Y-3.4956
T2
X1.518Y-3.4872
X1.518Y-3.4872
X1.5722Y-3.4884
X2.0052Y-3.5482
X2.1022Y-3.4242
X3.1428Y-2.7746
X3.1742Y-2.9472
X3.1752Y-2.8742
X3.288Y-2.8308
X3.2882Y-2.9944
X3.2968Y-3.1786
X3.297Y-3.0688
X3.2976Y-3.1258
X3.3516Y-2.7746
X3.4788Y-3.108
X3.4962Y-2.9708
X3.5034Y-3.0188
X3.5232Y-3.1524
X3.5237Y-2.9426
X3.58Y-3.1384
X3.6201Y-3.0925
X3.6282Y-2.4102
X3.6422Y-3.291
X3.6654Y-2.8298
X3.6802Y-3.0396
X3.69Y-3.2916
X3.7182Y-3.2282
X3.7332Y-2.4922
X3.8618Y-3.1996
X3.8876Y-2.5286
X4.0002Y-2.5882
X4.0488Y-2.7878
X4.1458Y-2.7908
X4.2712Y-2.5882
X4.295Y-2.8092
X4.3504Y-3.0412
X4.4558Y-2.8702
X4.4658Y-3.2968
X4.549Y-3.0394
X4.5998Y-2.7672
X4.6552Y-3.2402
X4.6682Y-3.4172
X4.7014Y-2.8106
T3
X1.3954Y-3.4051
X1.3954Y-3.4838
T4
X3.8712Y-3.3032
X3.8712Y-3.4032
X3.9712Y-3.3032
X3.9712Y-3.4032
X4.0712Y-3.3032
X4.0712Y-3.4032
X2.2517Y-2.3322
X2.4486Y-2.3322
X2.7032Y-2.2112
X2.7032Y-2.3112
X2.7032Y-2.4112
X2.7032Y-2.5112
X3.7642Y-2.1894
X3.8642Y-2.1894
X3.9642Y-2.1894
X4.0642Y-2.1894
X4.1642Y-2.1894
X4.2642Y-2.1894
X4.3642Y-2.1894
X4.4642Y-2.1894
X2.9032Y-2.5052
X3.0032Y-2.5052
X3.1032Y-2.5052
X3.2032Y-2.5052
X3.3032Y-2.5052
X3.4032Y-2.5052
X1.799Y-2.3322
X1.9958Y-2.3322
X3.9362Y-2.4492
X4.0362Y-2.4492
X4.1362Y-2.4492
X4.2362Y-2.4492
X4.3362Y-2.4492
X3.9782Y-2.7042
X4.0782Y-2.7042
X4.1782Y-2.7042
X4.2782Y-2.7042
T5
X2.2005Y-2.796
X2.2005Y-3.296
X2.3005Y-2.796
X2.3005Y-3.296
X2.4005Y-2.796
X2.4005Y-3.296
X2.5005Y-2.796
X2.5005Y-3.296
X2.6005Y-2.796
X2.6005Y-3.296
X2.7005Y-2.796
X2.7005Y-3.296
X2.8005Y-2.796
X2.8005Y-3.296
X2.9005Y-2.796
X2.9005Y-3.296
T6
X4.7792Y-2.622
X4.7792Y-2.7992
X5.0351Y-2.622
X5.0351Y-2.7992
X4.7792Y-3.399
X4.7792Y-3.5762
X5.0351Y-3.399
X5.0351Y-3.5762
X4.7792Y-3.022
X4.7792Y-3.1992
X5.0351Y-3.022
X5.0351Y-3.1992
T7
X2.6553Y-3.7791
X2.8521Y-3.7791
X1.986Y-3.7791
X2.3797Y-3.7791
T8
X1.487Y-2.38
X4.987Y-2.38
X4.987Y-3.8082
X1.487Y-3.805
T9
X1.4446Y-3.0999
T3
G00X1.4348Y-2.8559
M15
G01X1.3757Y-2.8559
M16
G05
G00X1.4348Y-3.2456
M15
G01X1.3757Y-3.2456
M16
G05
G00X1.7163Y-2.8913
M15
G01X1.669Y-2.8913
M16
G05
G00X1.7163Y-3.096
M15
G01X1.669Y-3.096
M16
G05
G00X1.7163Y-3.2299
M15
G01X1.669Y-3.2299
M16
G05
T0
M30
