%TF.GenerationSoftware,KiCad,Pcbnew,(5.1.6)-1*%
%TF.CreationDate,2020-11-03T19:25:33-05:00*%
%TF.ProjectId,Kitty Caddy,4b697474-7920-4436-9164-64792e6b6963,rev?*%
%TF.SameCoordinates,Original*%
%TF.FileFunction,Copper,L3,Inr*%
%TF.FilePolarity,Positive*%
%FSLAX46Y46*%
G04 Gerber Fmt 4.6, Leading zero omitted, Abs format (unit mm)*
G04 Created by KiCad (PCBNEW (5.1.6)-1) date 2020-11-03 19:25:33*
%MOMM*%
%LPD*%
G01*
G04 APERTURE LIST*
%TA.AperFunction,ViaPad*%
%ADD10C,2.000000*%
%TD*%
%TA.AperFunction,ViaPad*%
%ADD11R,1.524000X1.524000*%
%TD*%
%TA.AperFunction,ViaPad*%
%ADD12C,1.524000*%
%TD*%
%TA.AperFunction,ViaPad*%
%ADD13C,5.400000*%
%TD*%
%TA.AperFunction,ViaPad*%
%ADD14R,1.600000X1.600000*%
%TD*%
%TA.AperFunction,ViaPad*%
%ADD15C,1.600000*%
%TD*%
%TA.AperFunction,ViaPad*%
%ADD16R,2.000000X2.000000*%
%TD*%
%TA.AperFunction,ViaPad*%
%ADD17R,2.400000X2.400000*%
%TD*%
%TA.AperFunction,ViaPad*%
%ADD18C,2.400000*%
%TD*%
%TA.AperFunction,ViaPad*%
%ADD19O,2.616000X1.308000*%
%TD*%
%TA.AperFunction,ViaPad*%
%ADD20R,1.700000X1.700000*%
%TD*%
%TA.AperFunction,ViaPad*%
%ADD21O,1.700000X1.700000*%
%TD*%
%TA.AperFunction,ViaPad*%
%ADD22C,0.600000*%
%TD*%
%TA.AperFunction,ViaPad*%
%ADD23C,0.800000*%
%TD*%
%TA.AperFunction,Conductor*%
%ADD24C,0.508000*%
%TD*%
%TA.AperFunction,Conductor*%
%ADD25C,0.254000*%
%TD*%
G04 APERTURE END LIST*
D10*
%TO.N,GND*%
%TO.C,SW3*%
X127891800Y-86334400D03*
X121391800Y-86334400D03*
%TO.N,Net-(R16-Pad2)*%
X127891800Y-90834400D03*
X121391800Y-90834400D03*
%TD*%
%TO.N,Net-(R14-Pad1)*%
%TO.C,SW2*%
X127891800Y-76758600D03*
X121391800Y-76758600D03*
%TO.N,GND*%
X127891800Y-81258600D03*
X121391800Y-81258600D03*
%TD*%
%TO.N,Net-(R13-Pad1)*%
%TO.C,SW1*%
X127891800Y-66598600D03*
X121391800Y-66598600D03*
%TO.N,GND*%
X127891800Y-71098600D03*
X121391800Y-71098600D03*
%TD*%
D11*
%TO.N,GND*%
%TO.C,U2*%
X73673400Y-71018600D03*
D12*
%TO.N,N/C*%
X71133400Y-71018600D03*
%TO.N,Net-(J2-Pad2)*%
X68593400Y-71018600D03*
%TO.N,Net-(J2-Pad1)*%
X66053400Y-71018600D03*
%TO.N,Net-(J2-Pad3)*%
X63513400Y-71018600D03*
%TO.N,Net-(J2-Pad4)*%
X60973400Y-71018600D03*
D11*
%TO.N,GND*%
X58433400Y-71018600D03*
D12*
%TO.N,+12V*%
X55893400Y-71018600D03*
%TO.N,DIR*%
X73673400Y-83718600D03*
%TO.N,STEP*%
X71133400Y-83718600D03*
%TO.N,+5V*%
X68593400Y-83718600D03*
X66053400Y-83718600D03*
%TO.N,M2*%
X63513400Y-83718600D03*
%TO.N,M1*%
X60973400Y-83718600D03*
%TO.N,M0*%
X58433400Y-83718600D03*
%TO.N,N/C*%
X55893400Y-83718600D03*
%TD*%
D13*
%TO.N,N/C*%
%TO.C,REF\u002A\u002A*%
X126670200Y-96727200D03*
%TD*%
%TO.N,N/C*%
%TO.C,REF\u002A\u002A*%
X37770200Y-96647200D03*
%TD*%
%TO.N,N/C*%
%TO.C,REF\u002A\u002A*%
X126670200Y-60452200D03*
%TD*%
%TO.N,N/C*%
%TO.C,REF\u002A\u002A*%
X37770200Y-60452200D03*
%TD*%
D14*
%TO.N,+12V*%
%TO.C,C1*%
X35443400Y-86488600D03*
D15*
%TO.N,GND*%
X35443400Y-88488600D03*
%TD*%
D16*
%TO.N,+12V*%
%TO.C,C3*%
X45693400Y-59238600D03*
D10*
%TO.N,GND*%
X50693400Y-59238600D03*
%TD*%
D16*
%TO.N,+12V*%
%TO.C,C4*%
X62193400Y-59238600D03*
D10*
%TO.N,GND*%
X57193400Y-59238600D03*
%TD*%
D17*
%TO.N,+5V*%
%TO.C,C6*%
X67443400Y-95988600D03*
D18*
%TO.N,GND*%
X72443400Y-95988600D03*
%TD*%
D19*
%TO.N,+12V*%
%TO.C,J1*%
X42993400Y-82038600D03*
%TO.N,GND*%
X42993400Y-78638600D03*
X42993400Y-73438600D03*
X35693400Y-72538600D03*
X35693400Y-82438600D03*
%TD*%
D20*
%TO.N,Net-(J2-Pad1)*%
%TO.C,J2*%
X68661400Y-63783400D03*
D21*
%TO.N,Net-(J2-Pad2)*%
X68661400Y-61243400D03*
%TO.N,Net-(J2-Pad3)*%
X68661400Y-58703400D03*
%TO.N,Net-(J2-Pad4)*%
X68661400Y-56163400D03*
%TD*%
D20*
%TO.N,Net-(J3-Pad1)*%
%TO.C,J3*%
X110139600Y-62208600D03*
D21*
%TO.N,GND*%
X107599600Y-62208600D03*
%TO.N,N/C*%
X105059600Y-62208600D03*
%TO.N,GND*%
X102519600Y-62208600D03*
%TO.N,SENSE*%
X99979600Y-62208600D03*
%TD*%
D20*
%TO.N,DTR*%
%TO.C,J4*%
X86441400Y-63631000D03*
D21*
%TO.N,RXI*%
X83901400Y-63631000D03*
%TO.N,TXO*%
X81361400Y-63631000D03*
%TO.N,+5V*%
X78821400Y-63631000D03*
%TO.N,GND*%
X76281400Y-63631000D03*
X73741400Y-63631000D03*
%TD*%
D20*
%TO.N,MISO*%
%TO.C,J5*%
X103408600Y-83900200D03*
D21*
%TO.N,+5V*%
X103408600Y-86440200D03*
%TO.N,SCK*%
X100868600Y-83900200D03*
%TO.N,MOSI*%
X100868600Y-86440200D03*
%TO.N,RESET_PIN*%
X98328600Y-83900200D03*
%TO.N,GND*%
X98328600Y-86440200D03*
%TD*%
D18*
%TO.N,Net-(C5-Pad1)*%
%TO.C,L1*%
X50443400Y-95988600D03*
%TO.N,+5V*%
X60443400Y-95988600D03*
%TD*%
D20*
%TO.N,GND*%
%TO.C,U1*%
X101046400Y-68685600D03*
D21*
%TO.N,+5V*%
X103586400Y-68685600D03*
%TO.N,SCL*%
X106126400Y-68685600D03*
%TO.N,SDA*%
X108666400Y-68685600D03*
%TD*%
D22*
%TO.N,GND*%
%TO.C,U3*%
X44793400Y-88788600D03*
X44793400Y-87588600D03*
X43593400Y-87588600D03*
X43593400Y-88788600D03*
X44793400Y-85188600D03*
X44793400Y-86288600D03*
X43593400Y-86288600D03*
X43593400Y-85188600D03*
%TD*%
D20*
%TO.N,+5V*%
%TO.C,U4*%
X95610800Y-55609680D03*
D21*
%TO.N,GND*%
X98150800Y-55609680D03*
%TO.N,SCL*%
X100690800Y-55609680D03*
%TO.N,SDA*%
X103230800Y-55609680D03*
%TO.N,N/C*%
X105770800Y-55609680D03*
X108310800Y-55609680D03*
X110850800Y-55609680D03*
X113390800Y-55609680D03*
%TD*%
D23*
%TO.N,+12V*%
X38557320Y-88573800D03*
X38557320Y-88573800D03*
X39934000Y-88604280D03*
%TO.N,+5V*%
X80650200Y-73003600D03*
X80624800Y-74857800D03*
X92156400Y-61218000D03*
X94823400Y-63300800D03*
X118572400Y-86795800D03*
X118242200Y-82300000D03*
X108488600Y-65739200D03*
X101605200Y-65739200D03*
X53396000Y-86973600D03*
X50932200Y-90123200D03*
X79827240Y-70473760D03*
X85130760Y-70473760D03*
X93477200Y-77204760D03*
X89489400Y-80069880D03*
X88361640Y-78942120D03*
X119415680Y-71388160D03*
X109093120Y-71352600D03*
%TO.N,RESET_PIN*%
X88986480Y-76676440D03*
%TO.N,SENSE*%
X93101280Y-71875840D03*
X98745160Y-64225360D03*
%TO.N,MISO*%
X98090700Y-81269199D03*
%TO.N,SCL*%
X88803600Y-75457240D03*
X83520400Y-76056680D03*
%TO.N,SDA*%
X89502138Y-74741665D03*
X83515320Y-71901240D03*
X102839640Y-70809040D03*
X105303440Y-70885240D03*
%TO.N,Net-(R13-Pad1)*%
X116835040Y-70285800D03*
%TO.N,Net-(R14-Pad1)*%
X113177440Y-72902000D03*
%TO.N,UP_BTN*%
X92512000Y-83590320D03*
X115544720Y-77199680D03*
%TO.N,M0*%
X83743920Y-77946440D03*
%TO.N,M1*%
X83759160Y-79394240D03*
%TO.N,M2*%
X83738840Y-80735360D03*
%TO.N,STEP*%
X90932120Y-79714280D03*
%TO.N,DIR*%
X91950168Y-78549902D03*
%TO.N,MODE_BTN*%
X113431440Y-83737640D03*
X93726120Y-83605560D03*
%TO.N,DOWN_BTN*%
X94441074Y-81996199D03*
X110500280Y-77245400D03*
%TD*%
D24*
%TO.N,Net-(J2-Pad1)*%
X66053400Y-71018600D02*
X68661400Y-68410600D01*
X68661400Y-68410600D02*
X68661400Y-63783400D01*
%TO.N,Net-(J2-Pad2)*%
X68593400Y-71018600D02*
X70495280Y-69116720D01*
X70495280Y-69116720D02*
X70495280Y-62452440D01*
X69286240Y-61243400D02*
X68661400Y-61243400D01*
X70495280Y-62452440D02*
X69286240Y-61243400D01*
%TO.N,Net-(J2-Pad3)*%
X63513400Y-71018600D02*
X66273120Y-68258880D01*
X66273120Y-61091680D02*
X68661400Y-58703400D01*
X66273120Y-68258880D02*
X66273120Y-61091680D01*
%TO.N,Net-(J2-Pad4)*%
X60973400Y-71018600D02*
X64114120Y-67877880D01*
X64114120Y-60710680D02*
X68661400Y-56163400D01*
X64114120Y-67877880D02*
X64114120Y-60710680D01*
D25*
%TO.N,Net-(R13-Pad1)*%
X127891800Y-66598600D02*
X121391800Y-66598600D01*
%TO.N,Net-(R14-Pad1)*%
X121391800Y-76758600D02*
X127891800Y-76758600D01*
%TO.N,Net-(R16-Pad2)*%
X127891800Y-90834400D02*
X121391800Y-90834400D01*
%TD*%
%TO.N,+12V*%
G36*
X127811483Y-54019773D02*
G01*
X128555291Y-54223256D01*
X129251305Y-54555238D01*
X129877530Y-55005226D01*
X130414177Y-55559003D01*
X130844271Y-56199051D01*
X131154229Y-56905153D01*
X131335465Y-57660057D01*
X131383400Y-58312807D01*
X131383401Y-98259197D01*
X131312227Y-99056683D01*
X131108744Y-99800490D01*
X130776763Y-100496504D01*
X130326774Y-101122730D01*
X129772997Y-101659377D01*
X129132949Y-102089471D01*
X128426847Y-102399429D01*
X127671943Y-102580665D01*
X127019193Y-102628600D01*
X37072792Y-102628600D01*
X36275317Y-102557427D01*
X35531510Y-102353944D01*
X34835496Y-102021963D01*
X34209270Y-101571974D01*
X33672623Y-101018197D01*
X33242529Y-100378149D01*
X32932571Y-99672047D01*
X32751335Y-98917143D01*
X32703400Y-98264393D01*
X32703400Y-96318731D01*
X34435200Y-96318731D01*
X34435200Y-96975669D01*
X34563362Y-97619984D01*
X34814761Y-98226915D01*
X35179736Y-98773139D01*
X35644261Y-99237664D01*
X36190485Y-99602639D01*
X36797416Y-99854038D01*
X37441731Y-99982200D01*
X38098669Y-99982200D01*
X38742984Y-99854038D01*
X39349915Y-99602639D01*
X39896139Y-99237664D01*
X40360664Y-98773139D01*
X40725639Y-98226915D01*
X40977038Y-97619984D01*
X41105200Y-96975669D01*
X41105200Y-96318731D01*
X41003584Y-95807868D01*
X48608400Y-95807868D01*
X48608400Y-96169332D01*
X48678918Y-96523850D01*
X48817244Y-96857799D01*
X49018062Y-97158344D01*
X49273656Y-97413938D01*
X49574201Y-97614756D01*
X49908150Y-97753082D01*
X50262668Y-97823600D01*
X50624132Y-97823600D01*
X50978650Y-97753082D01*
X51312599Y-97614756D01*
X51613144Y-97413938D01*
X51868738Y-97158344D01*
X52069556Y-96857799D01*
X52207882Y-96523850D01*
X52278400Y-96169332D01*
X52278400Y-95807868D01*
X58608400Y-95807868D01*
X58608400Y-96169332D01*
X58678918Y-96523850D01*
X58817244Y-96857799D01*
X59018062Y-97158344D01*
X59273656Y-97413938D01*
X59574201Y-97614756D01*
X59908150Y-97753082D01*
X60262668Y-97823600D01*
X60624132Y-97823600D01*
X60978650Y-97753082D01*
X61312599Y-97614756D01*
X61613144Y-97413938D01*
X61868738Y-97158344D01*
X62069556Y-96857799D01*
X62207882Y-96523850D01*
X62278400Y-96169332D01*
X62278400Y-95807868D01*
X62207882Y-95453350D01*
X62069556Y-95119401D01*
X61868738Y-94818856D01*
X61838482Y-94788600D01*
X65605328Y-94788600D01*
X65605328Y-97188600D01*
X65617588Y-97313082D01*
X65653898Y-97432780D01*
X65712863Y-97543094D01*
X65792215Y-97639785D01*
X65888906Y-97719137D01*
X65999220Y-97778102D01*
X66118918Y-97814412D01*
X66243400Y-97826672D01*
X68643400Y-97826672D01*
X68767882Y-97814412D01*
X68887580Y-97778102D01*
X68997894Y-97719137D01*
X69094585Y-97639785D01*
X69173937Y-97543094D01*
X69232902Y-97432780D01*
X69269212Y-97313082D01*
X69281472Y-97188600D01*
X69281472Y-95807868D01*
X70608400Y-95807868D01*
X70608400Y-96169332D01*
X70678918Y-96523850D01*
X70817244Y-96857799D01*
X71018062Y-97158344D01*
X71273656Y-97413938D01*
X71574201Y-97614756D01*
X71908150Y-97753082D01*
X72262668Y-97823600D01*
X72624132Y-97823600D01*
X72978650Y-97753082D01*
X73312599Y-97614756D01*
X73613144Y-97413938D01*
X73868738Y-97158344D01*
X74069556Y-96857799D01*
X74207882Y-96523850D01*
X74232769Y-96398731D01*
X123335200Y-96398731D01*
X123335200Y-97055669D01*
X123463362Y-97699984D01*
X123714761Y-98306915D01*
X124079736Y-98853139D01*
X124544261Y-99317664D01*
X125090485Y-99682639D01*
X125697416Y-99934038D01*
X126341731Y-100062200D01*
X126998669Y-100062200D01*
X127642984Y-99934038D01*
X128249915Y-99682639D01*
X128796139Y-99317664D01*
X129260664Y-98853139D01*
X129625639Y-98306915D01*
X129877038Y-97699984D01*
X130005200Y-97055669D01*
X130005200Y-96398731D01*
X129877038Y-95754416D01*
X129625639Y-95147485D01*
X129260664Y-94601261D01*
X128796139Y-94136736D01*
X128249915Y-93771761D01*
X127642984Y-93520362D01*
X126998669Y-93392200D01*
X126341731Y-93392200D01*
X125697416Y-93520362D01*
X125090485Y-93771761D01*
X124544261Y-94136736D01*
X124079736Y-94601261D01*
X123714761Y-95147485D01*
X123463362Y-95754416D01*
X123335200Y-96398731D01*
X74232769Y-96398731D01*
X74278400Y-96169332D01*
X74278400Y-95807868D01*
X74207882Y-95453350D01*
X74069556Y-95119401D01*
X73868738Y-94818856D01*
X73613144Y-94563262D01*
X73312599Y-94362444D01*
X72978650Y-94224118D01*
X72624132Y-94153600D01*
X72262668Y-94153600D01*
X71908150Y-94224118D01*
X71574201Y-94362444D01*
X71273656Y-94563262D01*
X71018062Y-94818856D01*
X70817244Y-95119401D01*
X70678918Y-95453350D01*
X70608400Y-95807868D01*
X69281472Y-95807868D01*
X69281472Y-94788600D01*
X69269212Y-94664118D01*
X69232902Y-94544420D01*
X69173937Y-94434106D01*
X69094585Y-94337415D01*
X68997894Y-94258063D01*
X68887580Y-94199098D01*
X68767882Y-94162788D01*
X68643400Y-94150528D01*
X66243400Y-94150528D01*
X66118918Y-94162788D01*
X65999220Y-94199098D01*
X65888906Y-94258063D01*
X65792215Y-94337415D01*
X65712863Y-94434106D01*
X65653898Y-94544420D01*
X65617588Y-94664118D01*
X65605328Y-94788600D01*
X61838482Y-94788600D01*
X61613144Y-94563262D01*
X61312599Y-94362444D01*
X60978650Y-94224118D01*
X60624132Y-94153600D01*
X60262668Y-94153600D01*
X59908150Y-94224118D01*
X59574201Y-94362444D01*
X59273656Y-94563262D01*
X59018062Y-94818856D01*
X58817244Y-95119401D01*
X58678918Y-95453350D01*
X58608400Y-95807868D01*
X52278400Y-95807868D01*
X52207882Y-95453350D01*
X52069556Y-95119401D01*
X51868738Y-94818856D01*
X51613144Y-94563262D01*
X51312599Y-94362444D01*
X50978650Y-94224118D01*
X50624132Y-94153600D01*
X50262668Y-94153600D01*
X49908150Y-94224118D01*
X49574201Y-94362444D01*
X49273656Y-94563262D01*
X49018062Y-94818856D01*
X48817244Y-95119401D01*
X48678918Y-95453350D01*
X48608400Y-95807868D01*
X41003584Y-95807868D01*
X40977038Y-95674416D01*
X40725639Y-95067485D01*
X40360664Y-94521261D01*
X39896139Y-94056736D01*
X39349915Y-93691761D01*
X38742984Y-93440362D01*
X38098669Y-93312200D01*
X37441731Y-93312200D01*
X36797416Y-93440362D01*
X36190485Y-93691761D01*
X35644261Y-94056736D01*
X35179736Y-94521261D01*
X34814761Y-95067485D01*
X34563362Y-95674416D01*
X34435200Y-96318731D01*
X32703400Y-96318731D01*
X32703400Y-90021261D01*
X49897200Y-90021261D01*
X49897200Y-90225139D01*
X49936974Y-90425098D01*
X50014995Y-90613456D01*
X50128263Y-90782974D01*
X50272426Y-90927137D01*
X50441944Y-91040405D01*
X50630302Y-91118426D01*
X50830261Y-91158200D01*
X51034139Y-91158200D01*
X51234098Y-91118426D01*
X51422456Y-91040405D01*
X51591974Y-90927137D01*
X51736137Y-90782974D01*
X51809373Y-90673367D01*
X119756800Y-90673367D01*
X119756800Y-90995433D01*
X119819632Y-91311312D01*
X119942882Y-91608863D01*
X120121813Y-91876652D01*
X120349548Y-92104387D01*
X120617337Y-92283318D01*
X120914888Y-92406568D01*
X121230767Y-92469400D01*
X121552833Y-92469400D01*
X121868712Y-92406568D01*
X122166263Y-92283318D01*
X122434052Y-92104387D01*
X122661787Y-91876652D01*
X122840718Y-91608863D01*
X122845880Y-91596400D01*
X126437720Y-91596400D01*
X126442882Y-91608863D01*
X126621813Y-91876652D01*
X126849548Y-92104387D01*
X127117337Y-92283318D01*
X127414888Y-92406568D01*
X127730767Y-92469400D01*
X128052833Y-92469400D01*
X128368712Y-92406568D01*
X128666263Y-92283318D01*
X128934052Y-92104387D01*
X129161787Y-91876652D01*
X129340718Y-91608863D01*
X129463968Y-91311312D01*
X129526800Y-90995433D01*
X129526800Y-90673367D01*
X129463968Y-90357488D01*
X129340718Y-90059937D01*
X129161787Y-89792148D01*
X128934052Y-89564413D01*
X128666263Y-89385482D01*
X128368712Y-89262232D01*
X128052833Y-89199400D01*
X127730767Y-89199400D01*
X127414888Y-89262232D01*
X127117337Y-89385482D01*
X126849548Y-89564413D01*
X126621813Y-89792148D01*
X126442882Y-90059937D01*
X126437720Y-90072400D01*
X122845880Y-90072400D01*
X122840718Y-90059937D01*
X122661787Y-89792148D01*
X122434052Y-89564413D01*
X122166263Y-89385482D01*
X121868712Y-89262232D01*
X121552833Y-89199400D01*
X121230767Y-89199400D01*
X120914888Y-89262232D01*
X120617337Y-89385482D01*
X120349548Y-89564413D01*
X120121813Y-89792148D01*
X119942882Y-90059937D01*
X119819632Y-90357488D01*
X119756800Y-90673367D01*
X51809373Y-90673367D01*
X51849405Y-90613456D01*
X51927426Y-90425098D01*
X51967200Y-90225139D01*
X51967200Y-90021261D01*
X51927426Y-89821302D01*
X51849405Y-89632944D01*
X51736137Y-89463426D01*
X51591974Y-89319263D01*
X51422456Y-89205995D01*
X51234098Y-89127974D01*
X51034139Y-89088200D01*
X50830261Y-89088200D01*
X50630302Y-89127974D01*
X50441944Y-89205995D01*
X50272426Y-89319263D01*
X50128263Y-89463426D01*
X50014995Y-89632944D01*
X49936974Y-89821302D01*
X49897200Y-90021261D01*
X32703400Y-90021261D01*
X32703400Y-87288600D01*
X34005328Y-87288600D01*
X34017588Y-87413082D01*
X34053898Y-87532780D01*
X34112863Y-87643094D01*
X34192215Y-87739785D01*
X34208793Y-87753390D01*
X34171720Y-87808873D01*
X34063547Y-88070026D01*
X34008400Y-88347265D01*
X34008400Y-88629935D01*
X34063547Y-88907174D01*
X34171720Y-89168327D01*
X34328763Y-89403359D01*
X34528641Y-89603237D01*
X34763673Y-89760280D01*
X35024826Y-89868453D01*
X35302065Y-89923600D01*
X35584735Y-89923600D01*
X35861974Y-89868453D01*
X36123127Y-89760280D01*
X36358159Y-89603237D01*
X36558037Y-89403359D01*
X36715080Y-89168327D01*
X36823253Y-88907174D01*
X36878400Y-88629935D01*
X36878400Y-88347265D01*
X36823253Y-88070026D01*
X36715080Y-87808873D01*
X36678007Y-87753390D01*
X36694585Y-87739785D01*
X36773937Y-87643094D01*
X36832902Y-87532780D01*
X36869212Y-87413082D01*
X36881472Y-87288600D01*
X36878400Y-86774350D01*
X36719650Y-86615600D01*
X35570400Y-86615600D01*
X35570400Y-86635600D01*
X35316400Y-86635600D01*
X35316400Y-86615600D01*
X34167150Y-86615600D01*
X34008400Y-86774350D01*
X34005328Y-87288600D01*
X32703400Y-87288600D01*
X32703400Y-85688600D01*
X34005328Y-85688600D01*
X34008400Y-86202850D01*
X34167150Y-86361600D01*
X35316400Y-86361600D01*
X35316400Y-85212350D01*
X35570400Y-85212350D01*
X35570400Y-86361600D01*
X36719650Y-86361600D01*
X36878400Y-86202850D01*
X36881472Y-85688600D01*
X36869212Y-85564118D01*
X36832902Y-85444420D01*
X36773937Y-85334106D01*
X36694585Y-85237415D01*
X36597894Y-85158063D01*
X36487580Y-85099098D01*
X36479052Y-85096511D01*
X42658400Y-85096511D01*
X42658400Y-85280689D01*
X42694332Y-85461329D01*
X42764814Y-85631489D01*
X42836383Y-85738600D01*
X42764814Y-85845711D01*
X42694332Y-86015871D01*
X42658400Y-86196511D01*
X42658400Y-86380689D01*
X42694332Y-86561329D01*
X42764814Y-86731489D01*
X42867138Y-86884628D01*
X42921110Y-86938600D01*
X42867138Y-86992572D01*
X42764814Y-87145711D01*
X42694332Y-87315871D01*
X42658400Y-87496511D01*
X42658400Y-87680689D01*
X42694332Y-87861329D01*
X42764814Y-88031489D01*
X42867138Y-88184628D01*
X42871110Y-88188600D01*
X42867138Y-88192572D01*
X42764814Y-88345711D01*
X42694332Y-88515871D01*
X42658400Y-88696511D01*
X42658400Y-88880689D01*
X42694332Y-89061329D01*
X42764814Y-89231489D01*
X42867138Y-89384628D01*
X42997372Y-89514862D01*
X43150511Y-89617186D01*
X43320671Y-89687668D01*
X43501311Y-89723600D01*
X43685489Y-89723600D01*
X43866129Y-89687668D01*
X44036289Y-89617186D01*
X44189428Y-89514862D01*
X44193400Y-89510890D01*
X44197372Y-89514862D01*
X44350511Y-89617186D01*
X44520671Y-89687668D01*
X44701311Y-89723600D01*
X44885489Y-89723600D01*
X45066129Y-89687668D01*
X45236289Y-89617186D01*
X45389428Y-89514862D01*
X45519662Y-89384628D01*
X45621986Y-89231489D01*
X45692468Y-89061329D01*
X45728400Y-88880689D01*
X45728400Y-88696511D01*
X45692468Y-88515871D01*
X45621986Y-88345711D01*
X45519662Y-88192572D01*
X45515690Y-88188600D01*
X45519662Y-88184628D01*
X45621986Y-88031489D01*
X45692468Y-87861329D01*
X45728400Y-87680689D01*
X45728400Y-87496511D01*
X45692468Y-87315871D01*
X45621986Y-87145711D01*
X45519662Y-86992572D01*
X45465690Y-86938600D01*
X45519662Y-86884628D01*
X45528326Y-86871661D01*
X52361000Y-86871661D01*
X52361000Y-87075539D01*
X52400774Y-87275498D01*
X52478795Y-87463856D01*
X52592063Y-87633374D01*
X52736226Y-87777537D01*
X52905744Y-87890805D01*
X53094102Y-87968826D01*
X53294061Y-88008600D01*
X53497939Y-88008600D01*
X53697898Y-87968826D01*
X53886256Y-87890805D01*
X54055774Y-87777537D01*
X54199937Y-87633374D01*
X54313205Y-87463856D01*
X54391226Y-87275498D01*
X54431000Y-87075539D01*
X54431000Y-86871661D01*
X54391226Y-86671702D01*
X54313205Y-86483344D01*
X54199937Y-86313826D01*
X54055774Y-86169663D01*
X53886256Y-86056395D01*
X53697898Y-85978374D01*
X53497939Y-85938600D01*
X53294061Y-85938600D01*
X53094102Y-85978374D01*
X52905744Y-86056395D01*
X52736226Y-86169663D01*
X52592063Y-86313826D01*
X52478795Y-86483344D01*
X52400774Y-86671702D01*
X52361000Y-86871661D01*
X45528326Y-86871661D01*
X45621986Y-86731489D01*
X45692468Y-86561329D01*
X45728400Y-86380689D01*
X45728400Y-86196511D01*
X45692468Y-86015871D01*
X45621986Y-85845711D01*
X45550417Y-85738600D01*
X45621986Y-85631489D01*
X45692468Y-85461329D01*
X45728400Y-85280689D01*
X45728400Y-85096511D01*
X45692468Y-84915871D01*
X45621986Y-84745711D01*
X45519662Y-84592572D01*
X45389428Y-84462338D01*
X45236289Y-84360014D01*
X45066129Y-84289532D01*
X44885489Y-84253600D01*
X44701311Y-84253600D01*
X44520671Y-84289532D01*
X44350511Y-84360014D01*
X44197372Y-84462338D01*
X44193400Y-84466310D01*
X44189428Y-84462338D01*
X44036289Y-84360014D01*
X43866129Y-84289532D01*
X43685489Y-84253600D01*
X43501311Y-84253600D01*
X43320671Y-84289532D01*
X43150511Y-84360014D01*
X42997372Y-84462338D01*
X42867138Y-84592572D01*
X42764814Y-84745711D01*
X42694332Y-84915871D01*
X42658400Y-85096511D01*
X36479052Y-85096511D01*
X36367882Y-85062788D01*
X36243400Y-85050528D01*
X35729150Y-85053600D01*
X35570400Y-85212350D01*
X35316400Y-85212350D01*
X35157650Y-85053600D01*
X34643400Y-85050528D01*
X34518918Y-85062788D01*
X34399220Y-85099098D01*
X34288906Y-85158063D01*
X34192215Y-85237415D01*
X34112863Y-85334106D01*
X34053898Y-85444420D01*
X34017588Y-85564118D01*
X34005328Y-85688600D01*
X32703400Y-85688600D01*
X32703400Y-82438600D01*
X33744164Y-82438600D01*
X33769052Y-82691288D01*
X33842758Y-82934265D01*
X33962451Y-83158195D01*
X34123530Y-83354470D01*
X34319805Y-83515549D01*
X34543735Y-83635242D01*
X34786712Y-83708948D01*
X34976086Y-83727600D01*
X36410714Y-83727600D01*
X36600088Y-83708948D01*
X36843065Y-83635242D01*
X36944529Y-83581008D01*
X54496400Y-83581008D01*
X54496400Y-83856192D01*
X54550086Y-84126090D01*
X54655395Y-84380327D01*
X54808280Y-84609135D01*
X55002865Y-84803720D01*
X55231673Y-84956605D01*
X55485910Y-85061914D01*
X55755808Y-85115600D01*
X56030992Y-85115600D01*
X56300890Y-85061914D01*
X56555127Y-84956605D01*
X56783935Y-84803720D01*
X56978520Y-84609135D01*
X57131405Y-84380327D01*
X57163400Y-84303085D01*
X57195395Y-84380327D01*
X57348280Y-84609135D01*
X57542865Y-84803720D01*
X57771673Y-84956605D01*
X58025910Y-85061914D01*
X58295808Y-85115600D01*
X58570992Y-85115600D01*
X58840890Y-85061914D01*
X59095127Y-84956605D01*
X59323935Y-84803720D01*
X59518520Y-84609135D01*
X59671405Y-84380327D01*
X59703400Y-84303085D01*
X59735395Y-84380327D01*
X59888280Y-84609135D01*
X60082865Y-84803720D01*
X60311673Y-84956605D01*
X60565910Y-85061914D01*
X60835808Y-85115600D01*
X61110992Y-85115600D01*
X61380890Y-85061914D01*
X61635127Y-84956605D01*
X61863935Y-84803720D01*
X62058520Y-84609135D01*
X62211405Y-84380327D01*
X62243400Y-84303085D01*
X62275395Y-84380327D01*
X62428280Y-84609135D01*
X62622865Y-84803720D01*
X62851673Y-84956605D01*
X63105910Y-85061914D01*
X63375808Y-85115600D01*
X63650992Y-85115600D01*
X63920890Y-85061914D01*
X64175127Y-84956605D01*
X64403935Y-84803720D01*
X64598520Y-84609135D01*
X64751405Y-84380327D01*
X64783400Y-84303085D01*
X64815395Y-84380327D01*
X64968280Y-84609135D01*
X65162865Y-84803720D01*
X65391673Y-84956605D01*
X65645910Y-85061914D01*
X65915808Y-85115600D01*
X66190992Y-85115600D01*
X66460890Y-85061914D01*
X66715127Y-84956605D01*
X66943935Y-84803720D01*
X67138520Y-84609135D01*
X67291405Y-84380327D01*
X67323400Y-84303085D01*
X67355395Y-84380327D01*
X67508280Y-84609135D01*
X67702865Y-84803720D01*
X67931673Y-84956605D01*
X68185910Y-85061914D01*
X68455808Y-85115600D01*
X68730992Y-85115600D01*
X69000890Y-85061914D01*
X69255127Y-84956605D01*
X69483935Y-84803720D01*
X69678520Y-84609135D01*
X69831405Y-84380327D01*
X69863400Y-84303085D01*
X69895395Y-84380327D01*
X70048280Y-84609135D01*
X70242865Y-84803720D01*
X70471673Y-84956605D01*
X70725910Y-85061914D01*
X70995808Y-85115600D01*
X71270992Y-85115600D01*
X71540890Y-85061914D01*
X71795127Y-84956605D01*
X72023935Y-84803720D01*
X72218520Y-84609135D01*
X72371405Y-84380327D01*
X72403400Y-84303085D01*
X72435395Y-84380327D01*
X72588280Y-84609135D01*
X72782865Y-84803720D01*
X73011673Y-84956605D01*
X73265910Y-85061914D01*
X73535808Y-85115600D01*
X73810992Y-85115600D01*
X74080890Y-85061914D01*
X74335127Y-84956605D01*
X74563935Y-84803720D01*
X74758520Y-84609135D01*
X74911405Y-84380327D01*
X75016714Y-84126090D01*
X75070400Y-83856192D01*
X75070400Y-83581008D01*
X75051976Y-83488381D01*
X91477000Y-83488381D01*
X91477000Y-83692259D01*
X91516774Y-83892218D01*
X91594795Y-84080576D01*
X91708063Y-84250094D01*
X91852226Y-84394257D01*
X92021744Y-84507525D01*
X92210102Y-84585546D01*
X92410061Y-84625320D01*
X92613939Y-84625320D01*
X92813898Y-84585546D01*
X93002256Y-84507525D01*
X93107656Y-84437099D01*
X93235864Y-84522765D01*
X93424222Y-84600786D01*
X93624181Y-84640560D01*
X93828059Y-84640560D01*
X94028018Y-84600786D01*
X94216376Y-84522765D01*
X94385894Y-84409497D01*
X94530057Y-84265334D01*
X94643325Y-84095816D01*
X94721346Y-83907458D01*
X94751882Y-83753940D01*
X96843600Y-83753940D01*
X96843600Y-84046460D01*
X96900668Y-84333358D01*
X97012610Y-84603611D01*
X97175125Y-84846832D01*
X97381968Y-85053675D01*
X97556360Y-85170200D01*
X97381968Y-85286725D01*
X97175125Y-85493568D01*
X97012610Y-85736789D01*
X96900668Y-86007042D01*
X96843600Y-86293940D01*
X96843600Y-86586460D01*
X96900668Y-86873358D01*
X97012610Y-87143611D01*
X97175125Y-87386832D01*
X97381968Y-87593675D01*
X97625189Y-87756190D01*
X97895442Y-87868132D01*
X98182340Y-87925200D01*
X98474860Y-87925200D01*
X98761758Y-87868132D01*
X99032011Y-87756190D01*
X99275232Y-87593675D01*
X99482075Y-87386832D01*
X99598600Y-87212440D01*
X99715125Y-87386832D01*
X99921968Y-87593675D01*
X100165189Y-87756190D01*
X100435442Y-87868132D01*
X100722340Y-87925200D01*
X101014860Y-87925200D01*
X101301758Y-87868132D01*
X101572011Y-87756190D01*
X101815232Y-87593675D01*
X102022075Y-87386832D01*
X102138600Y-87212440D01*
X102255125Y-87386832D01*
X102461968Y-87593675D01*
X102705189Y-87756190D01*
X102975442Y-87868132D01*
X103262340Y-87925200D01*
X103554860Y-87925200D01*
X103841758Y-87868132D01*
X104112011Y-87756190D01*
X104355232Y-87593675D01*
X104562075Y-87386832D01*
X104724590Y-87143611D01*
X104836532Y-86873358D01*
X104872236Y-86693861D01*
X117537400Y-86693861D01*
X117537400Y-86897739D01*
X117577174Y-87097698D01*
X117655195Y-87286056D01*
X117768463Y-87455574D01*
X117912626Y-87599737D01*
X118082144Y-87713005D01*
X118270502Y-87791026D01*
X118470461Y-87830800D01*
X118674339Y-87830800D01*
X118874298Y-87791026D01*
X119062656Y-87713005D01*
X119232174Y-87599737D01*
X119376337Y-87455574D01*
X119489605Y-87286056D01*
X119567626Y-87097698D01*
X119607400Y-86897739D01*
X119607400Y-86693861D01*
X119567626Y-86493902D01*
X119489605Y-86305544D01*
X119401288Y-86173367D01*
X119756800Y-86173367D01*
X119756800Y-86495433D01*
X119819632Y-86811312D01*
X119942882Y-87108863D01*
X120121813Y-87376652D01*
X120349548Y-87604387D01*
X120617337Y-87783318D01*
X120914888Y-87906568D01*
X121230767Y-87969400D01*
X121552833Y-87969400D01*
X121868712Y-87906568D01*
X122166263Y-87783318D01*
X122434052Y-87604387D01*
X122661787Y-87376652D01*
X122840718Y-87108863D01*
X122963968Y-86811312D01*
X123026800Y-86495433D01*
X123026800Y-86173367D01*
X126256800Y-86173367D01*
X126256800Y-86495433D01*
X126319632Y-86811312D01*
X126442882Y-87108863D01*
X126621813Y-87376652D01*
X126849548Y-87604387D01*
X127117337Y-87783318D01*
X127414888Y-87906568D01*
X127730767Y-87969400D01*
X128052833Y-87969400D01*
X128368712Y-87906568D01*
X128666263Y-87783318D01*
X128934052Y-87604387D01*
X129161787Y-87376652D01*
X129340718Y-87108863D01*
X129463968Y-86811312D01*
X129526800Y-86495433D01*
X129526800Y-86173367D01*
X129463968Y-85857488D01*
X129340718Y-85559937D01*
X129161787Y-85292148D01*
X128934052Y-85064413D01*
X128666263Y-84885482D01*
X128368712Y-84762232D01*
X128052833Y-84699400D01*
X127730767Y-84699400D01*
X127414888Y-84762232D01*
X127117337Y-84885482D01*
X126849548Y-85064413D01*
X126621813Y-85292148D01*
X126442882Y-85559937D01*
X126319632Y-85857488D01*
X126256800Y-86173367D01*
X123026800Y-86173367D01*
X122963968Y-85857488D01*
X122840718Y-85559937D01*
X122661787Y-85292148D01*
X122434052Y-85064413D01*
X122166263Y-84885482D01*
X121868712Y-84762232D01*
X121552833Y-84699400D01*
X121230767Y-84699400D01*
X120914888Y-84762232D01*
X120617337Y-84885482D01*
X120349548Y-85064413D01*
X120121813Y-85292148D01*
X119942882Y-85559937D01*
X119819632Y-85857488D01*
X119756800Y-86173367D01*
X119401288Y-86173367D01*
X119376337Y-86136026D01*
X119232174Y-85991863D01*
X119062656Y-85878595D01*
X118874298Y-85800574D01*
X118674339Y-85760800D01*
X118470461Y-85760800D01*
X118270502Y-85800574D01*
X118082144Y-85878595D01*
X117912626Y-85991863D01*
X117768463Y-86136026D01*
X117655195Y-86305544D01*
X117577174Y-86493902D01*
X117537400Y-86693861D01*
X104872236Y-86693861D01*
X104893600Y-86586460D01*
X104893600Y-86293940D01*
X104836532Y-86007042D01*
X104724590Y-85736789D01*
X104562075Y-85493568D01*
X104430220Y-85361713D01*
X104502780Y-85339702D01*
X104613094Y-85280737D01*
X104709785Y-85201385D01*
X104789137Y-85104694D01*
X104848102Y-84994380D01*
X104884412Y-84874682D01*
X104896672Y-84750200D01*
X104896672Y-83635701D01*
X112396440Y-83635701D01*
X112396440Y-83839579D01*
X112436214Y-84039538D01*
X112514235Y-84227896D01*
X112627503Y-84397414D01*
X112771666Y-84541577D01*
X112941184Y-84654845D01*
X113129542Y-84732866D01*
X113329501Y-84772640D01*
X113533379Y-84772640D01*
X113733338Y-84732866D01*
X113921696Y-84654845D01*
X114091214Y-84541577D01*
X114235377Y-84397414D01*
X114348645Y-84227896D01*
X114426666Y-84039538D01*
X114466440Y-83839579D01*
X114466440Y-83635701D01*
X114426666Y-83435742D01*
X114348645Y-83247384D01*
X114235377Y-83077866D01*
X114091214Y-82933703D01*
X113921696Y-82820435D01*
X113733338Y-82742414D01*
X113533379Y-82702640D01*
X113329501Y-82702640D01*
X113129542Y-82742414D01*
X112941184Y-82820435D01*
X112771666Y-82933703D01*
X112627503Y-83077866D01*
X112514235Y-83247384D01*
X112436214Y-83435742D01*
X112396440Y-83635701D01*
X104896672Y-83635701D01*
X104896672Y-83050200D01*
X104884412Y-82925718D01*
X104848102Y-82806020D01*
X104789137Y-82695706D01*
X104709785Y-82599015D01*
X104613094Y-82519663D01*
X104502780Y-82460698D01*
X104383082Y-82424388D01*
X104258600Y-82412128D01*
X102558600Y-82412128D01*
X102434118Y-82424388D01*
X102314420Y-82460698D01*
X102204106Y-82519663D01*
X102107415Y-82599015D01*
X102028063Y-82695706D01*
X101969098Y-82806020D01*
X101947087Y-82878580D01*
X101815232Y-82746725D01*
X101572011Y-82584210D01*
X101301758Y-82472268D01*
X101014860Y-82415200D01*
X100722340Y-82415200D01*
X100435442Y-82472268D01*
X100165189Y-82584210D01*
X99921968Y-82746725D01*
X99715125Y-82953568D01*
X99598600Y-83127960D01*
X99482075Y-82953568D01*
X99275232Y-82746725D01*
X99032011Y-82584210D01*
X98761758Y-82472268D01*
X98474860Y-82415200D01*
X98182340Y-82415200D01*
X97895442Y-82472268D01*
X97625189Y-82584210D01*
X97381968Y-82746725D01*
X97175125Y-82953568D01*
X97012610Y-83196789D01*
X96900668Y-83467042D01*
X96843600Y-83753940D01*
X94751882Y-83753940D01*
X94761120Y-83707499D01*
X94761120Y-83503621D01*
X94721346Y-83303662D01*
X94643325Y-83115304D01*
X94581953Y-83023453D01*
X94742972Y-82991425D01*
X94931330Y-82913404D01*
X95100848Y-82800136D01*
X95245011Y-82655973D01*
X95358279Y-82486455D01*
X95436300Y-82298097D01*
X95476074Y-82098138D01*
X95476074Y-81894260D01*
X95436300Y-81694301D01*
X95358279Y-81505943D01*
X95245011Y-81336425D01*
X95100848Y-81192262D01*
X95063430Y-81167260D01*
X97055700Y-81167260D01*
X97055700Y-81371138D01*
X97095474Y-81571097D01*
X97173495Y-81759455D01*
X97286763Y-81928973D01*
X97430926Y-82073136D01*
X97600444Y-82186404D01*
X97788802Y-82264425D01*
X97988761Y-82304199D01*
X98192639Y-82304199D01*
X98392598Y-82264425D01*
X98552813Y-82198061D01*
X117207200Y-82198061D01*
X117207200Y-82401939D01*
X117246974Y-82601898D01*
X117324995Y-82790256D01*
X117438263Y-82959774D01*
X117582426Y-83103937D01*
X117751944Y-83217205D01*
X117940302Y-83295226D01*
X118140261Y-83335000D01*
X118344139Y-83335000D01*
X118544098Y-83295226D01*
X118732456Y-83217205D01*
X118901974Y-83103937D01*
X119046137Y-82959774D01*
X119159405Y-82790256D01*
X119237426Y-82601898D01*
X119277200Y-82401939D01*
X119277200Y-82198061D01*
X119237426Y-81998102D01*
X119159405Y-81809744D01*
X119046137Y-81640226D01*
X118901974Y-81496063D01*
X118732456Y-81382795D01*
X118544098Y-81304774D01*
X118344139Y-81265000D01*
X118140261Y-81265000D01*
X117940302Y-81304774D01*
X117751944Y-81382795D01*
X117582426Y-81496063D01*
X117438263Y-81640226D01*
X117324995Y-81809744D01*
X117246974Y-81998102D01*
X117207200Y-82198061D01*
X98552813Y-82198061D01*
X98580956Y-82186404D01*
X98750474Y-82073136D01*
X98894637Y-81928973D01*
X99007905Y-81759455D01*
X99085926Y-81571097D01*
X99125700Y-81371138D01*
X99125700Y-81167260D01*
X99111838Y-81097567D01*
X119756800Y-81097567D01*
X119756800Y-81419633D01*
X119819632Y-81735512D01*
X119942882Y-82033063D01*
X120121813Y-82300852D01*
X120349548Y-82528587D01*
X120617337Y-82707518D01*
X120914888Y-82830768D01*
X121230767Y-82893600D01*
X121552833Y-82893600D01*
X121868712Y-82830768D01*
X122166263Y-82707518D01*
X122434052Y-82528587D01*
X122661787Y-82300852D01*
X122840718Y-82033063D01*
X122963968Y-81735512D01*
X123026800Y-81419633D01*
X123026800Y-81097567D01*
X126256800Y-81097567D01*
X126256800Y-81419633D01*
X126319632Y-81735512D01*
X126442882Y-82033063D01*
X126621813Y-82300852D01*
X126849548Y-82528587D01*
X127117337Y-82707518D01*
X127414888Y-82830768D01*
X127730767Y-82893600D01*
X128052833Y-82893600D01*
X128368712Y-82830768D01*
X128666263Y-82707518D01*
X128934052Y-82528587D01*
X129161787Y-82300852D01*
X129340718Y-82033063D01*
X129463968Y-81735512D01*
X129526800Y-81419633D01*
X129526800Y-81097567D01*
X129463968Y-80781688D01*
X129340718Y-80484137D01*
X129161787Y-80216348D01*
X128934052Y-79988613D01*
X128666263Y-79809682D01*
X128368712Y-79686432D01*
X128052833Y-79623600D01*
X127730767Y-79623600D01*
X127414888Y-79686432D01*
X127117337Y-79809682D01*
X126849548Y-79988613D01*
X126621813Y-80216348D01*
X126442882Y-80484137D01*
X126319632Y-80781688D01*
X126256800Y-81097567D01*
X123026800Y-81097567D01*
X122963968Y-80781688D01*
X122840718Y-80484137D01*
X122661787Y-80216348D01*
X122434052Y-79988613D01*
X122166263Y-79809682D01*
X121868712Y-79686432D01*
X121552833Y-79623600D01*
X121230767Y-79623600D01*
X120914888Y-79686432D01*
X120617337Y-79809682D01*
X120349548Y-79988613D01*
X120121813Y-80216348D01*
X119942882Y-80484137D01*
X119819632Y-80781688D01*
X119756800Y-81097567D01*
X99111838Y-81097567D01*
X99085926Y-80967301D01*
X99007905Y-80778943D01*
X98894637Y-80609425D01*
X98750474Y-80465262D01*
X98580956Y-80351994D01*
X98392598Y-80273973D01*
X98192639Y-80234199D01*
X97988761Y-80234199D01*
X97788802Y-80273973D01*
X97600444Y-80351994D01*
X97430926Y-80465262D01*
X97286763Y-80609425D01*
X97173495Y-80778943D01*
X97095474Y-80967301D01*
X97055700Y-81167260D01*
X95063430Y-81167260D01*
X94931330Y-81078994D01*
X94742972Y-81000973D01*
X94543013Y-80961199D01*
X94339135Y-80961199D01*
X94139176Y-81000973D01*
X93950818Y-81078994D01*
X93781300Y-81192262D01*
X93637137Y-81336425D01*
X93523869Y-81505943D01*
X93445848Y-81694301D01*
X93406074Y-81894260D01*
X93406074Y-82098138D01*
X93445848Y-82298097D01*
X93523869Y-82486455D01*
X93585241Y-82578306D01*
X93424222Y-82610334D01*
X93235864Y-82688355D01*
X93130464Y-82758781D01*
X93002256Y-82673115D01*
X92813898Y-82595094D01*
X92613939Y-82555320D01*
X92410061Y-82555320D01*
X92210102Y-82595094D01*
X92021744Y-82673115D01*
X91852226Y-82786383D01*
X91708063Y-82930546D01*
X91594795Y-83100064D01*
X91516774Y-83288422D01*
X91477000Y-83488381D01*
X75051976Y-83488381D01*
X75016714Y-83311110D01*
X74911405Y-83056873D01*
X74758520Y-82828065D01*
X74563935Y-82633480D01*
X74335127Y-82480595D01*
X74080890Y-82375286D01*
X73810992Y-82321600D01*
X73535808Y-82321600D01*
X73265910Y-82375286D01*
X73011673Y-82480595D01*
X72782865Y-82633480D01*
X72588280Y-82828065D01*
X72435395Y-83056873D01*
X72403400Y-83134115D01*
X72371405Y-83056873D01*
X72218520Y-82828065D01*
X72023935Y-82633480D01*
X71795127Y-82480595D01*
X71540890Y-82375286D01*
X71270992Y-82321600D01*
X70995808Y-82321600D01*
X70725910Y-82375286D01*
X70471673Y-82480595D01*
X70242865Y-82633480D01*
X70048280Y-82828065D01*
X69895395Y-83056873D01*
X69863400Y-83134115D01*
X69831405Y-83056873D01*
X69678520Y-82828065D01*
X69483935Y-82633480D01*
X69255127Y-82480595D01*
X69000890Y-82375286D01*
X68730992Y-82321600D01*
X68455808Y-82321600D01*
X68185910Y-82375286D01*
X67931673Y-82480595D01*
X67702865Y-82633480D01*
X67508280Y-82828065D01*
X67355395Y-83056873D01*
X67323400Y-83134115D01*
X67291405Y-83056873D01*
X67138520Y-82828065D01*
X66943935Y-82633480D01*
X66715127Y-82480595D01*
X66460890Y-82375286D01*
X66190992Y-82321600D01*
X65915808Y-82321600D01*
X65645910Y-82375286D01*
X65391673Y-82480595D01*
X65162865Y-82633480D01*
X64968280Y-82828065D01*
X64815395Y-83056873D01*
X64783400Y-83134115D01*
X64751405Y-83056873D01*
X64598520Y-82828065D01*
X64403935Y-82633480D01*
X64175127Y-82480595D01*
X63920890Y-82375286D01*
X63650992Y-82321600D01*
X63375808Y-82321600D01*
X63105910Y-82375286D01*
X62851673Y-82480595D01*
X62622865Y-82633480D01*
X62428280Y-82828065D01*
X62275395Y-83056873D01*
X62243400Y-83134115D01*
X62211405Y-83056873D01*
X62058520Y-82828065D01*
X61863935Y-82633480D01*
X61635127Y-82480595D01*
X61380890Y-82375286D01*
X61110992Y-82321600D01*
X60835808Y-82321600D01*
X60565910Y-82375286D01*
X60311673Y-82480595D01*
X60082865Y-82633480D01*
X59888280Y-82828065D01*
X59735395Y-83056873D01*
X59703400Y-83134115D01*
X59671405Y-83056873D01*
X59518520Y-82828065D01*
X59323935Y-82633480D01*
X59095127Y-82480595D01*
X58840890Y-82375286D01*
X58570992Y-82321600D01*
X58295808Y-82321600D01*
X58025910Y-82375286D01*
X57771673Y-82480595D01*
X57542865Y-82633480D01*
X57348280Y-82828065D01*
X57195395Y-83056873D01*
X57163400Y-83134115D01*
X57131405Y-83056873D01*
X56978520Y-82828065D01*
X56783935Y-82633480D01*
X56555127Y-82480595D01*
X56300890Y-82375286D01*
X56030992Y-82321600D01*
X55755808Y-82321600D01*
X55485910Y-82375286D01*
X55231673Y-82480595D01*
X55002865Y-82633480D01*
X54808280Y-82828065D01*
X54655395Y-83056873D01*
X54550086Y-83311110D01*
X54496400Y-83581008D01*
X36944529Y-83581008D01*
X37066995Y-83515549D01*
X37263270Y-83354470D01*
X37424349Y-83158195D01*
X37544042Y-82934265D01*
X37617748Y-82691288D01*
X37642636Y-82438600D01*
X37635358Y-82364699D01*
X41092332Y-82364699D01*
X41099917Y-82414546D01*
X41197077Y-82649133D01*
X41338136Y-82860258D01*
X41517673Y-83039807D01*
X41728788Y-83180880D01*
X41963369Y-83278056D01*
X42212400Y-83327600D01*
X42866400Y-83327600D01*
X42866400Y-82165600D01*
X43120400Y-82165600D01*
X43120400Y-83327600D01*
X43774400Y-83327600D01*
X44023431Y-83278056D01*
X44258012Y-83180880D01*
X44469127Y-83039807D01*
X44648664Y-82860258D01*
X44789723Y-82649133D01*
X44886883Y-82414546D01*
X44894468Y-82364699D01*
X44770492Y-82165600D01*
X43120400Y-82165600D01*
X42866400Y-82165600D01*
X41216308Y-82165600D01*
X41092332Y-82364699D01*
X37635358Y-82364699D01*
X37617748Y-82185912D01*
X37544042Y-81942935D01*
X37424349Y-81719005D01*
X37419012Y-81712501D01*
X41092332Y-81712501D01*
X41216308Y-81911600D01*
X42866400Y-81911600D01*
X42866400Y-80749600D01*
X43120400Y-80749600D01*
X43120400Y-81911600D01*
X44770492Y-81911600D01*
X44894468Y-81712501D01*
X44886883Y-81662654D01*
X44789723Y-81428067D01*
X44648664Y-81216942D01*
X44469127Y-81037393D01*
X44258012Y-80896320D01*
X44023431Y-80799144D01*
X43774400Y-80749600D01*
X43120400Y-80749600D01*
X42866400Y-80749600D01*
X42212400Y-80749600D01*
X41963369Y-80799144D01*
X41728788Y-80896320D01*
X41517673Y-81037393D01*
X41338136Y-81216942D01*
X41197077Y-81428067D01*
X41099917Y-81662654D01*
X41092332Y-81712501D01*
X37419012Y-81712501D01*
X37263270Y-81522730D01*
X37066995Y-81361651D01*
X36843065Y-81241958D01*
X36600088Y-81168252D01*
X36410714Y-81149600D01*
X34976086Y-81149600D01*
X34786712Y-81168252D01*
X34543735Y-81241958D01*
X34319805Y-81361651D01*
X34123530Y-81522730D01*
X33962451Y-81719005D01*
X33842758Y-81942935D01*
X33769052Y-82185912D01*
X33744164Y-82438600D01*
X32703400Y-82438600D01*
X32703400Y-77838600D01*
X35105086Y-77838600D01*
X35108401Y-77872257D01*
X35108400Y-79604953D01*
X35105086Y-79638600D01*
X35118312Y-79772883D01*
X35157481Y-79902006D01*
X35221088Y-80021007D01*
X35306689Y-80125311D01*
X35363359Y-80171819D01*
X35410993Y-80210912D01*
X35529994Y-80274519D01*
X35659117Y-80313688D01*
X35793400Y-80326914D01*
X35827047Y-80323600D01*
X37559753Y-80323600D01*
X37593400Y-80326914D01*
X37727683Y-80313688D01*
X37856806Y-80274519D01*
X37975807Y-80210912D01*
X38080111Y-80125311D01*
X38165712Y-80021007D01*
X38229319Y-79902006D01*
X38268488Y-79772883D01*
X38278400Y-79672247D01*
X38278400Y-79672246D01*
X38281714Y-79638600D01*
X38278400Y-79604953D01*
X38278400Y-78638600D01*
X41044164Y-78638600D01*
X41069052Y-78891288D01*
X41142758Y-79134265D01*
X41262451Y-79358195D01*
X41423530Y-79554470D01*
X41619805Y-79715549D01*
X41843735Y-79835242D01*
X42086712Y-79908948D01*
X42276086Y-79927600D01*
X43710714Y-79927600D01*
X43900088Y-79908948D01*
X44143065Y-79835242D01*
X44366995Y-79715549D01*
X44563270Y-79554470D01*
X44724349Y-79358195D01*
X44844042Y-79134265D01*
X44917748Y-78891288D01*
X44942636Y-78638600D01*
X44917748Y-78385912D01*
X44844042Y-78142935D01*
X44724349Y-77919005D01*
X44563270Y-77722730D01*
X44366995Y-77561651D01*
X44143065Y-77441958D01*
X43900088Y-77368252D01*
X43710714Y-77349600D01*
X42276086Y-77349600D01*
X42086712Y-77368252D01*
X41843735Y-77441958D01*
X41619805Y-77561651D01*
X41423530Y-77722730D01*
X41262451Y-77919005D01*
X41142758Y-78142935D01*
X41069052Y-78385912D01*
X41044164Y-78638600D01*
X38278400Y-78638600D01*
X38278400Y-77872247D01*
X38281714Y-77838600D01*
X38268488Y-77704317D01*
X38229319Y-77575194D01*
X38165712Y-77456193D01*
X38080111Y-77351889D01*
X37975807Y-77266288D01*
X37856806Y-77202681D01*
X37727683Y-77163512D01*
X37627047Y-77153600D01*
X37593400Y-77150286D01*
X37559753Y-77153600D01*
X35827047Y-77153600D01*
X35793400Y-77150286D01*
X35759753Y-77153600D01*
X35659117Y-77163512D01*
X35529994Y-77202681D01*
X35410993Y-77266288D01*
X35306689Y-77351889D01*
X35221088Y-77456193D01*
X35157481Y-77575194D01*
X35118312Y-77704317D01*
X35105086Y-77838600D01*
X32703400Y-77838600D01*
X32703400Y-75954741D01*
X82485400Y-75954741D01*
X82485400Y-76158619D01*
X82525174Y-76358578D01*
X82603195Y-76546936D01*
X82716463Y-76716454D01*
X82860626Y-76860617D01*
X83030144Y-76973885D01*
X83218502Y-77051906D01*
X83219452Y-77052095D01*
X83084146Y-77142503D01*
X82939983Y-77286666D01*
X82826715Y-77456184D01*
X82748694Y-77644542D01*
X82708920Y-77844501D01*
X82708920Y-78048379D01*
X82748694Y-78248338D01*
X82826715Y-78436696D01*
X82939983Y-78606214D01*
X83011729Y-78677960D01*
X82955223Y-78734466D01*
X82841955Y-78903984D01*
X82763934Y-79092342D01*
X82724160Y-79292301D01*
X82724160Y-79496179D01*
X82763934Y-79696138D01*
X82841955Y-79884496D01*
X82955223Y-80054014D01*
X82955849Y-80054640D01*
X82934903Y-80075586D01*
X82821635Y-80245104D01*
X82743614Y-80433462D01*
X82703840Y-80633421D01*
X82703840Y-80837299D01*
X82743614Y-81037258D01*
X82821635Y-81225616D01*
X82934903Y-81395134D01*
X83079066Y-81539297D01*
X83248584Y-81652565D01*
X83436942Y-81730586D01*
X83636901Y-81770360D01*
X83840779Y-81770360D01*
X84040738Y-81730586D01*
X84229096Y-81652565D01*
X84398614Y-81539297D01*
X84542777Y-81395134D01*
X84656045Y-81225616D01*
X84734066Y-81037258D01*
X84773840Y-80837299D01*
X84773840Y-80633421D01*
X84734066Y-80433462D01*
X84656045Y-80245104D01*
X84542777Y-80075586D01*
X84542151Y-80074960D01*
X84563097Y-80054014D01*
X84676365Y-79884496D01*
X84754386Y-79696138D01*
X84794160Y-79496179D01*
X84794160Y-79292301D01*
X84754386Y-79092342D01*
X84676365Y-78903984D01*
X84633734Y-78840181D01*
X87326640Y-78840181D01*
X87326640Y-79044059D01*
X87366414Y-79244018D01*
X87444435Y-79432376D01*
X87557703Y-79601894D01*
X87701866Y-79746057D01*
X87871384Y-79859325D01*
X88059742Y-79937346D01*
X88259701Y-79977120D01*
X88454400Y-79977120D01*
X88454400Y-80171819D01*
X88494174Y-80371778D01*
X88572195Y-80560136D01*
X88685463Y-80729654D01*
X88829626Y-80873817D01*
X88999144Y-80987085D01*
X89187502Y-81065106D01*
X89387461Y-81104880D01*
X89591339Y-81104880D01*
X89791298Y-81065106D01*
X89979656Y-80987085D01*
X90149174Y-80873817D01*
X90293337Y-80729654D01*
X90384529Y-80593175D01*
X90441864Y-80631485D01*
X90630222Y-80709506D01*
X90830181Y-80749280D01*
X91034059Y-80749280D01*
X91234018Y-80709506D01*
X91422376Y-80631485D01*
X91591894Y-80518217D01*
X91736057Y-80374054D01*
X91849325Y-80204536D01*
X91927346Y-80016178D01*
X91967120Y-79816219D01*
X91967120Y-79612341D01*
X91961662Y-79584902D01*
X92052107Y-79584902D01*
X92252066Y-79545128D01*
X92440424Y-79467107D01*
X92609942Y-79353839D01*
X92754105Y-79209676D01*
X92867373Y-79040158D01*
X92945394Y-78851800D01*
X92985168Y-78651841D01*
X92985168Y-78447963D01*
X92945394Y-78248004D01*
X92867373Y-78059646D01*
X92846158Y-78027895D01*
X92986944Y-78121965D01*
X93175302Y-78199986D01*
X93375261Y-78239760D01*
X93579139Y-78239760D01*
X93779098Y-78199986D01*
X93967456Y-78121965D01*
X94136974Y-78008697D01*
X94281137Y-77864534D01*
X94394405Y-77695016D01*
X94472426Y-77506658D01*
X94512200Y-77306699D01*
X94512200Y-77143461D01*
X109465280Y-77143461D01*
X109465280Y-77347339D01*
X109505054Y-77547298D01*
X109583075Y-77735656D01*
X109696343Y-77905174D01*
X109840506Y-78049337D01*
X110010024Y-78162605D01*
X110198382Y-78240626D01*
X110398341Y-78280400D01*
X110602219Y-78280400D01*
X110802178Y-78240626D01*
X110990536Y-78162605D01*
X111160054Y-78049337D01*
X111304217Y-77905174D01*
X111417485Y-77735656D01*
X111495506Y-77547298D01*
X111535280Y-77347339D01*
X111535280Y-77143461D01*
X111526186Y-77097741D01*
X114509720Y-77097741D01*
X114509720Y-77301619D01*
X114549494Y-77501578D01*
X114627515Y-77689936D01*
X114740783Y-77859454D01*
X114884946Y-78003617D01*
X115054464Y-78116885D01*
X115242822Y-78194906D01*
X115442781Y-78234680D01*
X115646659Y-78234680D01*
X115846618Y-78194906D01*
X116034976Y-78116885D01*
X116204494Y-78003617D01*
X116348657Y-77859454D01*
X116461925Y-77689936D01*
X116539946Y-77501578D01*
X116579720Y-77301619D01*
X116579720Y-77097741D01*
X116539946Y-76897782D01*
X116461925Y-76709424D01*
X116387185Y-76597567D01*
X119756800Y-76597567D01*
X119756800Y-76919633D01*
X119819632Y-77235512D01*
X119942882Y-77533063D01*
X120121813Y-77800852D01*
X120349548Y-78028587D01*
X120617337Y-78207518D01*
X120914888Y-78330768D01*
X121230767Y-78393600D01*
X121552833Y-78393600D01*
X121868712Y-78330768D01*
X122166263Y-78207518D01*
X122434052Y-78028587D01*
X122661787Y-77800852D01*
X122840718Y-77533063D01*
X122845880Y-77520600D01*
X126437720Y-77520600D01*
X126442882Y-77533063D01*
X126621813Y-77800852D01*
X126849548Y-78028587D01*
X127117337Y-78207518D01*
X127414888Y-78330768D01*
X127730767Y-78393600D01*
X128052833Y-78393600D01*
X128368712Y-78330768D01*
X128666263Y-78207518D01*
X128934052Y-78028587D01*
X129161787Y-77800852D01*
X129340718Y-77533063D01*
X129463968Y-77235512D01*
X129526800Y-76919633D01*
X129526800Y-76597567D01*
X129463968Y-76281688D01*
X129340718Y-75984137D01*
X129161787Y-75716348D01*
X128934052Y-75488613D01*
X128666263Y-75309682D01*
X128368712Y-75186432D01*
X128052833Y-75123600D01*
X127730767Y-75123600D01*
X127414888Y-75186432D01*
X127117337Y-75309682D01*
X126849548Y-75488613D01*
X126621813Y-75716348D01*
X126442882Y-75984137D01*
X126437720Y-75996600D01*
X122845880Y-75996600D01*
X122840718Y-75984137D01*
X122661787Y-75716348D01*
X122434052Y-75488613D01*
X122166263Y-75309682D01*
X121868712Y-75186432D01*
X121552833Y-75123600D01*
X121230767Y-75123600D01*
X120914888Y-75186432D01*
X120617337Y-75309682D01*
X120349548Y-75488613D01*
X120121813Y-75716348D01*
X119942882Y-75984137D01*
X119819632Y-76281688D01*
X119756800Y-76597567D01*
X116387185Y-76597567D01*
X116348657Y-76539906D01*
X116204494Y-76395743D01*
X116034976Y-76282475D01*
X115846618Y-76204454D01*
X115646659Y-76164680D01*
X115442781Y-76164680D01*
X115242822Y-76204454D01*
X115054464Y-76282475D01*
X114884946Y-76395743D01*
X114740783Y-76539906D01*
X114627515Y-76709424D01*
X114549494Y-76897782D01*
X114509720Y-77097741D01*
X111526186Y-77097741D01*
X111495506Y-76943502D01*
X111417485Y-76755144D01*
X111304217Y-76585626D01*
X111160054Y-76441463D01*
X110990536Y-76328195D01*
X110802178Y-76250174D01*
X110602219Y-76210400D01*
X110398341Y-76210400D01*
X110198382Y-76250174D01*
X110010024Y-76328195D01*
X109840506Y-76441463D01*
X109696343Y-76585626D01*
X109583075Y-76755144D01*
X109505054Y-76943502D01*
X109465280Y-77143461D01*
X94512200Y-77143461D01*
X94512200Y-77102821D01*
X94472426Y-76902862D01*
X94394405Y-76714504D01*
X94281137Y-76544986D01*
X94136974Y-76400823D01*
X93967456Y-76287555D01*
X93779098Y-76209534D01*
X93579139Y-76169760D01*
X93375261Y-76169760D01*
X93175302Y-76209534D01*
X92986944Y-76287555D01*
X92817426Y-76400823D01*
X92673263Y-76544986D01*
X92559995Y-76714504D01*
X92481974Y-76902862D01*
X92442200Y-77102821D01*
X92442200Y-77306699D01*
X92481974Y-77506658D01*
X92559995Y-77695016D01*
X92581210Y-77726767D01*
X92440424Y-77632697D01*
X92252066Y-77554676D01*
X92052107Y-77514902D01*
X91848229Y-77514902D01*
X91648270Y-77554676D01*
X91459912Y-77632697D01*
X91290394Y-77745965D01*
X91146231Y-77890128D01*
X91032963Y-78059646D01*
X90954942Y-78248004D01*
X90915168Y-78447963D01*
X90915168Y-78651841D01*
X90920626Y-78679280D01*
X90830181Y-78679280D01*
X90630222Y-78719054D01*
X90441864Y-78797075D01*
X90272346Y-78910343D01*
X90128183Y-79054506D01*
X90036991Y-79190985D01*
X89979656Y-79152675D01*
X89791298Y-79074654D01*
X89591339Y-79034880D01*
X89396640Y-79034880D01*
X89396640Y-78840181D01*
X89356866Y-78640222D01*
X89278845Y-78451864D01*
X89165577Y-78282346D01*
X89021414Y-78138183D01*
X88851896Y-78024915D01*
X88663538Y-77946894D01*
X88463579Y-77907120D01*
X88259701Y-77907120D01*
X88059742Y-77946894D01*
X87871384Y-78024915D01*
X87701866Y-78138183D01*
X87557703Y-78282346D01*
X87444435Y-78451864D01*
X87366414Y-78640222D01*
X87326640Y-78840181D01*
X84633734Y-78840181D01*
X84563097Y-78734466D01*
X84491351Y-78662720D01*
X84547857Y-78606214D01*
X84661125Y-78436696D01*
X84739146Y-78248338D01*
X84778920Y-78048379D01*
X84778920Y-77844501D01*
X84739146Y-77644542D01*
X84661125Y-77456184D01*
X84547857Y-77286666D01*
X84403694Y-77142503D01*
X84234176Y-77029235D01*
X84045818Y-76951214D01*
X84044868Y-76951025D01*
X84180174Y-76860617D01*
X84324337Y-76716454D01*
X84437605Y-76546936D01*
X84515626Y-76358578D01*
X84555400Y-76158619D01*
X84555400Y-75954741D01*
X84515626Y-75754782D01*
X84437605Y-75566424D01*
X84324337Y-75396906D01*
X84282732Y-75355301D01*
X87768600Y-75355301D01*
X87768600Y-75559179D01*
X87808374Y-75759138D01*
X87886395Y-75947496D01*
X87999663Y-76117014D01*
X88069146Y-76186497D01*
X87991254Y-76374542D01*
X87951480Y-76574501D01*
X87951480Y-76778379D01*
X87991254Y-76978338D01*
X88069275Y-77166696D01*
X88182543Y-77336214D01*
X88326706Y-77480377D01*
X88496224Y-77593645D01*
X88684582Y-77671666D01*
X88884541Y-77711440D01*
X89088419Y-77711440D01*
X89288378Y-77671666D01*
X89476736Y-77593645D01*
X89646254Y-77480377D01*
X89790417Y-77336214D01*
X89903685Y-77166696D01*
X89981706Y-76978338D01*
X90021480Y-76778379D01*
X90021480Y-76574501D01*
X89981706Y-76374542D01*
X89903685Y-76186184D01*
X89790417Y-76016666D01*
X89720934Y-75947183D01*
X89798826Y-75759138D01*
X89803219Y-75737054D01*
X89804036Y-75736891D01*
X89992394Y-75658870D01*
X90161912Y-75545602D01*
X90306075Y-75401439D01*
X90419343Y-75231921D01*
X90497364Y-75043563D01*
X90537138Y-74843604D01*
X90537138Y-74639726D01*
X90497364Y-74439767D01*
X90419343Y-74251409D01*
X90306075Y-74081891D01*
X90161912Y-73937728D01*
X89992394Y-73824460D01*
X89804036Y-73746439D01*
X89604077Y-73706665D01*
X89400199Y-73706665D01*
X89200240Y-73746439D01*
X89011882Y-73824460D01*
X88842364Y-73937728D01*
X88698201Y-74081891D01*
X88584933Y-74251409D01*
X88506912Y-74439767D01*
X88502519Y-74461851D01*
X88501702Y-74462014D01*
X88313344Y-74540035D01*
X88143826Y-74653303D01*
X87999663Y-74797466D01*
X87886395Y-74966984D01*
X87808374Y-75155342D01*
X87768600Y-75355301D01*
X84282732Y-75355301D01*
X84180174Y-75252743D01*
X84010656Y-75139475D01*
X83822298Y-75061454D01*
X83622339Y-75021680D01*
X83418461Y-75021680D01*
X83218502Y-75061454D01*
X83030144Y-75139475D01*
X82860626Y-75252743D01*
X82716463Y-75396906D01*
X82603195Y-75566424D01*
X82525174Y-75754782D01*
X82485400Y-75954741D01*
X32703400Y-75954741D01*
X32703400Y-74755861D01*
X79589800Y-74755861D01*
X79589800Y-74959739D01*
X79629574Y-75159698D01*
X79707595Y-75348056D01*
X79820863Y-75517574D01*
X79965026Y-75661737D01*
X80134544Y-75775005D01*
X80322902Y-75853026D01*
X80522861Y-75892800D01*
X80726739Y-75892800D01*
X80926698Y-75853026D01*
X81115056Y-75775005D01*
X81284574Y-75661737D01*
X81428737Y-75517574D01*
X81542005Y-75348056D01*
X81620026Y-75159698D01*
X81659800Y-74959739D01*
X81659800Y-74755861D01*
X81620026Y-74555902D01*
X81542005Y-74367544D01*
X81428737Y-74198026D01*
X81284574Y-74053863D01*
X81115056Y-73940595D01*
X81103868Y-73935961D01*
X81140456Y-73920805D01*
X81309974Y-73807537D01*
X81454137Y-73663374D01*
X81567405Y-73493856D01*
X81645426Y-73305498D01*
X81685200Y-73105539D01*
X81685200Y-72901661D01*
X81645426Y-72701702D01*
X81567405Y-72513344D01*
X81454137Y-72343826D01*
X81309974Y-72199663D01*
X81140456Y-72086395D01*
X80952098Y-72008374D01*
X80752139Y-71968600D01*
X80548261Y-71968600D01*
X80348302Y-72008374D01*
X80159944Y-72086395D01*
X79990426Y-72199663D01*
X79846263Y-72343826D01*
X79732995Y-72513344D01*
X79654974Y-72701702D01*
X79615200Y-72901661D01*
X79615200Y-73105539D01*
X79654974Y-73305498D01*
X79732995Y-73493856D01*
X79846263Y-73663374D01*
X79990426Y-73807537D01*
X80159944Y-73920805D01*
X80171132Y-73925439D01*
X80134544Y-73940595D01*
X79965026Y-74053863D01*
X79820863Y-74198026D01*
X79707595Y-74367544D01*
X79629574Y-74555902D01*
X79589800Y-74755861D01*
X32703400Y-74755861D01*
X32703400Y-72538600D01*
X33744164Y-72538600D01*
X33769052Y-72791288D01*
X33842758Y-73034265D01*
X33962451Y-73258195D01*
X34123530Y-73454470D01*
X34319805Y-73615549D01*
X34543735Y-73735242D01*
X34786712Y-73808948D01*
X34976086Y-73827600D01*
X36410714Y-73827600D01*
X36600088Y-73808948D01*
X36843065Y-73735242D01*
X37066995Y-73615549D01*
X37263270Y-73454470D01*
X37276294Y-73438600D01*
X41044164Y-73438600D01*
X41069052Y-73691288D01*
X41142758Y-73934265D01*
X41262451Y-74158195D01*
X41423530Y-74354470D01*
X41619805Y-74515549D01*
X41843735Y-74635242D01*
X42086712Y-74708948D01*
X42276086Y-74727600D01*
X43710714Y-74727600D01*
X43900088Y-74708948D01*
X44143065Y-74635242D01*
X44366995Y-74515549D01*
X44563270Y-74354470D01*
X44724349Y-74158195D01*
X44844042Y-73934265D01*
X44917748Y-73691288D01*
X44942636Y-73438600D01*
X44917748Y-73185912D01*
X44844042Y-72942935D01*
X44724349Y-72719005D01*
X44563270Y-72522730D01*
X44366995Y-72361651D01*
X44143065Y-72241958D01*
X43900088Y-72168252D01*
X43710714Y-72149600D01*
X42276086Y-72149600D01*
X42086712Y-72168252D01*
X41843735Y-72241958D01*
X41619805Y-72361651D01*
X41423530Y-72522730D01*
X41262451Y-72719005D01*
X41142758Y-72942935D01*
X41069052Y-73185912D01*
X41044164Y-73438600D01*
X37276294Y-73438600D01*
X37424349Y-73258195D01*
X37544042Y-73034265D01*
X37617748Y-72791288D01*
X37642636Y-72538600D01*
X37617748Y-72285912D01*
X37544042Y-72042935D01*
X37512629Y-71984165D01*
X55107440Y-71984165D01*
X55174420Y-72224256D01*
X55423448Y-72341356D01*
X55690535Y-72407623D01*
X55965417Y-72420510D01*
X56237533Y-72379522D01*
X56496423Y-72286236D01*
X56612380Y-72224256D01*
X56679360Y-71984165D01*
X55893400Y-71198205D01*
X55107440Y-71984165D01*
X37512629Y-71984165D01*
X37424349Y-71819005D01*
X37263270Y-71622730D01*
X37066995Y-71461651D01*
X36843065Y-71341958D01*
X36600088Y-71268252D01*
X36410714Y-71249600D01*
X34976086Y-71249600D01*
X34786712Y-71268252D01*
X34543735Y-71341958D01*
X34319805Y-71461651D01*
X34123530Y-71622730D01*
X33962451Y-71819005D01*
X33842758Y-72042935D01*
X33769052Y-72285912D01*
X33744164Y-72538600D01*
X32703400Y-72538600D01*
X32703400Y-71090617D01*
X54491490Y-71090617D01*
X54532478Y-71362733D01*
X54625764Y-71621623D01*
X54687744Y-71737580D01*
X54927835Y-71804560D01*
X55713795Y-71018600D01*
X56073005Y-71018600D01*
X56858965Y-71804560D01*
X57033328Y-71755917D01*
X57033328Y-71780600D01*
X57045588Y-71905082D01*
X57081898Y-72024780D01*
X57140863Y-72135094D01*
X57220215Y-72231785D01*
X57316906Y-72311137D01*
X57427220Y-72370102D01*
X57546918Y-72406412D01*
X57671400Y-72418672D01*
X59195400Y-72418672D01*
X59319882Y-72406412D01*
X59439580Y-72370102D01*
X59549894Y-72311137D01*
X59646585Y-72231785D01*
X59725937Y-72135094D01*
X59784902Y-72024780D01*
X59821212Y-71905082D01*
X59829480Y-71821135D01*
X59888280Y-71909135D01*
X60082865Y-72103720D01*
X60311673Y-72256605D01*
X60565910Y-72361914D01*
X60835808Y-72415600D01*
X61110992Y-72415600D01*
X61380890Y-72361914D01*
X61635127Y-72256605D01*
X61863935Y-72103720D01*
X62058520Y-71909135D01*
X62211405Y-71680327D01*
X62243400Y-71603085D01*
X62275395Y-71680327D01*
X62428280Y-71909135D01*
X62622865Y-72103720D01*
X62851673Y-72256605D01*
X63105910Y-72361914D01*
X63375808Y-72415600D01*
X63650992Y-72415600D01*
X63920890Y-72361914D01*
X64175127Y-72256605D01*
X64403935Y-72103720D01*
X64598520Y-71909135D01*
X64751405Y-71680327D01*
X64783400Y-71603085D01*
X64815395Y-71680327D01*
X64968280Y-71909135D01*
X65162865Y-72103720D01*
X65391673Y-72256605D01*
X65645910Y-72361914D01*
X65915808Y-72415600D01*
X66190992Y-72415600D01*
X66460890Y-72361914D01*
X66715127Y-72256605D01*
X66943935Y-72103720D01*
X67138520Y-71909135D01*
X67291405Y-71680327D01*
X67323400Y-71603085D01*
X67355395Y-71680327D01*
X67508280Y-71909135D01*
X67702865Y-72103720D01*
X67931673Y-72256605D01*
X68185910Y-72361914D01*
X68455808Y-72415600D01*
X68730992Y-72415600D01*
X69000890Y-72361914D01*
X69255127Y-72256605D01*
X69483935Y-72103720D01*
X69678520Y-71909135D01*
X69831405Y-71680327D01*
X69863400Y-71603085D01*
X69895395Y-71680327D01*
X70048280Y-71909135D01*
X70242865Y-72103720D01*
X70471673Y-72256605D01*
X70725910Y-72361914D01*
X70995808Y-72415600D01*
X71270992Y-72415600D01*
X71540890Y-72361914D01*
X71795127Y-72256605D01*
X72023935Y-72103720D01*
X72218520Y-71909135D01*
X72277320Y-71821135D01*
X72285588Y-71905082D01*
X72321898Y-72024780D01*
X72380863Y-72135094D01*
X72460215Y-72231785D01*
X72556906Y-72311137D01*
X72667220Y-72370102D01*
X72786918Y-72406412D01*
X72911400Y-72418672D01*
X74435400Y-72418672D01*
X74559882Y-72406412D01*
X74679580Y-72370102D01*
X74789894Y-72311137D01*
X74886585Y-72231785D01*
X74965937Y-72135094D01*
X75024902Y-72024780D01*
X75061212Y-71905082D01*
X75071630Y-71799301D01*
X82480320Y-71799301D01*
X82480320Y-72003179D01*
X82520094Y-72203138D01*
X82598115Y-72391496D01*
X82711383Y-72561014D01*
X82855546Y-72705177D01*
X83025064Y-72818445D01*
X83213422Y-72896466D01*
X83413381Y-72936240D01*
X83617259Y-72936240D01*
X83817218Y-72896466D01*
X84005576Y-72818445D01*
X84175094Y-72705177D01*
X84319257Y-72561014D01*
X84432525Y-72391496D01*
X84510546Y-72203138D01*
X84550320Y-72003179D01*
X84550320Y-71799301D01*
X84545268Y-71773901D01*
X92066280Y-71773901D01*
X92066280Y-71977779D01*
X92106054Y-72177738D01*
X92184075Y-72366096D01*
X92297343Y-72535614D01*
X92441506Y-72679777D01*
X92611024Y-72793045D01*
X92799382Y-72871066D01*
X92999341Y-72910840D01*
X93203219Y-72910840D01*
X93403178Y-72871066D01*
X93574597Y-72800061D01*
X112142440Y-72800061D01*
X112142440Y-73003939D01*
X112182214Y-73203898D01*
X112260235Y-73392256D01*
X112373503Y-73561774D01*
X112517666Y-73705937D01*
X112687184Y-73819205D01*
X112875542Y-73897226D01*
X113075501Y-73937000D01*
X113279379Y-73937000D01*
X113479338Y-73897226D01*
X113667696Y-73819205D01*
X113837214Y-73705937D01*
X113981377Y-73561774D01*
X114094645Y-73392256D01*
X114172666Y-73203898D01*
X114212440Y-73003939D01*
X114212440Y-72800061D01*
X114172666Y-72600102D01*
X114094645Y-72411744D01*
X113981377Y-72242226D01*
X113837214Y-72098063D01*
X113667696Y-71984795D01*
X113479338Y-71906774D01*
X113279379Y-71867000D01*
X113075501Y-71867000D01*
X112875542Y-71906774D01*
X112687184Y-71984795D01*
X112517666Y-72098063D01*
X112373503Y-72242226D01*
X112260235Y-72411744D01*
X112182214Y-72600102D01*
X112142440Y-72800061D01*
X93574597Y-72800061D01*
X93591536Y-72793045D01*
X93761054Y-72679777D01*
X93905217Y-72535614D01*
X94018485Y-72366096D01*
X94096506Y-72177738D01*
X94136280Y-71977779D01*
X94136280Y-71773901D01*
X94096506Y-71573942D01*
X94018485Y-71385584D01*
X93905217Y-71216066D01*
X93761054Y-71071903D01*
X93591536Y-70958635D01*
X93403178Y-70880614D01*
X93203219Y-70840840D01*
X92999341Y-70840840D01*
X92799382Y-70880614D01*
X92611024Y-70958635D01*
X92441506Y-71071903D01*
X92297343Y-71216066D01*
X92184075Y-71385584D01*
X92106054Y-71573942D01*
X92066280Y-71773901D01*
X84545268Y-71773901D01*
X84510546Y-71599342D01*
X84432525Y-71410984D01*
X84319257Y-71241466D01*
X84175094Y-71097303D01*
X84005576Y-70984035D01*
X83817218Y-70906014D01*
X83617259Y-70866240D01*
X83413381Y-70866240D01*
X83213422Y-70906014D01*
X83025064Y-70984035D01*
X82855546Y-71097303D01*
X82711383Y-71241466D01*
X82598115Y-71410984D01*
X82520094Y-71599342D01*
X82480320Y-71799301D01*
X75071630Y-71799301D01*
X75073472Y-71780600D01*
X75073472Y-70371821D01*
X78792240Y-70371821D01*
X78792240Y-70575699D01*
X78832014Y-70775658D01*
X78910035Y-70964016D01*
X79023303Y-71133534D01*
X79167466Y-71277697D01*
X79336984Y-71390965D01*
X79525342Y-71468986D01*
X79725301Y-71508760D01*
X79929179Y-71508760D01*
X80129138Y-71468986D01*
X80317496Y-71390965D01*
X80487014Y-71277697D01*
X80631177Y-71133534D01*
X80744445Y-70964016D01*
X80822466Y-70775658D01*
X80862240Y-70575699D01*
X80862240Y-70371821D01*
X84095760Y-70371821D01*
X84095760Y-70575699D01*
X84135534Y-70775658D01*
X84213555Y-70964016D01*
X84326823Y-71133534D01*
X84470986Y-71277697D01*
X84640504Y-71390965D01*
X84828862Y-71468986D01*
X85028821Y-71508760D01*
X85232699Y-71508760D01*
X85432658Y-71468986D01*
X85621016Y-71390965D01*
X85790534Y-71277697D01*
X85934697Y-71133534D01*
X86047965Y-70964016D01*
X86125986Y-70775658D01*
X86165760Y-70575699D01*
X86165760Y-70371821D01*
X86125986Y-70171862D01*
X86047965Y-69983504D01*
X85934697Y-69813986D01*
X85790534Y-69669823D01*
X85621016Y-69556555D01*
X85432658Y-69478534D01*
X85232699Y-69438760D01*
X85028821Y-69438760D01*
X84828862Y-69478534D01*
X84640504Y-69556555D01*
X84470986Y-69669823D01*
X84326823Y-69813986D01*
X84213555Y-69983504D01*
X84135534Y-70171862D01*
X84095760Y-70371821D01*
X80862240Y-70371821D01*
X80822466Y-70171862D01*
X80744445Y-69983504D01*
X80631177Y-69813986D01*
X80487014Y-69669823D01*
X80317496Y-69556555D01*
X80129138Y-69478534D01*
X79929179Y-69438760D01*
X79725301Y-69438760D01*
X79525342Y-69478534D01*
X79336984Y-69556555D01*
X79167466Y-69669823D01*
X79023303Y-69813986D01*
X78910035Y-69983504D01*
X78832014Y-70171862D01*
X78792240Y-70371821D01*
X75073472Y-70371821D01*
X75073472Y-70256600D01*
X75061212Y-70132118D01*
X75024902Y-70012420D01*
X74965937Y-69902106D01*
X74886585Y-69805415D01*
X74789894Y-69726063D01*
X74679580Y-69667098D01*
X74559882Y-69630788D01*
X74435400Y-69618528D01*
X72911400Y-69618528D01*
X72786918Y-69630788D01*
X72667220Y-69667098D01*
X72556906Y-69726063D01*
X72460215Y-69805415D01*
X72380863Y-69902106D01*
X72321898Y-70012420D01*
X72285588Y-70132118D01*
X72277320Y-70216065D01*
X72218520Y-70128065D01*
X72023935Y-69933480D01*
X71795127Y-69780595D01*
X71540890Y-69675286D01*
X71270992Y-69621600D01*
X71230984Y-69621600D01*
X71238033Y-69613011D01*
X71320583Y-69458571D01*
X71341683Y-69389011D01*
X71371416Y-69290996D01*
X71376842Y-69235903D01*
X71384280Y-69160387D01*
X71384280Y-69160381D01*
X71388580Y-69116721D01*
X71384280Y-69073061D01*
X71384280Y-67835600D01*
X99558328Y-67835600D01*
X99558328Y-69535600D01*
X99570588Y-69660082D01*
X99606898Y-69779780D01*
X99665863Y-69890094D01*
X99745215Y-69986785D01*
X99841906Y-70066137D01*
X99952220Y-70125102D01*
X100071918Y-70161412D01*
X100196400Y-70173672D01*
X101896400Y-70173672D01*
X102020882Y-70161412D01*
X102029292Y-70158861D01*
X101922435Y-70318784D01*
X101844414Y-70507142D01*
X101804640Y-70707101D01*
X101804640Y-70910979D01*
X101844414Y-71110938D01*
X101922435Y-71299296D01*
X102035703Y-71468814D01*
X102179866Y-71612977D01*
X102349384Y-71726245D01*
X102537742Y-71804266D01*
X102737701Y-71844040D01*
X102941579Y-71844040D01*
X103141538Y-71804266D01*
X103329896Y-71726245D01*
X103499414Y-71612977D01*
X103643577Y-71468814D01*
X103756845Y-71299296D01*
X103834866Y-71110938D01*
X103874640Y-70910979D01*
X103874640Y-70707101D01*
X103834866Y-70507142D01*
X103756845Y-70318784D01*
X103657832Y-70170600D01*
X103732660Y-70170600D01*
X104019558Y-70113532D01*
X104289811Y-70001590D01*
X104533032Y-69839075D01*
X104739875Y-69632232D01*
X104856400Y-69457840D01*
X104972925Y-69632232D01*
X105179768Y-69839075D01*
X105197630Y-69851010D01*
X105001542Y-69890014D01*
X104813184Y-69968035D01*
X104643666Y-70081303D01*
X104499503Y-70225466D01*
X104386235Y-70394984D01*
X104308214Y-70583342D01*
X104268440Y-70783301D01*
X104268440Y-70987179D01*
X104308214Y-71187138D01*
X104386235Y-71375496D01*
X104499503Y-71545014D01*
X104643666Y-71689177D01*
X104813184Y-71802445D01*
X105001542Y-71880466D01*
X105201501Y-71920240D01*
X105405379Y-71920240D01*
X105605338Y-71880466D01*
X105793696Y-71802445D01*
X105963214Y-71689177D01*
X106107377Y-71545014D01*
X106220645Y-71375496D01*
X106272353Y-71250661D01*
X108058120Y-71250661D01*
X108058120Y-71454539D01*
X108097894Y-71654498D01*
X108175915Y-71842856D01*
X108289183Y-72012374D01*
X108433346Y-72156537D01*
X108602864Y-72269805D01*
X108791222Y-72347826D01*
X108991181Y-72387600D01*
X109195059Y-72387600D01*
X109395018Y-72347826D01*
X109583376Y-72269805D01*
X109752894Y-72156537D01*
X109897057Y-72012374D01*
X110010325Y-71842856D01*
X110088346Y-71654498D01*
X110128120Y-71454539D01*
X110128120Y-71250661D01*
X110088346Y-71050702D01*
X110010325Y-70862344D01*
X109897057Y-70692826D01*
X109752894Y-70548663D01*
X109583376Y-70435395D01*
X109395018Y-70357374D01*
X109195059Y-70317600D01*
X108991181Y-70317600D01*
X108791222Y-70357374D01*
X108602864Y-70435395D01*
X108433346Y-70548663D01*
X108289183Y-70692826D01*
X108175915Y-70862344D01*
X108097894Y-71050702D01*
X108058120Y-71250661D01*
X106272353Y-71250661D01*
X106298666Y-71187138D01*
X106338440Y-70987179D01*
X106338440Y-70783301D01*
X106298666Y-70583342D01*
X106220645Y-70394984D01*
X106107377Y-70225466D01*
X106065772Y-70183861D01*
X115800040Y-70183861D01*
X115800040Y-70387739D01*
X115839814Y-70587698D01*
X115917835Y-70776056D01*
X116031103Y-70945574D01*
X116175266Y-71089737D01*
X116344784Y-71203005D01*
X116533142Y-71281026D01*
X116733101Y-71320800D01*
X116936979Y-71320800D01*
X117110820Y-71286221D01*
X118380680Y-71286221D01*
X118380680Y-71490099D01*
X118420454Y-71690058D01*
X118498475Y-71878416D01*
X118611743Y-72047934D01*
X118755906Y-72192097D01*
X118925424Y-72305365D01*
X119113782Y-72383386D01*
X119313741Y-72423160D01*
X119517619Y-72423160D01*
X119717578Y-72383386D01*
X119905936Y-72305365D01*
X120075454Y-72192097D01*
X120124256Y-72143295D01*
X120349548Y-72368587D01*
X120617337Y-72547518D01*
X120914888Y-72670768D01*
X121230767Y-72733600D01*
X121552833Y-72733600D01*
X121868712Y-72670768D01*
X122166263Y-72547518D01*
X122434052Y-72368587D01*
X122661787Y-72140852D01*
X122840718Y-71873063D01*
X122963968Y-71575512D01*
X123026800Y-71259633D01*
X123026800Y-70937567D01*
X126256800Y-70937567D01*
X126256800Y-71259633D01*
X126319632Y-71575512D01*
X126442882Y-71873063D01*
X126621813Y-72140852D01*
X126849548Y-72368587D01*
X127117337Y-72547518D01*
X127414888Y-72670768D01*
X127730767Y-72733600D01*
X128052833Y-72733600D01*
X128368712Y-72670768D01*
X128666263Y-72547518D01*
X128934052Y-72368587D01*
X129161787Y-72140852D01*
X129340718Y-71873063D01*
X129463968Y-71575512D01*
X129526800Y-71259633D01*
X129526800Y-70937567D01*
X129463968Y-70621688D01*
X129340718Y-70324137D01*
X129161787Y-70056348D01*
X128934052Y-69828613D01*
X128666263Y-69649682D01*
X128368712Y-69526432D01*
X128052833Y-69463600D01*
X127730767Y-69463600D01*
X127414888Y-69526432D01*
X127117337Y-69649682D01*
X126849548Y-69828613D01*
X126621813Y-70056348D01*
X126442882Y-70324137D01*
X126319632Y-70621688D01*
X126256800Y-70937567D01*
X123026800Y-70937567D01*
X122963968Y-70621688D01*
X122840718Y-70324137D01*
X122661787Y-70056348D01*
X122434052Y-69828613D01*
X122166263Y-69649682D01*
X121868712Y-69526432D01*
X121552833Y-69463600D01*
X121230767Y-69463600D01*
X120914888Y-69526432D01*
X120617337Y-69649682D01*
X120349548Y-69828613D01*
X120121813Y-70056348D01*
X119942882Y-70324137D01*
X119885563Y-70462516D01*
X119717578Y-70392934D01*
X119517619Y-70353160D01*
X119313741Y-70353160D01*
X119113782Y-70392934D01*
X118925424Y-70470955D01*
X118755906Y-70584223D01*
X118611743Y-70728386D01*
X118498475Y-70897904D01*
X118420454Y-71086262D01*
X118380680Y-71286221D01*
X117110820Y-71286221D01*
X117136938Y-71281026D01*
X117325296Y-71203005D01*
X117494814Y-71089737D01*
X117638977Y-70945574D01*
X117752245Y-70776056D01*
X117830266Y-70587698D01*
X117870040Y-70387739D01*
X117870040Y-70183861D01*
X117830266Y-69983902D01*
X117752245Y-69795544D01*
X117638977Y-69626026D01*
X117494814Y-69481863D01*
X117325296Y-69368595D01*
X117136938Y-69290574D01*
X116936979Y-69250800D01*
X116733101Y-69250800D01*
X116533142Y-69290574D01*
X116344784Y-69368595D01*
X116175266Y-69481863D01*
X116031103Y-69626026D01*
X115917835Y-69795544D01*
X115839814Y-69983902D01*
X115800040Y-70183861D01*
X106065772Y-70183861D01*
X106052511Y-70170600D01*
X106272660Y-70170600D01*
X106559558Y-70113532D01*
X106829811Y-70001590D01*
X107073032Y-69839075D01*
X107279875Y-69632232D01*
X107396400Y-69457840D01*
X107512925Y-69632232D01*
X107719768Y-69839075D01*
X107962989Y-70001590D01*
X108233242Y-70113532D01*
X108520140Y-70170600D01*
X108812660Y-70170600D01*
X109099558Y-70113532D01*
X109369811Y-70001590D01*
X109613032Y-69839075D01*
X109819875Y-69632232D01*
X109982390Y-69389011D01*
X110094332Y-69118758D01*
X110151400Y-68831860D01*
X110151400Y-68539340D01*
X110094332Y-68252442D01*
X109982390Y-67982189D01*
X109819875Y-67738968D01*
X109613032Y-67532125D01*
X109369811Y-67369610D01*
X109099558Y-67257668D01*
X108812660Y-67200600D01*
X108520140Y-67200600D01*
X108233242Y-67257668D01*
X107962989Y-67369610D01*
X107719768Y-67532125D01*
X107512925Y-67738968D01*
X107396400Y-67913360D01*
X107279875Y-67738968D01*
X107073032Y-67532125D01*
X106829811Y-67369610D01*
X106559558Y-67257668D01*
X106272660Y-67200600D01*
X105980140Y-67200600D01*
X105693242Y-67257668D01*
X105422989Y-67369610D01*
X105179768Y-67532125D01*
X104972925Y-67738968D01*
X104856400Y-67913360D01*
X104739875Y-67738968D01*
X104533032Y-67532125D01*
X104289811Y-67369610D01*
X104019558Y-67257668D01*
X103732660Y-67200600D01*
X103440140Y-67200600D01*
X103153242Y-67257668D01*
X102882989Y-67369610D01*
X102639768Y-67532125D01*
X102507913Y-67663980D01*
X102485902Y-67591420D01*
X102426937Y-67481106D01*
X102347585Y-67384415D01*
X102250894Y-67305063D01*
X102140580Y-67246098D01*
X102020882Y-67209788D01*
X101896400Y-67197528D01*
X100196400Y-67197528D01*
X100071918Y-67209788D01*
X99952220Y-67246098D01*
X99841906Y-67305063D01*
X99745215Y-67384415D01*
X99665863Y-67481106D01*
X99606898Y-67591420D01*
X99570588Y-67711118D01*
X99558328Y-67835600D01*
X71384280Y-67835600D01*
X71384280Y-65637261D01*
X100570200Y-65637261D01*
X100570200Y-65841139D01*
X100609974Y-66041098D01*
X100687995Y-66229456D01*
X100801263Y-66398974D01*
X100945426Y-66543137D01*
X101114944Y-66656405D01*
X101303302Y-66734426D01*
X101503261Y-66774200D01*
X101707139Y-66774200D01*
X101907098Y-66734426D01*
X102095456Y-66656405D01*
X102264974Y-66543137D01*
X102409137Y-66398974D01*
X102522405Y-66229456D01*
X102600426Y-66041098D01*
X102640200Y-65841139D01*
X102640200Y-65637261D01*
X107453600Y-65637261D01*
X107453600Y-65841139D01*
X107493374Y-66041098D01*
X107571395Y-66229456D01*
X107684663Y-66398974D01*
X107828826Y-66543137D01*
X107998344Y-66656405D01*
X108186702Y-66734426D01*
X108386661Y-66774200D01*
X108590539Y-66774200D01*
X108790498Y-66734426D01*
X108978856Y-66656405D01*
X109148374Y-66543137D01*
X109253944Y-66437567D01*
X119756800Y-66437567D01*
X119756800Y-66759633D01*
X119819632Y-67075512D01*
X119942882Y-67373063D01*
X120121813Y-67640852D01*
X120349548Y-67868587D01*
X120617337Y-68047518D01*
X120914888Y-68170768D01*
X121230767Y-68233600D01*
X121552833Y-68233600D01*
X121868712Y-68170768D01*
X122166263Y-68047518D01*
X122434052Y-67868587D01*
X122661787Y-67640852D01*
X122840718Y-67373063D01*
X122845880Y-67360600D01*
X126437720Y-67360600D01*
X126442882Y-67373063D01*
X126621813Y-67640852D01*
X126849548Y-67868587D01*
X127117337Y-68047518D01*
X127414888Y-68170768D01*
X127730767Y-68233600D01*
X128052833Y-68233600D01*
X128368712Y-68170768D01*
X128666263Y-68047518D01*
X128934052Y-67868587D01*
X129161787Y-67640852D01*
X129340718Y-67373063D01*
X129463968Y-67075512D01*
X129526800Y-66759633D01*
X129526800Y-66437567D01*
X129463968Y-66121688D01*
X129340718Y-65824137D01*
X129161787Y-65556348D01*
X128934052Y-65328613D01*
X128666263Y-65149682D01*
X128368712Y-65026432D01*
X128052833Y-64963600D01*
X127730767Y-64963600D01*
X127414888Y-65026432D01*
X127117337Y-65149682D01*
X126849548Y-65328613D01*
X126621813Y-65556348D01*
X126442882Y-65824137D01*
X126437720Y-65836600D01*
X122845880Y-65836600D01*
X122840718Y-65824137D01*
X122661787Y-65556348D01*
X122434052Y-65328613D01*
X122166263Y-65149682D01*
X121868712Y-65026432D01*
X121552833Y-64963600D01*
X121230767Y-64963600D01*
X120914888Y-65026432D01*
X120617337Y-65149682D01*
X120349548Y-65328613D01*
X120121813Y-65556348D01*
X119942882Y-65824137D01*
X119819632Y-66121688D01*
X119756800Y-66437567D01*
X109253944Y-66437567D01*
X109292537Y-66398974D01*
X109405805Y-66229456D01*
X109483826Y-66041098D01*
X109523600Y-65841139D01*
X109523600Y-65637261D01*
X109483826Y-65437302D01*
X109405805Y-65248944D01*
X109292537Y-65079426D01*
X109148374Y-64935263D01*
X108978856Y-64821995D01*
X108790498Y-64743974D01*
X108590539Y-64704200D01*
X108386661Y-64704200D01*
X108186702Y-64743974D01*
X107998344Y-64821995D01*
X107828826Y-64935263D01*
X107684663Y-65079426D01*
X107571395Y-65248944D01*
X107493374Y-65437302D01*
X107453600Y-65637261D01*
X102640200Y-65637261D01*
X102600426Y-65437302D01*
X102522405Y-65248944D01*
X102409137Y-65079426D01*
X102264974Y-64935263D01*
X102095456Y-64821995D01*
X101907098Y-64743974D01*
X101707139Y-64704200D01*
X101503261Y-64704200D01*
X101303302Y-64743974D01*
X101114944Y-64821995D01*
X100945426Y-64935263D01*
X100801263Y-65079426D01*
X100687995Y-65248944D01*
X100609974Y-65437302D01*
X100570200Y-65637261D01*
X71384280Y-65637261D01*
X71384280Y-63484740D01*
X72256400Y-63484740D01*
X72256400Y-63777260D01*
X72313468Y-64064158D01*
X72425410Y-64334411D01*
X72587925Y-64577632D01*
X72794768Y-64784475D01*
X73037989Y-64946990D01*
X73308242Y-65058932D01*
X73595140Y-65116000D01*
X73887660Y-65116000D01*
X74174558Y-65058932D01*
X74444811Y-64946990D01*
X74688032Y-64784475D01*
X74894875Y-64577632D01*
X75011400Y-64403240D01*
X75127925Y-64577632D01*
X75334768Y-64784475D01*
X75577989Y-64946990D01*
X75848242Y-65058932D01*
X76135140Y-65116000D01*
X76427660Y-65116000D01*
X76714558Y-65058932D01*
X76984811Y-64946990D01*
X77228032Y-64784475D01*
X77434875Y-64577632D01*
X77551400Y-64403240D01*
X77667925Y-64577632D01*
X77874768Y-64784475D01*
X78117989Y-64946990D01*
X78388242Y-65058932D01*
X78675140Y-65116000D01*
X78967660Y-65116000D01*
X79254558Y-65058932D01*
X79524811Y-64946990D01*
X79768032Y-64784475D01*
X79974875Y-64577632D01*
X80091400Y-64403240D01*
X80207925Y-64577632D01*
X80414768Y-64784475D01*
X80657989Y-64946990D01*
X80928242Y-65058932D01*
X81215140Y-65116000D01*
X81507660Y-65116000D01*
X81794558Y-65058932D01*
X82064811Y-64946990D01*
X82308032Y-64784475D01*
X82514875Y-64577632D01*
X82631400Y-64403240D01*
X82747925Y-64577632D01*
X82954768Y-64784475D01*
X83197989Y-64946990D01*
X83468242Y-65058932D01*
X83755140Y-65116000D01*
X84047660Y-65116000D01*
X84334558Y-65058932D01*
X84604811Y-64946990D01*
X84848032Y-64784475D01*
X84979887Y-64652620D01*
X85001898Y-64725180D01*
X85060863Y-64835494D01*
X85140215Y-64932185D01*
X85236906Y-65011537D01*
X85347220Y-65070502D01*
X85466918Y-65106812D01*
X85591400Y-65119072D01*
X87291400Y-65119072D01*
X87415882Y-65106812D01*
X87535580Y-65070502D01*
X87645894Y-65011537D01*
X87742585Y-64932185D01*
X87821937Y-64835494D01*
X87880902Y-64725180D01*
X87917212Y-64605482D01*
X87929472Y-64481000D01*
X87929472Y-63198861D01*
X93788400Y-63198861D01*
X93788400Y-63402739D01*
X93828174Y-63602698D01*
X93906195Y-63791056D01*
X94019463Y-63960574D01*
X94163626Y-64104737D01*
X94333144Y-64218005D01*
X94521502Y-64296026D01*
X94721461Y-64335800D01*
X94925339Y-64335800D01*
X95125298Y-64296026D01*
X95313656Y-64218005D01*
X95455211Y-64123421D01*
X97710160Y-64123421D01*
X97710160Y-64327299D01*
X97749934Y-64527258D01*
X97827955Y-64715616D01*
X97941223Y-64885134D01*
X98085386Y-65029297D01*
X98254904Y-65142565D01*
X98443262Y-65220586D01*
X98643221Y-65260360D01*
X98847099Y-65260360D01*
X99047058Y-65220586D01*
X99235416Y-65142565D01*
X99404934Y-65029297D01*
X99549097Y-64885134D01*
X99662365Y-64715616D01*
X99740386Y-64527258D01*
X99780160Y-64327299D01*
X99780160Y-64123421D01*
X99740386Y-63923462D01*
X99662365Y-63735104D01*
X99604175Y-63648016D01*
X99833340Y-63693600D01*
X100125860Y-63693600D01*
X100412758Y-63636532D01*
X100683011Y-63524590D01*
X100926232Y-63362075D01*
X101133075Y-63155232D01*
X101249600Y-62980840D01*
X101366125Y-63155232D01*
X101572968Y-63362075D01*
X101816189Y-63524590D01*
X102086442Y-63636532D01*
X102373340Y-63693600D01*
X102665860Y-63693600D01*
X102952758Y-63636532D01*
X103223011Y-63524590D01*
X103466232Y-63362075D01*
X103673075Y-63155232D01*
X103789600Y-62980840D01*
X103906125Y-63155232D01*
X104112968Y-63362075D01*
X104356189Y-63524590D01*
X104626442Y-63636532D01*
X104913340Y-63693600D01*
X105205860Y-63693600D01*
X105492758Y-63636532D01*
X105763011Y-63524590D01*
X106006232Y-63362075D01*
X106213075Y-63155232D01*
X106329600Y-62980840D01*
X106446125Y-63155232D01*
X106652968Y-63362075D01*
X106896189Y-63524590D01*
X107166442Y-63636532D01*
X107453340Y-63693600D01*
X107745860Y-63693600D01*
X108032758Y-63636532D01*
X108303011Y-63524590D01*
X108546232Y-63362075D01*
X108678087Y-63230220D01*
X108700098Y-63302780D01*
X108759063Y-63413094D01*
X108838415Y-63509785D01*
X108935106Y-63589137D01*
X109045420Y-63648102D01*
X109165118Y-63684412D01*
X109289600Y-63696672D01*
X110989600Y-63696672D01*
X111114082Y-63684412D01*
X111233780Y-63648102D01*
X111344094Y-63589137D01*
X111440785Y-63509785D01*
X111520137Y-63413094D01*
X111579102Y-63302780D01*
X111615412Y-63183082D01*
X111627672Y-63058600D01*
X111627672Y-61358600D01*
X111615412Y-61234118D01*
X111579102Y-61114420D01*
X111520137Y-61004106D01*
X111440785Y-60907415D01*
X111344094Y-60828063D01*
X111233780Y-60769098D01*
X111114082Y-60732788D01*
X110989600Y-60720528D01*
X109289600Y-60720528D01*
X109165118Y-60732788D01*
X109045420Y-60769098D01*
X108935106Y-60828063D01*
X108838415Y-60907415D01*
X108759063Y-61004106D01*
X108700098Y-61114420D01*
X108678087Y-61186980D01*
X108546232Y-61055125D01*
X108303011Y-60892610D01*
X108032758Y-60780668D01*
X107745860Y-60723600D01*
X107453340Y-60723600D01*
X107166442Y-60780668D01*
X106896189Y-60892610D01*
X106652968Y-61055125D01*
X106446125Y-61261968D01*
X106329600Y-61436360D01*
X106213075Y-61261968D01*
X106006232Y-61055125D01*
X105763011Y-60892610D01*
X105492758Y-60780668D01*
X105205860Y-60723600D01*
X104913340Y-60723600D01*
X104626442Y-60780668D01*
X104356189Y-60892610D01*
X104112968Y-61055125D01*
X103906125Y-61261968D01*
X103789600Y-61436360D01*
X103673075Y-61261968D01*
X103466232Y-61055125D01*
X103223011Y-60892610D01*
X102952758Y-60780668D01*
X102665860Y-60723600D01*
X102373340Y-60723600D01*
X102086442Y-60780668D01*
X101816189Y-60892610D01*
X101572968Y-61055125D01*
X101366125Y-61261968D01*
X101249600Y-61436360D01*
X101133075Y-61261968D01*
X100926232Y-61055125D01*
X100683011Y-60892610D01*
X100412758Y-60780668D01*
X100125860Y-60723600D01*
X99833340Y-60723600D01*
X99546442Y-60780668D01*
X99276189Y-60892610D01*
X99032968Y-61055125D01*
X98826125Y-61261968D01*
X98663610Y-61505189D01*
X98551668Y-61775442D01*
X98494600Y-62062340D01*
X98494600Y-62354860D01*
X98551668Y-62641758D01*
X98663610Y-62912011D01*
X98826125Y-63155232D01*
X98864767Y-63193874D01*
X98847099Y-63190360D01*
X98643221Y-63190360D01*
X98443262Y-63230134D01*
X98254904Y-63308155D01*
X98085386Y-63421423D01*
X97941223Y-63565586D01*
X97827955Y-63735104D01*
X97749934Y-63923462D01*
X97710160Y-64123421D01*
X95455211Y-64123421D01*
X95483174Y-64104737D01*
X95627337Y-63960574D01*
X95740605Y-63791056D01*
X95818626Y-63602698D01*
X95858400Y-63402739D01*
X95858400Y-63198861D01*
X95818626Y-62998902D01*
X95740605Y-62810544D01*
X95627337Y-62641026D01*
X95483174Y-62496863D01*
X95313656Y-62383595D01*
X95125298Y-62305574D01*
X94925339Y-62265800D01*
X94721461Y-62265800D01*
X94521502Y-62305574D01*
X94333144Y-62383595D01*
X94163626Y-62496863D01*
X94019463Y-62641026D01*
X93906195Y-62810544D01*
X93828174Y-62998902D01*
X93788400Y-63198861D01*
X87929472Y-63198861D01*
X87929472Y-62781000D01*
X87917212Y-62656518D01*
X87880902Y-62536820D01*
X87821937Y-62426506D01*
X87742585Y-62329815D01*
X87645894Y-62250463D01*
X87535580Y-62191498D01*
X87415882Y-62155188D01*
X87291400Y-62142928D01*
X85591400Y-62142928D01*
X85466918Y-62155188D01*
X85347220Y-62191498D01*
X85236906Y-62250463D01*
X85140215Y-62329815D01*
X85060863Y-62426506D01*
X85001898Y-62536820D01*
X84979887Y-62609380D01*
X84848032Y-62477525D01*
X84604811Y-62315010D01*
X84334558Y-62203068D01*
X84047660Y-62146000D01*
X83755140Y-62146000D01*
X83468242Y-62203068D01*
X83197989Y-62315010D01*
X82954768Y-62477525D01*
X82747925Y-62684368D01*
X82631400Y-62858760D01*
X82514875Y-62684368D01*
X82308032Y-62477525D01*
X82064811Y-62315010D01*
X81794558Y-62203068D01*
X81507660Y-62146000D01*
X81215140Y-62146000D01*
X80928242Y-62203068D01*
X80657989Y-62315010D01*
X80414768Y-62477525D01*
X80207925Y-62684368D01*
X80091400Y-62858760D01*
X79974875Y-62684368D01*
X79768032Y-62477525D01*
X79524811Y-62315010D01*
X79254558Y-62203068D01*
X78967660Y-62146000D01*
X78675140Y-62146000D01*
X78388242Y-62203068D01*
X78117989Y-62315010D01*
X77874768Y-62477525D01*
X77667925Y-62684368D01*
X77551400Y-62858760D01*
X77434875Y-62684368D01*
X77228032Y-62477525D01*
X76984811Y-62315010D01*
X76714558Y-62203068D01*
X76427660Y-62146000D01*
X76135140Y-62146000D01*
X75848242Y-62203068D01*
X75577989Y-62315010D01*
X75334768Y-62477525D01*
X75127925Y-62684368D01*
X75011400Y-62858760D01*
X74894875Y-62684368D01*
X74688032Y-62477525D01*
X74444811Y-62315010D01*
X74174558Y-62203068D01*
X73887660Y-62146000D01*
X73595140Y-62146000D01*
X73308242Y-62203068D01*
X73037989Y-62315010D01*
X72794768Y-62477525D01*
X72587925Y-62684368D01*
X72425410Y-62927589D01*
X72313468Y-63197842D01*
X72256400Y-63484740D01*
X71384280Y-63484740D01*
X71384280Y-62496100D01*
X71388580Y-62452440D01*
X71384280Y-62408780D01*
X71384280Y-62408773D01*
X71371416Y-62278166D01*
X71320583Y-62110589D01*
X71238033Y-61956149D01*
X71126939Y-61820781D01*
X71093021Y-61792945D01*
X70416137Y-61116061D01*
X91121400Y-61116061D01*
X91121400Y-61319939D01*
X91161174Y-61519898D01*
X91239195Y-61708256D01*
X91352463Y-61877774D01*
X91496626Y-62021937D01*
X91666144Y-62135205D01*
X91854502Y-62213226D01*
X92054461Y-62253000D01*
X92258339Y-62253000D01*
X92458298Y-62213226D01*
X92646656Y-62135205D01*
X92816174Y-62021937D01*
X92960337Y-61877774D01*
X93073605Y-61708256D01*
X93151626Y-61519898D01*
X93191400Y-61319939D01*
X93191400Y-61116061D01*
X93151626Y-60916102D01*
X93073605Y-60727744D01*
X92960337Y-60558226D01*
X92816174Y-60414063D01*
X92646656Y-60300795D01*
X92458298Y-60222774D01*
X92258339Y-60183000D01*
X92054461Y-60183000D01*
X91854502Y-60222774D01*
X91666144Y-60300795D01*
X91496626Y-60414063D01*
X91352463Y-60558226D01*
X91239195Y-60727744D01*
X91161174Y-60916102D01*
X91121400Y-61116061D01*
X70416137Y-61116061D01*
X70074493Y-60774418D01*
X69977390Y-60539989D01*
X69814875Y-60296768D01*
X69641838Y-60123731D01*
X123335200Y-60123731D01*
X123335200Y-60780669D01*
X123463362Y-61424984D01*
X123714761Y-62031915D01*
X124079736Y-62578139D01*
X124544261Y-63042664D01*
X125090485Y-63407639D01*
X125697416Y-63659038D01*
X126341731Y-63787200D01*
X126998669Y-63787200D01*
X127642984Y-63659038D01*
X128249915Y-63407639D01*
X128796139Y-63042664D01*
X129260664Y-62578139D01*
X129625639Y-62031915D01*
X129877038Y-61424984D01*
X130005200Y-60780669D01*
X130005200Y-60123731D01*
X129877038Y-59479416D01*
X129625639Y-58872485D01*
X129260664Y-58326261D01*
X128796139Y-57861736D01*
X128249915Y-57496761D01*
X127642984Y-57245362D01*
X126998669Y-57117200D01*
X126341731Y-57117200D01*
X125697416Y-57245362D01*
X125090485Y-57496761D01*
X124544261Y-57861736D01*
X124079736Y-58326261D01*
X123714761Y-58872485D01*
X123463362Y-59479416D01*
X123335200Y-60123731D01*
X69641838Y-60123731D01*
X69608032Y-60089925D01*
X69433640Y-59973400D01*
X69608032Y-59856875D01*
X69814875Y-59650032D01*
X69977390Y-59406811D01*
X70089332Y-59136558D01*
X70146400Y-58849660D01*
X70146400Y-58557140D01*
X70089332Y-58270242D01*
X69977390Y-57999989D01*
X69814875Y-57756768D01*
X69608032Y-57549925D01*
X69433640Y-57433400D01*
X69608032Y-57316875D01*
X69814875Y-57110032D01*
X69977390Y-56866811D01*
X70089332Y-56596558D01*
X70146400Y-56309660D01*
X70146400Y-56017140D01*
X70089332Y-55730242D01*
X69977390Y-55459989D01*
X69814875Y-55216768D01*
X69608032Y-55009925D01*
X69364811Y-54847410D01*
X69153012Y-54759680D01*
X94122728Y-54759680D01*
X94122728Y-56459680D01*
X94134988Y-56584162D01*
X94171298Y-56703860D01*
X94230263Y-56814174D01*
X94309615Y-56910865D01*
X94406306Y-56990217D01*
X94516620Y-57049182D01*
X94636318Y-57085492D01*
X94760800Y-57097752D01*
X96460800Y-57097752D01*
X96585282Y-57085492D01*
X96704980Y-57049182D01*
X96815294Y-56990217D01*
X96911985Y-56910865D01*
X96991337Y-56814174D01*
X97050302Y-56703860D01*
X97072313Y-56631300D01*
X97204168Y-56763155D01*
X97447389Y-56925670D01*
X97717642Y-57037612D01*
X98004540Y-57094680D01*
X98297060Y-57094680D01*
X98583958Y-57037612D01*
X98854211Y-56925670D01*
X99097432Y-56763155D01*
X99304275Y-56556312D01*
X99420800Y-56381920D01*
X99537325Y-56556312D01*
X99744168Y-56763155D01*
X99987389Y-56925670D01*
X100257642Y-57037612D01*
X100544540Y-57094680D01*
X100837060Y-57094680D01*
X101123958Y-57037612D01*
X101394211Y-56925670D01*
X101637432Y-56763155D01*
X101844275Y-56556312D01*
X101960800Y-56381920D01*
X102077325Y-56556312D01*
X102284168Y-56763155D01*
X102527389Y-56925670D01*
X102797642Y-57037612D01*
X103084540Y-57094680D01*
X103377060Y-57094680D01*
X103663958Y-57037612D01*
X103934211Y-56925670D01*
X104177432Y-56763155D01*
X104384275Y-56556312D01*
X104500800Y-56381920D01*
X104617325Y-56556312D01*
X104824168Y-56763155D01*
X105067389Y-56925670D01*
X105337642Y-57037612D01*
X105624540Y-57094680D01*
X105917060Y-57094680D01*
X106203958Y-57037612D01*
X106474211Y-56925670D01*
X106717432Y-56763155D01*
X106924275Y-56556312D01*
X107040800Y-56381920D01*
X107157325Y-56556312D01*
X107364168Y-56763155D01*
X107607389Y-56925670D01*
X107877642Y-57037612D01*
X108164540Y-57094680D01*
X108457060Y-57094680D01*
X108743958Y-57037612D01*
X109014211Y-56925670D01*
X109257432Y-56763155D01*
X109464275Y-56556312D01*
X109580800Y-56381920D01*
X109697325Y-56556312D01*
X109904168Y-56763155D01*
X110147389Y-56925670D01*
X110417642Y-57037612D01*
X110704540Y-57094680D01*
X110997060Y-57094680D01*
X111283958Y-57037612D01*
X111554211Y-56925670D01*
X111797432Y-56763155D01*
X112004275Y-56556312D01*
X112120800Y-56381920D01*
X112237325Y-56556312D01*
X112444168Y-56763155D01*
X112687389Y-56925670D01*
X112957642Y-57037612D01*
X113244540Y-57094680D01*
X113537060Y-57094680D01*
X113823958Y-57037612D01*
X114094211Y-56925670D01*
X114337432Y-56763155D01*
X114544275Y-56556312D01*
X114706790Y-56313091D01*
X114818732Y-56042838D01*
X114875800Y-55755940D01*
X114875800Y-55463420D01*
X114818732Y-55176522D01*
X114706790Y-54906269D01*
X114544275Y-54663048D01*
X114337432Y-54456205D01*
X114094211Y-54293690D01*
X113823958Y-54181748D01*
X113537060Y-54124680D01*
X113244540Y-54124680D01*
X112957642Y-54181748D01*
X112687389Y-54293690D01*
X112444168Y-54456205D01*
X112237325Y-54663048D01*
X112120800Y-54837440D01*
X112004275Y-54663048D01*
X111797432Y-54456205D01*
X111554211Y-54293690D01*
X111283958Y-54181748D01*
X110997060Y-54124680D01*
X110704540Y-54124680D01*
X110417642Y-54181748D01*
X110147389Y-54293690D01*
X109904168Y-54456205D01*
X109697325Y-54663048D01*
X109580800Y-54837440D01*
X109464275Y-54663048D01*
X109257432Y-54456205D01*
X109014211Y-54293690D01*
X108743958Y-54181748D01*
X108457060Y-54124680D01*
X108164540Y-54124680D01*
X107877642Y-54181748D01*
X107607389Y-54293690D01*
X107364168Y-54456205D01*
X107157325Y-54663048D01*
X107040800Y-54837440D01*
X106924275Y-54663048D01*
X106717432Y-54456205D01*
X106474211Y-54293690D01*
X106203958Y-54181748D01*
X105917060Y-54124680D01*
X105624540Y-54124680D01*
X105337642Y-54181748D01*
X105067389Y-54293690D01*
X104824168Y-54456205D01*
X104617325Y-54663048D01*
X104500800Y-54837440D01*
X104384275Y-54663048D01*
X104177432Y-54456205D01*
X103934211Y-54293690D01*
X103663958Y-54181748D01*
X103377060Y-54124680D01*
X103084540Y-54124680D01*
X102797642Y-54181748D01*
X102527389Y-54293690D01*
X102284168Y-54456205D01*
X102077325Y-54663048D01*
X101960800Y-54837440D01*
X101844275Y-54663048D01*
X101637432Y-54456205D01*
X101394211Y-54293690D01*
X101123958Y-54181748D01*
X100837060Y-54124680D01*
X100544540Y-54124680D01*
X100257642Y-54181748D01*
X99987389Y-54293690D01*
X99744168Y-54456205D01*
X99537325Y-54663048D01*
X99420800Y-54837440D01*
X99304275Y-54663048D01*
X99097432Y-54456205D01*
X98854211Y-54293690D01*
X98583958Y-54181748D01*
X98297060Y-54124680D01*
X98004540Y-54124680D01*
X97717642Y-54181748D01*
X97447389Y-54293690D01*
X97204168Y-54456205D01*
X97072313Y-54588060D01*
X97050302Y-54515500D01*
X96991337Y-54405186D01*
X96911985Y-54308495D01*
X96815294Y-54229143D01*
X96704980Y-54170178D01*
X96585282Y-54133868D01*
X96460800Y-54121608D01*
X94760800Y-54121608D01*
X94636318Y-54133868D01*
X94516620Y-54170178D01*
X94406306Y-54229143D01*
X94309615Y-54308495D01*
X94230263Y-54405186D01*
X94171298Y-54515500D01*
X94134988Y-54635198D01*
X94122728Y-54759680D01*
X69153012Y-54759680D01*
X69094558Y-54735468D01*
X68807660Y-54678400D01*
X68515140Y-54678400D01*
X68228242Y-54735468D01*
X67957989Y-54847410D01*
X67714768Y-55009925D01*
X67507925Y-55216768D01*
X67345410Y-55459989D01*
X67233468Y-55730242D01*
X67176400Y-56017140D01*
X67176400Y-56309660D01*
X67189923Y-56377642D01*
X63829320Y-59738245D01*
X63828400Y-59524350D01*
X63669650Y-59365600D01*
X62320400Y-59365600D01*
X62320400Y-60714850D01*
X62479150Y-60873600D01*
X63193400Y-60876672D01*
X63225121Y-60873548D01*
X63225120Y-67509644D01*
X61112804Y-69621960D01*
X61110992Y-69621600D01*
X60835808Y-69621600D01*
X60565910Y-69675286D01*
X60311673Y-69780595D01*
X60082865Y-69933480D01*
X59888280Y-70128065D01*
X59829480Y-70216065D01*
X59821212Y-70132118D01*
X59784902Y-70012420D01*
X59725937Y-69902106D01*
X59646585Y-69805415D01*
X59549894Y-69726063D01*
X59439580Y-69667098D01*
X59319882Y-69630788D01*
X59195400Y-69618528D01*
X57671400Y-69618528D01*
X57546918Y-69630788D01*
X57427220Y-69667098D01*
X57316906Y-69726063D01*
X57220215Y-69805415D01*
X57140863Y-69902106D01*
X57081898Y-70012420D01*
X57045588Y-70132118D01*
X57033328Y-70256600D01*
X57033328Y-70281283D01*
X56858965Y-70232640D01*
X56073005Y-71018600D01*
X55713795Y-71018600D01*
X54927835Y-70232640D01*
X54687744Y-70299620D01*
X54570644Y-70548648D01*
X54504377Y-70815735D01*
X54491490Y-71090617D01*
X32703400Y-71090617D01*
X32703400Y-70053035D01*
X55107440Y-70053035D01*
X55893400Y-70838995D01*
X56679360Y-70053035D01*
X56612380Y-69812944D01*
X56363352Y-69695844D01*
X56096265Y-69629577D01*
X55821383Y-69616690D01*
X55549267Y-69657678D01*
X55290377Y-69750964D01*
X55174420Y-69812944D01*
X55107440Y-70053035D01*
X32703400Y-70053035D01*
X32703400Y-60123731D01*
X34435200Y-60123731D01*
X34435200Y-60780669D01*
X34563362Y-61424984D01*
X34814761Y-62031915D01*
X35179736Y-62578139D01*
X35644261Y-63042664D01*
X36190485Y-63407639D01*
X36797416Y-63659038D01*
X37441731Y-63787200D01*
X38098669Y-63787200D01*
X38742984Y-63659038D01*
X39349915Y-63407639D01*
X39896139Y-63042664D01*
X40360664Y-62578139D01*
X40725639Y-62031915D01*
X40977038Y-61424984D01*
X41105200Y-60780669D01*
X41105200Y-60238600D01*
X44055328Y-60238600D01*
X44067588Y-60363082D01*
X44103898Y-60482780D01*
X44162863Y-60593094D01*
X44242215Y-60689785D01*
X44338906Y-60769137D01*
X44449220Y-60828102D01*
X44568918Y-60864412D01*
X44693400Y-60876672D01*
X45407650Y-60873600D01*
X45566400Y-60714850D01*
X45566400Y-59365600D01*
X45820400Y-59365600D01*
X45820400Y-60714850D01*
X45979150Y-60873600D01*
X46693400Y-60876672D01*
X46817882Y-60864412D01*
X46937580Y-60828102D01*
X47047894Y-60769137D01*
X47144585Y-60689785D01*
X47223937Y-60593094D01*
X47282902Y-60482780D01*
X47319212Y-60363082D01*
X47331472Y-60238600D01*
X47328400Y-59524350D01*
X47169650Y-59365600D01*
X45820400Y-59365600D01*
X45566400Y-59365600D01*
X44217150Y-59365600D01*
X44058400Y-59524350D01*
X44055328Y-60238600D01*
X41105200Y-60238600D01*
X41105200Y-60123731D01*
X40977038Y-59479416D01*
X40725639Y-58872485D01*
X40360664Y-58326261D01*
X40273003Y-58238600D01*
X44055328Y-58238600D01*
X44058400Y-58952850D01*
X44217150Y-59111600D01*
X45566400Y-59111600D01*
X45566400Y-57762350D01*
X45820400Y-57762350D01*
X45820400Y-59111600D01*
X47169650Y-59111600D01*
X47203683Y-59077567D01*
X49058400Y-59077567D01*
X49058400Y-59399633D01*
X49121232Y-59715512D01*
X49244482Y-60013063D01*
X49423413Y-60280852D01*
X49651148Y-60508587D01*
X49918937Y-60687518D01*
X50216488Y-60810768D01*
X50532367Y-60873600D01*
X50854433Y-60873600D01*
X51170312Y-60810768D01*
X51467863Y-60687518D01*
X51735652Y-60508587D01*
X51963387Y-60280852D01*
X52142318Y-60013063D01*
X52265568Y-59715512D01*
X52328400Y-59399633D01*
X52328400Y-59077567D01*
X55558400Y-59077567D01*
X55558400Y-59399633D01*
X55621232Y-59715512D01*
X55744482Y-60013063D01*
X55923413Y-60280852D01*
X56151148Y-60508587D01*
X56418937Y-60687518D01*
X56716488Y-60810768D01*
X57032367Y-60873600D01*
X57354433Y-60873600D01*
X57670312Y-60810768D01*
X57967863Y-60687518D01*
X58235652Y-60508587D01*
X58463387Y-60280852D01*
X58491618Y-60238600D01*
X60555328Y-60238600D01*
X60567588Y-60363082D01*
X60603898Y-60482780D01*
X60662863Y-60593094D01*
X60742215Y-60689785D01*
X60838906Y-60769137D01*
X60949220Y-60828102D01*
X61068918Y-60864412D01*
X61193400Y-60876672D01*
X61907650Y-60873600D01*
X62066400Y-60714850D01*
X62066400Y-59365600D01*
X60717150Y-59365600D01*
X60558400Y-59524350D01*
X60555328Y-60238600D01*
X58491618Y-60238600D01*
X58642318Y-60013063D01*
X58765568Y-59715512D01*
X58828400Y-59399633D01*
X58828400Y-59077567D01*
X58765568Y-58761688D01*
X58642318Y-58464137D01*
X58491619Y-58238600D01*
X60555328Y-58238600D01*
X60558400Y-58952850D01*
X60717150Y-59111600D01*
X62066400Y-59111600D01*
X62066400Y-57762350D01*
X62320400Y-57762350D01*
X62320400Y-59111600D01*
X63669650Y-59111600D01*
X63828400Y-58952850D01*
X63831472Y-58238600D01*
X63819212Y-58114118D01*
X63782902Y-57994420D01*
X63723937Y-57884106D01*
X63644585Y-57787415D01*
X63547894Y-57708063D01*
X63437580Y-57649098D01*
X63317882Y-57612788D01*
X63193400Y-57600528D01*
X62479150Y-57603600D01*
X62320400Y-57762350D01*
X62066400Y-57762350D01*
X61907650Y-57603600D01*
X61193400Y-57600528D01*
X61068918Y-57612788D01*
X60949220Y-57649098D01*
X60838906Y-57708063D01*
X60742215Y-57787415D01*
X60662863Y-57884106D01*
X60603898Y-57994420D01*
X60567588Y-58114118D01*
X60555328Y-58238600D01*
X58491619Y-58238600D01*
X58463387Y-58196348D01*
X58235652Y-57968613D01*
X57967863Y-57789682D01*
X57670312Y-57666432D01*
X57354433Y-57603600D01*
X57032367Y-57603600D01*
X56716488Y-57666432D01*
X56418937Y-57789682D01*
X56151148Y-57968613D01*
X55923413Y-58196348D01*
X55744482Y-58464137D01*
X55621232Y-58761688D01*
X55558400Y-59077567D01*
X52328400Y-59077567D01*
X52265568Y-58761688D01*
X52142318Y-58464137D01*
X51963387Y-58196348D01*
X51735652Y-57968613D01*
X51467863Y-57789682D01*
X51170312Y-57666432D01*
X50854433Y-57603600D01*
X50532367Y-57603600D01*
X50216488Y-57666432D01*
X49918937Y-57789682D01*
X49651148Y-57968613D01*
X49423413Y-58196348D01*
X49244482Y-58464137D01*
X49121232Y-58761688D01*
X49058400Y-59077567D01*
X47203683Y-59077567D01*
X47328400Y-58952850D01*
X47331472Y-58238600D01*
X47319212Y-58114118D01*
X47282902Y-57994420D01*
X47223937Y-57884106D01*
X47144585Y-57787415D01*
X47047894Y-57708063D01*
X46937580Y-57649098D01*
X46817882Y-57612788D01*
X46693400Y-57600528D01*
X45979150Y-57603600D01*
X45820400Y-57762350D01*
X45566400Y-57762350D01*
X45407650Y-57603600D01*
X44693400Y-57600528D01*
X44568918Y-57612788D01*
X44449220Y-57649098D01*
X44338906Y-57708063D01*
X44242215Y-57787415D01*
X44162863Y-57884106D01*
X44103898Y-57994420D01*
X44067588Y-58114118D01*
X44055328Y-58238600D01*
X40273003Y-58238600D01*
X39896139Y-57861736D01*
X39349915Y-57496761D01*
X38742984Y-57245362D01*
X38098669Y-57117200D01*
X37441731Y-57117200D01*
X36797416Y-57245362D01*
X36190485Y-57496761D01*
X35644261Y-57861736D01*
X35179736Y-58326261D01*
X34814761Y-58872485D01*
X34563362Y-59479416D01*
X34435200Y-60123731D01*
X32703400Y-60123731D01*
X32703400Y-58317992D01*
X32774573Y-57520517D01*
X32978056Y-56776709D01*
X33310038Y-56080695D01*
X33760026Y-55454470D01*
X34313803Y-54917823D01*
X34953851Y-54487729D01*
X35659953Y-54177771D01*
X36414857Y-53996535D01*
X37067607Y-53948600D01*
X127014008Y-53948600D01*
X127811483Y-54019773D01*
G37*
X127811483Y-54019773D02*
X128555291Y-54223256D01*
X129251305Y-54555238D01*
X129877530Y-55005226D01*
X130414177Y-55559003D01*
X130844271Y-56199051D01*
X131154229Y-56905153D01*
X131335465Y-57660057D01*
X131383400Y-58312807D01*
X131383401Y-98259197D01*
X131312227Y-99056683D01*
X131108744Y-99800490D01*
X130776763Y-100496504D01*
X130326774Y-101122730D01*
X129772997Y-101659377D01*
X129132949Y-102089471D01*
X128426847Y-102399429D01*
X127671943Y-102580665D01*
X127019193Y-102628600D01*
X37072792Y-102628600D01*
X36275317Y-102557427D01*
X35531510Y-102353944D01*
X34835496Y-102021963D01*
X34209270Y-101571974D01*
X33672623Y-101018197D01*
X33242529Y-100378149D01*
X32932571Y-99672047D01*
X32751335Y-98917143D01*
X32703400Y-98264393D01*
X32703400Y-96318731D01*
X34435200Y-96318731D01*
X34435200Y-96975669D01*
X34563362Y-97619984D01*
X34814761Y-98226915D01*
X35179736Y-98773139D01*
X35644261Y-99237664D01*
X36190485Y-99602639D01*
X36797416Y-99854038D01*
X37441731Y-99982200D01*
X38098669Y-99982200D01*
X38742984Y-99854038D01*
X39349915Y-99602639D01*
X39896139Y-99237664D01*
X40360664Y-98773139D01*
X40725639Y-98226915D01*
X40977038Y-97619984D01*
X41105200Y-96975669D01*
X41105200Y-96318731D01*
X41003584Y-95807868D01*
X48608400Y-95807868D01*
X48608400Y-96169332D01*
X48678918Y-96523850D01*
X48817244Y-96857799D01*
X49018062Y-97158344D01*
X49273656Y-97413938D01*
X49574201Y-97614756D01*
X49908150Y-97753082D01*
X50262668Y-97823600D01*
X50624132Y-97823600D01*
X50978650Y-97753082D01*
X51312599Y-97614756D01*
X51613144Y-97413938D01*
X51868738Y-97158344D01*
X52069556Y-96857799D01*
X52207882Y-96523850D01*
X52278400Y-96169332D01*
X52278400Y-95807868D01*
X58608400Y-95807868D01*
X58608400Y-96169332D01*
X58678918Y-96523850D01*
X58817244Y-96857799D01*
X59018062Y-97158344D01*
X59273656Y-97413938D01*
X59574201Y-97614756D01*
X59908150Y-97753082D01*
X60262668Y-97823600D01*
X60624132Y-97823600D01*
X60978650Y-97753082D01*
X61312599Y-97614756D01*
X61613144Y-97413938D01*
X61868738Y-97158344D01*
X62069556Y-96857799D01*
X62207882Y-96523850D01*
X62278400Y-96169332D01*
X62278400Y-95807868D01*
X62207882Y-95453350D01*
X62069556Y-95119401D01*
X61868738Y-94818856D01*
X61838482Y-94788600D01*
X65605328Y-94788600D01*
X65605328Y-97188600D01*
X65617588Y-97313082D01*
X65653898Y-97432780D01*
X65712863Y-97543094D01*
X65792215Y-97639785D01*
X65888906Y-97719137D01*
X65999220Y-97778102D01*
X66118918Y-97814412D01*
X66243400Y-97826672D01*
X68643400Y-97826672D01*
X68767882Y-97814412D01*
X68887580Y-97778102D01*
X68997894Y-97719137D01*
X69094585Y-97639785D01*
X69173937Y-97543094D01*
X69232902Y-97432780D01*
X69269212Y-97313082D01*
X69281472Y-97188600D01*
X69281472Y-95807868D01*
X70608400Y-95807868D01*
X70608400Y-96169332D01*
X70678918Y-96523850D01*
X70817244Y-96857799D01*
X71018062Y-97158344D01*
X71273656Y-97413938D01*
X71574201Y-97614756D01*
X71908150Y-97753082D01*
X72262668Y-97823600D01*
X72624132Y-97823600D01*
X72978650Y-97753082D01*
X73312599Y-97614756D01*
X73613144Y-97413938D01*
X73868738Y-97158344D01*
X74069556Y-96857799D01*
X74207882Y-96523850D01*
X74232769Y-96398731D01*
X123335200Y-96398731D01*
X123335200Y-97055669D01*
X123463362Y-97699984D01*
X123714761Y-98306915D01*
X124079736Y-98853139D01*
X124544261Y-99317664D01*
X125090485Y-99682639D01*
X125697416Y-99934038D01*
X126341731Y-100062200D01*
X126998669Y-100062200D01*
X127642984Y-99934038D01*
X128249915Y-99682639D01*
X128796139Y-99317664D01*
X129260664Y-98853139D01*
X129625639Y-98306915D01*
X129877038Y-97699984D01*
X130005200Y-97055669D01*
X130005200Y-96398731D01*
X129877038Y-95754416D01*
X129625639Y-95147485D01*
X129260664Y-94601261D01*
X128796139Y-94136736D01*
X128249915Y-93771761D01*
X127642984Y-93520362D01*
X126998669Y-93392200D01*
X126341731Y-93392200D01*
X125697416Y-93520362D01*
X125090485Y-93771761D01*
X124544261Y-94136736D01*
X124079736Y-94601261D01*
X123714761Y-95147485D01*
X123463362Y-95754416D01*
X123335200Y-96398731D01*
X74232769Y-96398731D01*
X74278400Y-96169332D01*
X74278400Y-95807868D01*
X74207882Y-95453350D01*
X74069556Y-95119401D01*
X73868738Y-94818856D01*
X73613144Y-94563262D01*
X73312599Y-94362444D01*
X72978650Y-94224118D01*
X72624132Y-94153600D01*
X72262668Y-94153600D01*
X71908150Y-94224118D01*
X71574201Y-94362444D01*
X71273656Y-94563262D01*
X71018062Y-94818856D01*
X70817244Y-95119401D01*
X70678918Y-95453350D01*
X70608400Y-95807868D01*
X69281472Y-95807868D01*
X69281472Y-94788600D01*
X69269212Y-94664118D01*
X69232902Y-94544420D01*
X69173937Y-94434106D01*
X69094585Y-94337415D01*
X68997894Y-94258063D01*
X68887580Y-94199098D01*
X68767882Y-94162788D01*
X68643400Y-94150528D01*
X66243400Y-94150528D01*
X66118918Y-94162788D01*
X65999220Y-94199098D01*
X65888906Y-94258063D01*
X65792215Y-94337415D01*
X65712863Y-94434106D01*
X65653898Y-94544420D01*
X65617588Y-94664118D01*
X65605328Y-94788600D01*
X61838482Y-94788600D01*
X61613144Y-94563262D01*
X61312599Y-94362444D01*
X60978650Y-94224118D01*
X60624132Y-94153600D01*
X60262668Y-94153600D01*
X59908150Y-94224118D01*
X59574201Y-94362444D01*
X59273656Y-94563262D01*
X59018062Y-94818856D01*
X58817244Y-95119401D01*
X58678918Y-95453350D01*
X58608400Y-95807868D01*
X52278400Y-95807868D01*
X52207882Y-95453350D01*
X52069556Y-95119401D01*
X51868738Y-94818856D01*
X51613144Y-94563262D01*
X51312599Y-94362444D01*
X50978650Y-94224118D01*
X50624132Y-94153600D01*
X50262668Y-94153600D01*
X49908150Y-94224118D01*
X49574201Y-94362444D01*
X49273656Y-94563262D01*
X49018062Y-94818856D01*
X48817244Y-95119401D01*
X48678918Y-95453350D01*
X48608400Y-95807868D01*
X41003584Y-95807868D01*
X40977038Y-95674416D01*
X40725639Y-95067485D01*
X40360664Y-94521261D01*
X39896139Y-94056736D01*
X39349915Y-93691761D01*
X38742984Y-93440362D01*
X38098669Y-93312200D01*
X37441731Y-93312200D01*
X36797416Y-93440362D01*
X36190485Y-93691761D01*
X35644261Y-94056736D01*
X35179736Y-94521261D01*
X34814761Y-95067485D01*
X34563362Y-95674416D01*
X34435200Y-96318731D01*
X32703400Y-96318731D01*
X32703400Y-90021261D01*
X49897200Y-90021261D01*
X49897200Y-90225139D01*
X49936974Y-90425098D01*
X50014995Y-90613456D01*
X50128263Y-90782974D01*
X50272426Y-90927137D01*
X50441944Y-91040405D01*
X50630302Y-91118426D01*
X50830261Y-91158200D01*
X51034139Y-91158200D01*
X51234098Y-91118426D01*
X51422456Y-91040405D01*
X51591974Y-90927137D01*
X51736137Y-90782974D01*
X51809373Y-90673367D01*
X119756800Y-90673367D01*
X119756800Y-90995433D01*
X119819632Y-91311312D01*
X119942882Y-91608863D01*
X120121813Y-91876652D01*
X120349548Y-92104387D01*
X120617337Y-92283318D01*
X120914888Y-92406568D01*
X121230767Y-92469400D01*
X121552833Y-92469400D01*
X121868712Y-92406568D01*
X122166263Y-92283318D01*
X122434052Y-92104387D01*
X122661787Y-91876652D01*
X122840718Y-91608863D01*
X122845880Y-91596400D01*
X126437720Y-91596400D01*
X126442882Y-91608863D01*
X126621813Y-91876652D01*
X126849548Y-92104387D01*
X127117337Y-92283318D01*
X127414888Y-92406568D01*
X127730767Y-92469400D01*
X128052833Y-92469400D01*
X128368712Y-92406568D01*
X128666263Y-92283318D01*
X128934052Y-92104387D01*
X129161787Y-91876652D01*
X129340718Y-91608863D01*
X129463968Y-91311312D01*
X129526800Y-90995433D01*
X129526800Y-90673367D01*
X129463968Y-90357488D01*
X129340718Y-90059937D01*
X129161787Y-89792148D01*
X128934052Y-89564413D01*
X128666263Y-89385482D01*
X128368712Y-89262232D01*
X128052833Y-89199400D01*
X127730767Y-89199400D01*
X127414888Y-89262232D01*
X127117337Y-89385482D01*
X126849548Y-89564413D01*
X126621813Y-89792148D01*
X126442882Y-90059937D01*
X126437720Y-90072400D01*
X122845880Y-90072400D01*
X122840718Y-90059937D01*
X122661787Y-89792148D01*
X122434052Y-89564413D01*
X122166263Y-89385482D01*
X121868712Y-89262232D01*
X121552833Y-89199400D01*
X121230767Y-89199400D01*
X120914888Y-89262232D01*
X120617337Y-89385482D01*
X120349548Y-89564413D01*
X120121813Y-89792148D01*
X119942882Y-90059937D01*
X119819632Y-90357488D01*
X119756800Y-90673367D01*
X51809373Y-90673367D01*
X51849405Y-90613456D01*
X51927426Y-90425098D01*
X51967200Y-90225139D01*
X51967200Y-90021261D01*
X51927426Y-89821302D01*
X51849405Y-89632944D01*
X51736137Y-89463426D01*
X51591974Y-89319263D01*
X51422456Y-89205995D01*
X51234098Y-89127974D01*
X51034139Y-89088200D01*
X50830261Y-89088200D01*
X50630302Y-89127974D01*
X50441944Y-89205995D01*
X50272426Y-89319263D01*
X50128263Y-89463426D01*
X50014995Y-89632944D01*
X49936974Y-89821302D01*
X49897200Y-90021261D01*
X32703400Y-90021261D01*
X32703400Y-87288600D01*
X34005328Y-87288600D01*
X34017588Y-87413082D01*
X34053898Y-87532780D01*
X34112863Y-87643094D01*
X34192215Y-87739785D01*
X34208793Y-87753390D01*
X34171720Y-87808873D01*
X34063547Y-88070026D01*
X34008400Y-88347265D01*
X34008400Y-88629935D01*
X34063547Y-88907174D01*
X34171720Y-89168327D01*
X34328763Y-89403359D01*
X34528641Y-89603237D01*
X34763673Y-89760280D01*
X35024826Y-89868453D01*
X35302065Y-89923600D01*
X35584735Y-89923600D01*
X35861974Y-89868453D01*
X36123127Y-89760280D01*
X36358159Y-89603237D01*
X36558037Y-89403359D01*
X36715080Y-89168327D01*
X36823253Y-88907174D01*
X36878400Y-88629935D01*
X36878400Y-88347265D01*
X36823253Y-88070026D01*
X36715080Y-87808873D01*
X36678007Y-87753390D01*
X36694585Y-87739785D01*
X36773937Y-87643094D01*
X36832902Y-87532780D01*
X36869212Y-87413082D01*
X36881472Y-87288600D01*
X36878400Y-86774350D01*
X36719650Y-86615600D01*
X35570400Y-86615600D01*
X35570400Y-86635600D01*
X35316400Y-86635600D01*
X35316400Y-86615600D01*
X34167150Y-86615600D01*
X34008400Y-86774350D01*
X34005328Y-87288600D01*
X32703400Y-87288600D01*
X32703400Y-85688600D01*
X34005328Y-85688600D01*
X34008400Y-86202850D01*
X34167150Y-86361600D01*
X35316400Y-86361600D01*
X35316400Y-85212350D01*
X35570400Y-85212350D01*
X35570400Y-86361600D01*
X36719650Y-86361600D01*
X36878400Y-86202850D01*
X36881472Y-85688600D01*
X36869212Y-85564118D01*
X36832902Y-85444420D01*
X36773937Y-85334106D01*
X36694585Y-85237415D01*
X36597894Y-85158063D01*
X36487580Y-85099098D01*
X36479052Y-85096511D01*
X42658400Y-85096511D01*
X42658400Y-85280689D01*
X42694332Y-85461329D01*
X42764814Y-85631489D01*
X42836383Y-85738600D01*
X42764814Y-85845711D01*
X42694332Y-86015871D01*
X42658400Y-86196511D01*
X42658400Y-86380689D01*
X42694332Y-86561329D01*
X42764814Y-86731489D01*
X42867138Y-86884628D01*
X42921110Y-86938600D01*
X42867138Y-86992572D01*
X42764814Y-87145711D01*
X42694332Y-87315871D01*
X42658400Y-87496511D01*
X42658400Y-87680689D01*
X42694332Y-87861329D01*
X42764814Y-88031489D01*
X42867138Y-88184628D01*
X42871110Y-88188600D01*
X42867138Y-88192572D01*
X42764814Y-88345711D01*
X42694332Y-88515871D01*
X42658400Y-88696511D01*
X42658400Y-88880689D01*
X42694332Y-89061329D01*
X42764814Y-89231489D01*
X42867138Y-89384628D01*
X42997372Y-89514862D01*
X43150511Y-89617186D01*
X43320671Y-89687668D01*
X43501311Y-89723600D01*
X43685489Y-89723600D01*
X43866129Y-89687668D01*
X44036289Y-89617186D01*
X44189428Y-89514862D01*
X44193400Y-89510890D01*
X44197372Y-89514862D01*
X44350511Y-89617186D01*
X44520671Y-89687668D01*
X44701311Y-89723600D01*
X44885489Y-89723600D01*
X45066129Y-89687668D01*
X45236289Y-89617186D01*
X45389428Y-89514862D01*
X45519662Y-89384628D01*
X45621986Y-89231489D01*
X45692468Y-89061329D01*
X45728400Y-88880689D01*
X45728400Y-88696511D01*
X45692468Y-88515871D01*
X45621986Y-88345711D01*
X45519662Y-88192572D01*
X45515690Y-88188600D01*
X45519662Y-88184628D01*
X45621986Y-88031489D01*
X45692468Y-87861329D01*
X45728400Y-87680689D01*
X45728400Y-87496511D01*
X45692468Y-87315871D01*
X45621986Y-87145711D01*
X45519662Y-86992572D01*
X45465690Y-86938600D01*
X45519662Y-86884628D01*
X45528326Y-86871661D01*
X52361000Y-86871661D01*
X52361000Y-87075539D01*
X52400774Y-87275498D01*
X52478795Y-87463856D01*
X52592063Y-87633374D01*
X52736226Y-87777537D01*
X52905744Y-87890805D01*
X53094102Y-87968826D01*
X53294061Y-88008600D01*
X53497939Y-88008600D01*
X53697898Y-87968826D01*
X53886256Y-87890805D01*
X54055774Y-87777537D01*
X54199937Y-87633374D01*
X54313205Y-87463856D01*
X54391226Y-87275498D01*
X54431000Y-87075539D01*
X54431000Y-86871661D01*
X54391226Y-86671702D01*
X54313205Y-86483344D01*
X54199937Y-86313826D01*
X54055774Y-86169663D01*
X53886256Y-86056395D01*
X53697898Y-85978374D01*
X53497939Y-85938600D01*
X53294061Y-85938600D01*
X53094102Y-85978374D01*
X52905744Y-86056395D01*
X52736226Y-86169663D01*
X52592063Y-86313826D01*
X52478795Y-86483344D01*
X52400774Y-86671702D01*
X52361000Y-86871661D01*
X45528326Y-86871661D01*
X45621986Y-86731489D01*
X45692468Y-86561329D01*
X45728400Y-86380689D01*
X45728400Y-86196511D01*
X45692468Y-86015871D01*
X45621986Y-85845711D01*
X45550417Y-85738600D01*
X45621986Y-85631489D01*
X45692468Y-85461329D01*
X45728400Y-85280689D01*
X45728400Y-85096511D01*
X45692468Y-84915871D01*
X45621986Y-84745711D01*
X45519662Y-84592572D01*
X45389428Y-84462338D01*
X45236289Y-84360014D01*
X45066129Y-84289532D01*
X44885489Y-84253600D01*
X44701311Y-84253600D01*
X44520671Y-84289532D01*
X44350511Y-84360014D01*
X44197372Y-84462338D01*
X44193400Y-84466310D01*
X44189428Y-84462338D01*
X44036289Y-84360014D01*
X43866129Y-84289532D01*
X43685489Y-84253600D01*
X43501311Y-84253600D01*
X43320671Y-84289532D01*
X43150511Y-84360014D01*
X42997372Y-84462338D01*
X42867138Y-84592572D01*
X42764814Y-84745711D01*
X42694332Y-84915871D01*
X42658400Y-85096511D01*
X36479052Y-85096511D01*
X36367882Y-85062788D01*
X36243400Y-85050528D01*
X35729150Y-85053600D01*
X35570400Y-85212350D01*
X35316400Y-85212350D01*
X35157650Y-85053600D01*
X34643400Y-85050528D01*
X34518918Y-85062788D01*
X34399220Y-85099098D01*
X34288906Y-85158063D01*
X34192215Y-85237415D01*
X34112863Y-85334106D01*
X34053898Y-85444420D01*
X34017588Y-85564118D01*
X34005328Y-85688600D01*
X32703400Y-85688600D01*
X32703400Y-82438600D01*
X33744164Y-82438600D01*
X33769052Y-82691288D01*
X33842758Y-82934265D01*
X33962451Y-83158195D01*
X34123530Y-83354470D01*
X34319805Y-83515549D01*
X34543735Y-83635242D01*
X34786712Y-83708948D01*
X34976086Y-83727600D01*
X36410714Y-83727600D01*
X36600088Y-83708948D01*
X36843065Y-83635242D01*
X36944529Y-83581008D01*
X54496400Y-83581008D01*
X54496400Y-83856192D01*
X54550086Y-84126090D01*
X54655395Y-84380327D01*
X54808280Y-84609135D01*
X55002865Y-84803720D01*
X55231673Y-84956605D01*
X55485910Y-85061914D01*
X55755808Y-85115600D01*
X56030992Y-85115600D01*
X56300890Y-85061914D01*
X56555127Y-84956605D01*
X56783935Y-84803720D01*
X56978520Y-84609135D01*
X57131405Y-84380327D01*
X57163400Y-84303085D01*
X57195395Y-84380327D01*
X57348280Y-84609135D01*
X57542865Y-84803720D01*
X57771673Y-84956605D01*
X58025910Y-85061914D01*
X58295808Y-85115600D01*
X58570992Y-85115600D01*
X58840890Y-85061914D01*
X59095127Y-84956605D01*
X59323935Y-84803720D01*
X59518520Y-84609135D01*
X59671405Y-84380327D01*
X59703400Y-84303085D01*
X59735395Y-84380327D01*
X59888280Y-84609135D01*
X60082865Y-84803720D01*
X60311673Y-84956605D01*
X60565910Y-85061914D01*
X60835808Y-85115600D01*
X61110992Y-85115600D01*
X61380890Y-85061914D01*
X61635127Y-84956605D01*
X61863935Y-84803720D01*
X62058520Y-84609135D01*
X62211405Y-84380327D01*
X62243400Y-84303085D01*
X62275395Y-84380327D01*
X62428280Y-84609135D01*
X62622865Y-84803720D01*
X62851673Y-84956605D01*
X63105910Y-85061914D01*
X63375808Y-85115600D01*
X63650992Y-85115600D01*
X63920890Y-85061914D01*
X64175127Y-84956605D01*
X64403935Y-84803720D01*
X64598520Y-84609135D01*
X64751405Y-84380327D01*
X64783400Y-84303085D01*
X64815395Y-84380327D01*
X64968280Y-84609135D01*
X65162865Y-84803720D01*
X65391673Y-84956605D01*
X65645910Y-85061914D01*
X65915808Y-85115600D01*
X66190992Y-85115600D01*
X66460890Y-85061914D01*
X66715127Y-84956605D01*
X66943935Y-84803720D01*
X67138520Y-84609135D01*
X67291405Y-84380327D01*
X67323400Y-84303085D01*
X67355395Y-84380327D01*
X67508280Y-84609135D01*
X67702865Y-84803720D01*
X67931673Y-84956605D01*
X68185910Y-85061914D01*
X68455808Y-85115600D01*
X68730992Y-85115600D01*
X69000890Y-85061914D01*
X69255127Y-84956605D01*
X69483935Y-84803720D01*
X69678520Y-84609135D01*
X69831405Y-84380327D01*
X69863400Y-84303085D01*
X69895395Y-84380327D01*
X70048280Y-84609135D01*
X70242865Y-84803720D01*
X70471673Y-84956605D01*
X70725910Y-85061914D01*
X70995808Y-85115600D01*
X71270992Y-85115600D01*
X71540890Y-85061914D01*
X71795127Y-84956605D01*
X72023935Y-84803720D01*
X72218520Y-84609135D01*
X72371405Y-84380327D01*
X72403400Y-84303085D01*
X72435395Y-84380327D01*
X72588280Y-84609135D01*
X72782865Y-84803720D01*
X73011673Y-84956605D01*
X73265910Y-85061914D01*
X73535808Y-85115600D01*
X73810992Y-85115600D01*
X74080890Y-85061914D01*
X74335127Y-84956605D01*
X74563935Y-84803720D01*
X74758520Y-84609135D01*
X74911405Y-84380327D01*
X75016714Y-84126090D01*
X75070400Y-83856192D01*
X75070400Y-83581008D01*
X75051976Y-83488381D01*
X91477000Y-83488381D01*
X91477000Y-83692259D01*
X91516774Y-83892218D01*
X91594795Y-84080576D01*
X91708063Y-84250094D01*
X91852226Y-84394257D01*
X92021744Y-84507525D01*
X92210102Y-84585546D01*
X92410061Y-84625320D01*
X92613939Y-84625320D01*
X92813898Y-84585546D01*
X93002256Y-84507525D01*
X93107656Y-84437099D01*
X93235864Y-84522765D01*
X93424222Y-84600786D01*
X93624181Y-84640560D01*
X93828059Y-84640560D01*
X94028018Y-84600786D01*
X94216376Y-84522765D01*
X94385894Y-84409497D01*
X94530057Y-84265334D01*
X94643325Y-84095816D01*
X94721346Y-83907458D01*
X94751882Y-83753940D01*
X96843600Y-83753940D01*
X96843600Y-84046460D01*
X96900668Y-84333358D01*
X97012610Y-84603611D01*
X97175125Y-84846832D01*
X97381968Y-85053675D01*
X97556360Y-85170200D01*
X97381968Y-85286725D01*
X97175125Y-85493568D01*
X97012610Y-85736789D01*
X96900668Y-86007042D01*
X96843600Y-86293940D01*
X96843600Y-86586460D01*
X96900668Y-86873358D01*
X97012610Y-87143611D01*
X97175125Y-87386832D01*
X97381968Y-87593675D01*
X97625189Y-87756190D01*
X97895442Y-87868132D01*
X98182340Y-87925200D01*
X98474860Y-87925200D01*
X98761758Y-87868132D01*
X99032011Y-87756190D01*
X99275232Y-87593675D01*
X99482075Y-87386832D01*
X99598600Y-87212440D01*
X99715125Y-87386832D01*
X99921968Y-87593675D01*
X100165189Y-87756190D01*
X100435442Y-87868132D01*
X100722340Y-87925200D01*
X101014860Y-87925200D01*
X101301758Y-87868132D01*
X101572011Y-87756190D01*
X101815232Y-87593675D01*
X102022075Y-87386832D01*
X102138600Y-87212440D01*
X102255125Y-87386832D01*
X102461968Y-87593675D01*
X102705189Y-87756190D01*
X102975442Y-87868132D01*
X103262340Y-87925200D01*
X103554860Y-87925200D01*
X103841758Y-87868132D01*
X104112011Y-87756190D01*
X104355232Y-87593675D01*
X104562075Y-87386832D01*
X104724590Y-87143611D01*
X104836532Y-86873358D01*
X104872236Y-86693861D01*
X117537400Y-86693861D01*
X117537400Y-86897739D01*
X117577174Y-87097698D01*
X117655195Y-87286056D01*
X117768463Y-87455574D01*
X117912626Y-87599737D01*
X118082144Y-87713005D01*
X118270502Y-87791026D01*
X118470461Y-87830800D01*
X118674339Y-87830800D01*
X118874298Y-87791026D01*
X119062656Y-87713005D01*
X119232174Y-87599737D01*
X119376337Y-87455574D01*
X119489605Y-87286056D01*
X119567626Y-87097698D01*
X119607400Y-86897739D01*
X119607400Y-86693861D01*
X119567626Y-86493902D01*
X119489605Y-86305544D01*
X119401288Y-86173367D01*
X119756800Y-86173367D01*
X119756800Y-86495433D01*
X119819632Y-86811312D01*
X119942882Y-87108863D01*
X120121813Y-87376652D01*
X120349548Y-87604387D01*
X120617337Y-87783318D01*
X120914888Y-87906568D01*
X121230767Y-87969400D01*
X121552833Y-87969400D01*
X121868712Y-87906568D01*
X122166263Y-87783318D01*
X122434052Y-87604387D01*
X122661787Y-87376652D01*
X122840718Y-87108863D01*
X122963968Y-86811312D01*
X123026800Y-86495433D01*
X123026800Y-86173367D01*
X126256800Y-86173367D01*
X126256800Y-86495433D01*
X126319632Y-86811312D01*
X126442882Y-87108863D01*
X126621813Y-87376652D01*
X126849548Y-87604387D01*
X127117337Y-87783318D01*
X127414888Y-87906568D01*
X127730767Y-87969400D01*
X128052833Y-87969400D01*
X128368712Y-87906568D01*
X128666263Y-87783318D01*
X128934052Y-87604387D01*
X129161787Y-87376652D01*
X129340718Y-87108863D01*
X129463968Y-86811312D01*
X129526800Y-86495433D01*
X129526800Y-86173367D01*
X129463968Y-85857488D01*
X129340718Y-85559937D01*
X129161787Y-85292148D01*
X128934052Y-85064413D01*
X128666263Y-84885482D01*
X128368712Y-84762232D01*
X128052833Y-84699400D01*
X127730767Y-84699400D01*
X127414888Y-84762232D01*
X127117337Y-84885482D01*
X126849548Y-85064413D01*
X126621813Y-85292148D01*
X126442882Y-85559937D01*
X126319632Y-85857488D01*
X126256800Y-86173367D01*
X123026800Y-86173367D01*
X122963968Y-85857488D01*
X122840718Y-85559937D01*
X122661787Y-85292148D01*
X122434052Y-85064413D01*
X122166263Y-84885482D01*
X121868712Y-84762232D01*
X121552833Y-84699400D01*
X121230767Y-84699400D01*
X120914888Y-84762232D01*
X120617337Y-84885482D01*
X120349548Y-85064413D01*
X120121813Y-85292148D01*
X119942882Y-85559937D01*
X119819632Y-85857488D01*
X119756800Y-86173367D01*
X119401288Y-86173367D01*
X119376337Y-86136026D01*
X119232174Y-85991863D01*
X119062656Y-85878595D01*
X118874298Y-85800574D01*
X118674339Y-85760800D01*
X118470461Y-85760800D01*
X118270502Y-85800574D01*
X118082144Y-85878595D01*
X117912626Y-85991863D01*
X117768463Y-86136026D01*
X117655195Y-86305544D01*
X117577174Y-86493902D01*
X117537400Y-86693861D01*
X104872236Y-86693861D01*
X104893600Y-86586460D01*
X104893600Y-86293940D01*
X104836532Y-86007042D01*
X104724590Y-85736789D01*
X104562075Y-85493568D01*
X104430220Y-85361713D01*
X104502780Y-85339702D01*
X104613094Y-85280737D01*
X104709785Y-85201385D01*
X104789137Y-85104694D01*
X104848102Y-84994380D01*
X104884412Y-84874682D01*
X104896672Y-84750200D01*
X104896672Y-83635701D01*
X112396440Y-83635701D01*
X112396440Y-83839579D01*
X112436214Y-84039538D01*
X112514235Y-84227896D01*
X112627503Y-84397414D01*
X112771666Y-84541577D01*
X112941184Y-84654845D01*
X113129542Y-84732866D01*
X113329501Y-84772640D01*
X113533379Y-84772640D01*
X113733338Y-84732866D01*
X113921696Y-84654845D01*
X114091214Y-84541577D01*
X114235377Y-84397414D01*
X114348645Y-84227896D01*
X114426666Y-84039538D01*
X114466440Y-83839579D01*
X114466440Y-83635701D01*
X114426666Y-83435742D01*
X114348645Y-83247384D01*
X114235377Y-83077866D01*
X114091214Y-82933703D01*
X113921696Y-82820435D01*
X113733338Y-82742414D01*
X113533379Y-82702640D01*
X113329501Y-82702640D01*
X113129542Y-82742414D01*
X112941184Y-82820435D01*
X112771666Y-82933703D01*
X112627503Y-83077866D01*
X112514235Y-83247384D01*
X112436214Y-83435742D01*
X112396440Y-83635701D01*
X104896672Y-83635701D01*
X104896672Y-83050200D01*
X104884412Y-82925718D01*
X104848102Y-82806020D01*
X104789137Y-82695706D01*
X104709785Y-82599015D01*
X104613094Y-82519663D01*
X104502780Y-82460698D01*
X104383082Y-82424388D01*
X104258600Y-82412128D01*
X102558600Y-82412128D01*
X102434118Y-82424388D01*
X102314420Y-82460698D01*
X102204106Y-82519663D01*
X102107415Y-82599015D01*
X102028063Y-82695706D01*
X101969098Y-82806020D01*
X101947087Y-82878580D01*
X101815232Y-82746725D01*
X101572011Y-82584210D01*
X101301758Y-82472268D01*
X101014860Y-82415200D01*
X100722340Y-82415200D01*
X100435442Y-82472268D01*
X100165189Y-82584210D01*
X99921968Y-82746725D01*
X99715125Y-82953568D01*
X99598600Y-83127960D01*
X99482075Y-82953568D01*
X99275232Y-82746725D01*
X99032011Y-82584210D01*
X98761758Y-82472268D01*
X98474860Y-82415200D01*
X98182340Y-82415200D01*
X97895442Y-82472268D01*
X97625189Y-82584210D01*
X97381968Y-82746725D01*
X97175125Y-82953568D01*
X97012610Y-83196789D01*
X96900668Y-83467042D01*
X96843600Y-83753940D01*
X94751882Y-83753940D01*
X94761120Y-83707499D01*
X94761120Y-83503621D01*
X94721346Y-83303662D01*
X94643325Y-83115304D01*
X94581953Y-83023453D01*
X94742972Y-82991425D01*
X94931330Y-82913404D01*
X95100848Y-82800136D01*
X95245011Y-82655973D01*
X95358279Y-82486455D01*
X95436300Y-82298097D01*
X95476074Y-82098138D01*
X95476074Y-81894260D01*
X95436300Y-81694301D01*
X95358279Y-81505943D01*
X95245011Y-81336425D01*
X95100848Y-81192262D01*
X95063430Y-81167260D01*
X97055700Y-81167260D01*
X97055700Y-81371138D01*
X97095474Y-81571097D01*
X97173495Y-81759455D01*
X97286763Y-81928973D01*
X97430926Y-82073136D01*
X97600444Y-82186404D01*
X97788802Y-82264425D01*
X97988761Y-82304199D01*
X98192639Y-82304199D01*
X98392598Y-82264425D01*
X98552813Y-82198061D01*
X117207200Y-82198061D01*
X117207200Y-82401939D01*
X117246974Y-82601898D01*
X117324995Y-82790256D01*
X117438263Y-82959774D01*
X117582426Y-83103937D01*
X117751944Y-83217205D01*
X117940302Y-83295226D01*
X118140261Y-83335000D01*
X118344139Y-83335000D01*
X118544098Y-83295226D01*
X118732456Y-83217205D01*
X118901974Y-83103937D01*
X119046137Y-82959774D01*
X119159405Y-82790256D01*
X119237426Y-82601898D01*
X119277200Y-82401939D01*
X119277200Y-82198061D01*
X119237426Y-81998102D01*
X119159405Y-81809744D01*
X119046137Y-81640226D01*
X118901974Y-81496063D01*
X118732456Y-81382795D01*
X118544098Y-81304774D01*
X118344139Y-81265000D01*
X118140261Y-81265000D01*
X117940302Y-81304774D01*
X117751944Y-81382795D01*
X117582426Y-81496063D01*
X117438263Y-81640226D01*
X117324995Y-81809744D01*
X117246974Y-81998102D01*
X117207200Y-82198061D01*
X98552813Y-82198061D01*
X98580956Y-82186404D01*
X98750474Y-82073136D01*
X98894637Y-81928973D01*
X99007905Y-81759455D01*
X99085926Y-81571097D01*
X99125700Y-81371138D01*
X99125700Y-81167260D01*
X99111838Y-81097567D01*
X119756800Y-81097567D01*
X119756800Y-81419633D01*
X119819632Y-81735512D01*
X119942882Y-82033063D01*
X120121813Y-82300852D01*
X120349548Y-82528587D01*
X120617337Y-82707518D01*
X120914888Y-82830768D01*
X121230767Y-82893600D01*
X121552833Y-82893600D01*
X121868712Y-82830768D01*
X122166263Y-82707518D01*
X122434052Y-82528587D01*
X122661787Y-82300852D01*
X122840718Y-82033063D01*
X122963968Y-81735512D01*
X123026800Y-81419633D01*
X123026800Y-81097567D01*
X126256800Y-81097567D01*
X126256800Y-81419633D01*
X126319632Y-81735512D01*
X126442882Y-82033063D01*
X126621813Y-82300852D01*
X126849548Y-82528587D01*
X127117337Y-82707518D01*
X127414888Y-82830768D01*
X127730767Y-82893600D01*
X128052833Y-82893600D01*
X128368712Y-82830768D01*
X128666263Y-82707518D01*
X128934052Y-82528587D01*
X129161787Y-82300852D01*
X129340718Y-82033063D01*
X129463968Y-81735512D01*
X129526800Y-81419633D01*
X129526800Y-81097567D01*
X129463968Y-80781688D01*
X129340718Y-80484137D01*
X129161787Y-80216348D01*
X128934052Y-79988613D01*
X128666263Y-79809682D01*
X128368712Y-79686432D01*
X128052833Y-79623600D01*
X127730767Y-79623600D01*
X127414888Y-79686432D01*
X127117337Y-79809682D01*
X126849548Y-79988613D01*
X126621813Y-80216348D01*
X126442882Y-80484137D01*
X126319632Y-80781688D01*
X126256800Y-81097567D01*
X123026800Y-81097567D01*
X122963968Y-80781688D01*
X122840718Y-80484137D01*
X122661787Y-80216348D01*
X122434052Y-79988613D01*
X122166263Y-79809682D01*
X121868712Y-79686432D01*
X121552833Y-79623600D01*
X121230767Y-79623600D01*
X120914888Y-79686432D01*
X120617337Y-79809682D01*
X120349548Y-79988613D01*
X120121813Y-80216348D01*
X119942882Y-80484137D01*
X119819632Y-80781688D01*
X119756800Y-81097567D01*
X99111838Y-81097567D01*
X99085926Y-80967301D01*
X99007905Y-80778943D01*
X98894637Y-80609425D01*
X98750474Y-80465262D01*
X98580956Y-80351994D01*
X98392598Y-80273973D01*
X98192639Y-80234199D01*
X97988761Y-80234199D01*
X97788802Y-80273973D01*
X97600444Y-80351994D01*
X97430926Y-80465262D01*
X97286763Y-80609425D01*
X97173495Y-80778943D01*
X97095474Y-80967301D01*
X97055700Y-81167260D01*
X95063430Y-81167260D01*
X94931330Y-81078994D01*
X94742972Y-81000973D01*
X94543013Y-80961199D01*
X94339135Y-80961199D01*
X94139176Y-81000973D01*
X93950818Y-81078994D01*
X93781300Y-81192262D01*
X93637137Y-81336425D01*
X93523869Y-81505943D01*
X93445848Y-81694301D01*
X93406074Y-81894260D01*
X93406074Y-82098138D01*
X93445848Y-82298097D01*
X93523869Y-82486455D01*
X93585241Y-82578306D01*
X93424222Y-82610334D01*
X93235864Y-82688355D01*
X93130464Y-82758781D01*
X93002256Y-82673115D01*
X92813898Y-82595094D01*
X92613939Y-82555320D01*
X92410061Y-82555320D01*
X92210102Y-82595094D01*
X92021744Y-82673115D01*
X91852226Y-82786383D01*
X91708063Y-82930546D01*
X91594795Y-83100064D01*
X91516774Y-83288422D01*
X91477000Y-83488381D01*
X75051976Y-83488381D01*
X75016714Y-83311110D01*
X74911405Y-83056873D01*
X74758520Y-82828065D01*
X74563935Y-82633480D01*
X74335127Y-82480595D01*
X74080890Y-82375286D01*
X73810992Y-82321600D01*
X73535808Y-82321600D01*
X73265910Y-82375286D01*
X73011673Y-82480595D01*
X72782865Y-82633480D01*
X72588280Y-82828065D01*
X72435395Y-83056873D01*
X72403400Y-83134115D01*
X72371405Y-83056873D01*
X72218520Y-82828065D01*
X72023935Y-82633480D01*
X71795127Y-82480595D01*
X71540890Y-82375286D01*
X71270992Y-82321600D01*
X70995808Y-82321600D01*
X70725910Y-82375286D01*
X70471673Y-82480595D01*
X70242865Y-82633480D01*
X70048280Y-82828065D01*
X69895395Y-83056873D01*
X69863400Y-83134115D01*
X69831405Y-83056873D01*
X69678520Y-82828065D01*
X69483935Y-82633480D01*
X69255127Y-82480595D01*
X69000890Y-82375286D01*
X68730992Y-82321600D01*
X68455808Y-82321600D01*
X68185910Y-82375286D01*
X67931673Y-82480595D01*
X67702865Y-82633480D01*
X67508280Y-82828065D01*
X67355395Y-83056873D01*
X67323400Y-83134115D01*
X67291405Y-83056873D01*
X67138520Y-82828065D01*
X66943935Y-82633480D01*
X66715127Y-82480595D01*
X66460890Y-82375286D01*
X66190992Y-82321600D01*
X65915808Y-82321600D01*
X65645910Y-82375286D01*
X65391673Y-82480595D01*
X65162865Y-82633480D01*
X64968280Y-82828065D01*
X64815395Y-83056873D01*
X64783400Y-83134115D01*
X64751405Y-83056873D01*
X64598520Y-82828065D01*
X64403935Y-82633480D01*
X64175127Y-82480595D01*
X63920890Y-82375286D01*
X63650992Y-82321600D01*
X63375808Y-82321600D01*
X63105910Y-82375286D01*
X62851673Y-82480595D01*
X62622865Y-82633480D01*
X62428280Y-82828065D01*
X62275395Y-83056873D01*
X62243400Y-83134115D01*
X62211405Y-83056873D01*
X62058520Y-82828065D01*
X61863935Y-82633480D01*
X61635127Y-82480595D01*
X61380890Y-82375286D01*
X61110992Y-82321600D01*
X60835808Y-82321600D01*
X60565910Y-82375286D01*
X60311673Y-82480595D01*
X60082865Y-82633480D01*
X59888280Y-82828065D01*
X59735395Y-83056873D01*
X59703400Y-83134115D01*
X59671405Y-83056873D01*
X59518520Y-82828065D01*
X59323935Y-82633480D01*
X59095127Y-82480595D01*
X58840890Y-82375286D01*
X58570992Y-82321600D01*
X58295808Y-82321600D01*
X58025910Y-82375286D01*
X57771673Y-82480595D01*
X57542865Y-82633480D01*
X57348280Y-82828065D01*
X57195395Y-83056873D01*
X57163400Y-83134115D01*
X57131405Y-83056873D01*
X56978520Y-82828065D01*
X56783935Y-82633480D01*
X56555127Y-82480595D01*
X56300890Y-82375286D01*
X56030992Y-82321600D01*
X55755808Y-82321600D01*
X55485910Y-82375286D01*
X55231673Y-82480595D01*
X55002865Y-82633480D01*
X54808280Y-82828065D01*
X54655395Y-83056873D01*
X54550086Y-83311110D01*
X54496400Y-83581008D01*
X36944529Y-83581008D01*
X37066995Y-83515549D01*
X37263270Y-83354470D01*
X37424349Y-83158195D01*
X37544042Y-82934265D01*
X37617748Y-82691288D01*
X37642636Y-82438600D01*
X37635358Y-82364699D01*
X41092332Y-82364699D01*
X41099917Y-82414546D01*
X41197077Y-82649133D01*
X41338136Y-82860258D01*
X41517673Y-83039807D01*
X41728788Y-83180880D01*
X41963369Y-83278056D01*
X42212400Y-83327600D01*
X42866400Y-83327600D01*
X42866400Y-82165600D01*
X43120400Y-82165600D01*
X43120400Y-83327600D01*
X43774400Y-83327600D01*
X44023431Y-83278056D01*
X44258012Y-83180880D01*
X44469127Y-83039807D01*
X44648664Y-82860258D01*
X44789723Y-82649133D01*
X44886883Y-82414546D01*
X44894468Y-82364699D01*
X44770492Y-82165600D01*
X43120400Y-82165600D01*
X42866400Y-82165600D01*
X41216308Y-82165600D01*
X41092332Y-82364699D01*
X37635358Y-82364699D01*
X37617748Y-82185912D01*
X37544042Y-81942935D01*
X37424349Y-81719005D01*
X37419012Y-81712501D01*
X41092332Y-81712501D01*
X41216308Y-81911600D01*
X42866400Y-81911600D01*
X42866400Y-80749600D01*
X43120400Y-80749600D01*
X43120400Y-81911600D01*
X44770492Y-81911600D01*
X44894468Y-81712501D01*
X44886883Y-81662654D01*
X44789723Y-81428067D01*
X44648664Y-81216942D01*
X44469127Y-81037393D01*
X44258012Y-80896320D01*
X44023431Y-80799144D01*
X43774400Y-80749600D01*
X43120400Y-80749600D01*
X42866400Y-80749600D01*
X42212400Y-80749600D01*
X41963369Y-80799144D01*
X41728788Y-80896320D01*
X41517673Y-81037393D01*
X41338136Y-81216942D01*
X41197077Y-81428067D01*
X41099917Y-81662654D01*
X41092332Y-81712501D01*
X37419012Y-81712501D01*
X37263270Y-81522730D01*
X37066995Y-81361651D01*
X36843065Y-81241958D01*
X36600088Y-81168252D01*
X36410714Y-81149600D01*
X34976086Y-81149600D01*
X34786712Y-81168252D01*
X34543735Y-81241958D01*
X34319805Y-81361651D01*
X34123530Y-81522730D01*
X33962451Y-81719005D01*
X33842758Y-81942935D01*
X33769052Y-82185912D01*
X33744164Y-82438600D01*
X32703400Y-82438600D01*
X32703400Y-77838600D01*
X35105086Y-77838600D01*
X35108401Y-77872257D01*
X35108400Y-79604953D01*
X35105086Y-79638600D01*
X35118312Y-79772883D01*
X35157481Y-79902006D01*
X35221088Y-80021007D01*
X35306689Y-80125311D01*
X35363359Y-80171819D01*
X35410993Y-80210912D01*
X35529994Y-80274519D01*
X35659117Y-80313688D01*
X35793400Y-80326914D01*
X35827047Y-80323600D01*
X37559753Y-80323600D01*
X37593400Y-80326914D01*
X37727683Y-80313688D01*
X37856806Y-80274519D01*
X37975807Y-80210912D01*
X38080111Y-80125311D01*
X38165712Y-80021007D01*
X38229319Y-79902006D01*
X38268488Y-79772883D01*
X38278400Y-79672247D01*
X38278400Y-79672246D01*
X38281714Y-79638600D01*
X38278400Y-79604953D01*
X38278400Y-78638600D01*
X41044164Y-78638600D01*
X41069052Y-78891288D01*
X41142758Y-79134265D01*
X41262451Y-79358195D01*
X41423530Y-79554470D01*
X41619805Y-79715549D01*
X41843735Y-79835242D01*
X42086712Y-79908948D01*
X42276086Y-79927600D01*
X43710714Y-79927600D01*
X43900088Y-79908948D01*
X44143065Y-79835242D01*
X44366995Y-79715549D01*
X44563270Y-79554470D01*
X44724349Y-79358195D01*
X44844042Y-79134265D01*
X44917748Y-78891288D01*
X44942636Y-78638600D01*
X44917748Y-78385912D01*
X44844042Y-78142935D01*
X44724349Y-77919005D01*
X44563270Y-77722730D01*
X44366995Y-77561651D01*
X44143065Y-77441958D01*
X43900088Y-77368252D01*
X43710714Y-77349600D01*
X42276086Y-77349600D01*
X42086712Y-77368252D01*
X41843735Y-77441958D01*
X41619805Y-77561651D01*
X41423530Y-77722730D01*
X41262451Y-77919005D01*
X41142758Y-78142935D01*
X41069052Y-78385912D01*
X41044164Y-78638600D01*
X38278400Y-78638600D01*
X38278400Y-77872247D01*
X38281714Y-77838600D01*
X38268488Y-77704317D01*
X38229319Y-77575194D01*
X38165712Y-77456193D01*
X38080111Y-77351889D01*
X37975807Y-77266288D01*
X37856806Y-77202681D01*
X37727683Y-77163512D01*
X37627047Y-77153600D01*
X37593400Y-77150286D01*
X37559753Y-77153600D01*
X35827047Y-77153600D01*
X35793400Y-77150286D01*
X35759753Y-77153600D01*
X35659117Y-77163512D01*
X35529994Y-77202681D01*
X35410993Y-77266288D01*
X35306689Y-77351889D01*
X35221088Y-77456193D01*
X35157481Y-77575194D01*
X35118312Y-77704317D01*
X35105086Y-77838600D01*
X32703400Y-77838600D01*
X32703400Y-75954741D01*
X82485400Y-75954741D01*
X82485400Y-76158619D01*
X82525174Y-76358578D01*
X82603195Y-76546936D01*
X82716463Y-76716454D01*
X82860626Y-76860617D01*
X83030144Y-76973885D01*
X83218502Y-77051906D01*
X83219452Y-77052095D01*
X83084146Y-77142503D01*
X82939983Y-77286666D01*
X82826715Y-77456184D01*
X82748694Y-77644542D01*
X82708920Y-77844501D01*
X82708920Y-78048379D01*
X82748694Y-78248338D01*
X82826715Y-78436696D01*
X82939983Y-78606214D01*
X83011729Y-78677960D01*
X82955223Y-78734466D01*
X82841955Y-78903984D01*
X82763934Y-79092342D01*
X82724160Y-79292301D01*
X82724160Y-79496179D01*
X82763934Y-79696138D01*
X82841955Y-79884496D01*
X82955223Y-80054014D01*
X82955849Y-80054640D01*
X82934903Y-80075586D01*
X82821635Y-80245104D01*
X82743614Y-80433462D01*
X82703840Y-80633421D01*
X82703840Y-80837299D01*
X82743614Y-81037258D01*
X82821635Y-81225616D01*
X82934903Y-81395134D01*
X83079066Y-81539297D01*
X83248584Y-81652565D01*
X83436942Y-81730586D01*
X83636901Y-81770360D01*
X83840779Y-81770360D01*
X84040738Y-81730586D01*
X84229096Y-81652565D01*
X84398614Y-81539297D01*
X84542777Y-81395134D01*
X84656045Y-81225616D01*
X84734066Y-81037258D01*
X84773840Y-80837299D01*
X84773840Y-80633421D01*
X84734066Y-80433462D01*
X84656045Y-80245104D01*
X84542777Y-80075586D01*
X84542151Y-80074960D01*
X84563097Y-80054014D01*
X84676365Y-79884496D01*
X84754386Y-79696138D01*
X84794160Y-79496179D01*
X84794160Y-79292301D01*
X84754386Y-79092342D01*
X84676365Y-78903984D01*
X84633734Y-78840181D01*
X87326640Y-78840181D01*
X87326640Y-79044059D01*
X87366414Y-79244018D01*
X87444435Y-79432376D01*
X87557703Y-79601894D01*
X87701866Y-79746057D01*
X87871384Y-79859325D01*
X88059742Y-79937346D01*
X88259701Y-79977120D01*
X88454400Y-79977120D01*
X88454400Y-80171819D01*
X88494174Y-80371778D01*
X88572195Y-80560136D01*
X88685463Y-80729654D01*
X88829626Y-80873817D01*
X88999144Y-80987085D01*
X89187502Y-81065106D01*
X89387461Y-81104880D01*
X89591339Y-81104880D01*
X89791298Y-81065106D01*
X89979656Y-80987085D01*
X90149174Y-80873817D01*
X90293337Y-80729654D01*
X90384529Y-80593175D01*
X90441864Y-80631485D01*
X90630222Y-80709506D01*
X90830181Y-80749280D01*
X91034059Y-80749280D01*
X91234018Y-80709506D01*
X91422376Y-80631485D01*
X91591894Y-80518217D01*
X91736057Y-80374054D01*
X91849325Y-80204536D01*
X91927346Y-80016178D01*
X91967120Y-79816219D01*
X91967120Y-79612341D01*
X91961662Y-79584902D01*
X92052107Y-79584902D01*
X92252066Y-79545128D01*
X92440424Y-79467107D01*
X92609942Y-79353839D01*
X92754105Y-79209676D01*
X92867373Y-79040158D01*
X92945394Y-78851800D01*
X92985168Y-78651841D01*
X92985168Y-78447963D01*
X92945394Y-78248004D01*
X92867373Y-78059646D01*
X92846158Y-78027895D01*
X92986944Y-78121965D01*
X93175302Y-78199986D01*
X93375261Y-78239760D01*
X93579139Y-78239760D01*
X93779098Y-78199986D01*
X93967456Y-78121965D01*
X94136974Y-78008697D01*
X94281137Y-77864534D01*
X94394405Y-77695016D01*
X94472426Y-77506658D01*
X94512200Y-77306699D01*
X94512200Y-77143461D01*
X109465280Y-77143461D01*
X109465280Y-77347339D01*
X109505054Y-77547298D01*
X109583075Y-77735656D01*
X109696343Y-77905174D01*
X109840506Y-78049337D01*
X110010024Y-78162605D01*
X110198382Y-78240626D01*
X110398341Y-78280400D01*
X110602219Y-78280400D01*
X110802178Y-78240626D01*
X110990536Y-78162605D01*
X111160054Y-78049337D01*
X111304217Y-77905174D01*
X111417485Y-77735656D01*
X111495506Y-77547298D01*
X111535280Y-77347339D01*
X111535280Y-77143461D01*
X111526186Y-77097741D01*
X114509720Y-77097741D01*
X114509720Y-77301619D01*
X114549494Y-77501578D01*
X114627515Y-77689936D01*
X114740783Y-77859454D01*
X114884946Y-78003617D01*
X115054464Y-78116885D01*
X115242822Y-78194906D01*
X115442781Y-78234680D01*
X115646659Y-78234680D01*
X115846618Y-78194906D01*
X116034976Y-78116885D01*
X116204494Y-78003617D01*
X116348657Y-77859454D01*
X116461925Y-77689936D01*
X116539946Y-77501578D01*
X116579720Y-77301619D01*
X116579720Y-77097741D01*
X116539946Y-76897782D01*
X116461925Y-76709424D01*
X116387185Y-76597567D01*
X119756800Y-76597567D01*
X119756800Y-76919633D01*
X119819632Y-77235512D01*
X119942882Y-77533063D01*
X120121813Y-77800852D01*
X120349548Y-78028587D01*
X120617337Y-78207518D01*
X120914888Y-78330768D01*
X121230767Y-78393600D01*
X121552833Y-78393600D01*
X121868712Y-78330768D01*
X122166263Y-78207518D01*
X122434052Y-78028587D01*
X122661787Y-77800852D01*
X122840718Y-77533063D01*
X122845880Y-77520600D01*
X126437720Y-77520600D01*
X126442882Y-77533063D01*
X126621813Y-77800852D01*
X126849548Y-78028587D01*
X127117337Y-78207518D01*
X127414888Y-78330768D01*
X127730767Y-78393600D01*
X128052833Y-78393600D01*
X128368712Y-78330768D01*
X128666263Y-78207518D01*
X128934052Y-78028587D01*
X129161787Y-77800852D01*
X129340718Y-77533063D01*
X129463968Y-77235512D01*
X129526800Y-76919633D01*
X129526800Y-76597567D01*
X129463968Y-76281688D01*
X129340718Y-75984137D01*
X129161787Y-75716348D01*
X128934052Y-75488613D01*
X128666263Y-75309682D01*
X128368712Y-75186432D01*
X128052833Y-75123600D01*
X127730767Y-75123600D01*
X127414888Y-75186432D01*
X127117337Y-75309682D01*
X126849548Y-75488613D01*
X126621813Y-75716348D01*
X126442882Y-75984137D01*
X126437720Y-75996600D01*
X122845880Y-75996600D01*
X122840718Y-75984137D01*
X122661787Y-75716348D01*
X122434052Y-75488613D01*
X122166263Y-75309682D01*
X121868712Y-75186432D01*
X121552833Y-75123600D01*
X121230767Y-75123600D01*
X120914888Y-75186432D01*
X120617337Y-75309682D01*
X120349548Y-75488613D01*
X120121813Y-75716348D01*
X119942882Y-75984137D01*
X119819632Y-76281688D01*
X119756800Y-76597567D01*
X116387185Y-76597567D01*
X116348657Y-76539906D01*
X116204494Y-76395743D01*
X116034976Y-76282475D01*
X115846618Y-76204454D01*
X115646659Y-76164680D01*
X115442781Y-76164680D01*
X115242822Y-76204454D01*
X115054464Y-76282475D01*
X114884946Y-76395743D01*
X114740783Y-76539906D01*
X114627515Y-76709424D01*
X114549494Y-76897782D01*
X114509720Y-77097741D01*
X111526186Y-77097741D01*
X111495506Y-76943502D01*
X111417485Y-76755144D01*
X111304217Y-76585626D01*
X111160054Y-76441463D01*
X110990536Y-76328195D01*
X110802178Y-76250174D01*
X110602219Y-76210400D01*
X110398341Y-76210400D01*
X110198382Y-76250174D01*
X110010024Y-76328195D01*
X109840506Y-76441463D01*
X109696343Y-76585626D01*
X109583075Y-76755144D01*
X109505054Y-76943502D01*
X109465280Y-77143461D01*
X94512200Y-77143461D01*
X94512200Y-77102821D01*
X94472426Y-76902862D01*
X94394405Y-76714504D01*
X94281137Y-76544986D01*
X94136974Y-76400823D01*
X93967456Y-76287555D01*
X93779098Y-76209534D01*
X93579139Y-76169760D01*
X93375261Y-76169760D01*
X93175302Y-76209534D01*
X92986944Y-76287555D01*
X92817426Y-76400823D01*
X92673263Y-76544986D01*
X92559995Y-76714504D01*
X92481974Y-76902862D01*
X92442200Y-77102821D01*
X92442200Y-77306699D01*
X92481974Y-77506658D01*
X92559995Y-77695016D01*
X92581210Y-77726767D01*
X92440424Y-77632697D01*
X92252066Y-77554676D01*
X92052107Y-77514902D01*
X91848229Y-77514902D01*
X91648270Y-77554676D01*
X91459912Y-77632697D01*
X91290394Y-77745965D01*
X91146231Y-77890128D01*
X91032963Y-78059646D01*
X90954942Y-78248004D01*
X90915168Y-78447963D01*
X90915168Y-78651841D01*
X90920626Y-78679280D01*
X90830181Y-78679280D01*
X90630222Y-78719054D01*
X90441864Y-78797075D01*
X90272346Y-78910343D01*
X90128183Y-79054506D01*
X90036991Y-79190985D01*
X89979656Y-79152675D01*
X89791298Y-79074654D01*
X89591339Y-79034880D01*
X89396640Y-79034880D01*
X89396640Y-78840181D01*
X89356866Y-78640222D01*
X89278845Y-78451864D01*
X89165577Y-78282346D01*
X89021414Y-78138183D01*
X88851896Y-78024915D01*
X88663538Y-77946894D01*
X88463579Y-77907120D01*
X88259701Y-77907120D01*
X88059742Y-77946894D01*
X87871384Y-78024915D01*
X87701866Y-78138183D01*
X87557703Y-78282346D01*
X87444435Y-78451864D01*
X87366414Y-78640222D01*
X87326640Y-78840181D01*
X84633734Y-78840181D01*
X84563097Y-78734466D01*
X84491351Y-78662720D01*
X84547857Y-78606214D01*
X84661125Y-78436696D01*
X84739146Y-78248338D01*
X84778920Y-78048379D01*
X84778920Y-77844501D01*
X84739146Y-77644542D01*
X84661125Y-77456184D01*
X84547857Y-77286666D01*
X84403694Y-77142503D01*
X84234176Y-77029235D01*
X84045818Y-76951214D01*
X84044868Y-76951025D01*
X84180174Y-76860617D01*
X84324337Y-76716454D01*
X84437605Y-76546936D01*
X84515626Y-76358578D01*
X84555400Y-76158619D01*
X84555400Y-75954741D01*
X84515626Y-75754782D01*
X84437605Y-75566424D01*
X84324337Y-75396906D01*
X84282732Y-75355301D01*
X87768600Y-75355301D01*
X87768600Y-75559179D01*
X87808374Y-75759138D01*
X87886395Y-75947496D01*
X87999663Y-76117014D01*
X88069146Y-76186497D01*
X87991254Y-76374542D01*
X87951480Y-76574501D01*
X87951480Y-76778379D01*
X87991254Y-76978338D01*
X88069275Y-77166696D01*
X88182543Y-77336214D01*
X88326706Y-77480377D01*
X88496224Y-77593645D01*
X88684582Y-77671666D01*
X88884541Y-77711440D01*
X89088419Y-77711440D01*
X89288378Y-77671666D01*
X89476736Y-77593645D01*
X89646254Y-77480377D01*
X89790417Y-77336214D01*
X89903685Y-77166696D01*
X89981706Y-76978338D01*
X90021480Y-76778379D01*
X90021480Y-76574501D01*
X89981706Y-76374542D01*
X89903685Y-76186184D01*
X89790417Y-76016666D01*
X89720934Y-75947183D01*
X89798826Y-75759138D01*
X89803219Y-75737054D01*
X89804036Y-75736891D01*
X89992394Y-75658870D01*
X90161912Y-75545602D01*
X90306075Y-75401439D01*
X90419343Y-75231921D01*
X90497364Y-75043563D01*
X90537138Y-74843604D01*
X90537138Y-74639726D01*
X90497364Y-74439767D01*
X90419343Y-74251409D01*
X90306075Y-74081891D01*
X90161912Y-73937728D01*
X89992394Y-73824460D01*
X89804036Y-73746439D01*
X89604077Y-73706665D01*
X89400199Y-73706665D01*
X89200240Y-73746439D01*
X89011882Y-73824460D01*
X88842364Y-73937728D01*
X88698201Y-74081891D01*
X88584933Y-74251409D01*
X88506912Y-74439767D01*
X88502519Y-74461851D01*
X88501702Y-74462014D01*
X88313344Y-74540035D01*
X88143826Y-74653303D01*
X87999663Y-74797466D01*
X87886395Y-74966984D01*
X87808374Y-75155342D01*
X87768600Y-75355301D01*
X84282732Y-75355301D01*
X84180174Y-75252743D01*
X84010656Y-75139475D01*
X83822298Y-75061454D01*
X83622339Y-75021680D01*
X83418461Y-75021680D01*
X83218502Y-75061454D01*
X83030144Y-75139475D01*
X82860626Y-75252743D01*
X82716463Y-75396906D01*
X82603195Y-75566424D01*
X82525174Y-75754782D01*
X82485400Y-75954741D01*
X32703400Y-75954741D01*
X32703400Y-74755861D01*
X79589800Y-74755861D01*
X79589800Y-74959739D01*
X79629574Y-75159698D01*
X79707595Y-75348056D01*
X79820863Y-75517574D01*
X79965026Y-75661737D01*
X80134544Y-75775005D01*
X80322902Y-75853026D01*
X80522861Y-75892800D01*
X80726739Y-75892800D01*
X80926698Y-75853026D01*
X81115056Y-75775005D01*
X81284574Y-75661737D01*
X81428737Y-75517574D01*
X81542005Y-75348056D01*
X81620026Y-75159698D01*
X81659800Y-74959739D01*
X81659800Y-74755861D01*
X81620026Y-74555902D01*
X81542005Y-74367544D01*
X81428737Y-74198026D01*
X81284574Y-74053863D01*
X81115056Y-73940595D01*
X81103868Y-73935961D01*
X81140456Y-73920805D01*
X81309974Y-73807537D01*
X81454137Y-73663374D01*
X81567405Y-73493856D01*
X81645426Y-73305498D01*
X81685200Y-73105539D01*
X81685200Y-72901661D01*
X81645426Y-72701702D01*
X81567405Y-72513344D01*
X81454137Y-72343826D01*
X81309974Y-72199663D01*
X81140456Y-72086395D01*
X80952098Y-72008374D01*
X80752139Y-71968600D01*
X80548261Y-71968600D01*
X80348302Y-72008374D01*
X80159944Y-72086395D01*
X79990426Y-72199663D01*
X79846263Y-72343826D01*
X79732995Y-72513344D01*
X79654974Y-72701702D01*
X79615200Y-72901661D01*
X79615200Y-73105539D01*
X79654974Y-73305498D01*
X79732995Y-73493856D01*
X79846263Y-73663374D01*
X79990426Y-73807537D01*
X80159944Y-73920805D01*
X80171132Y-73925439D01*
X80134544Y-73940595D01*
X79965026Y-74053863D01*
X79820863Y-74198026D01*
X79707595Y-74367544D01*
X79629574Y-74555902D01*
X79589800Y-74755861D01*
X32703400Y-74755861D01*
X32703400Y-72538600D01*
X33744164Y-72538600D01*
X33769052Y-72791288D01*
X33842758Y-73034265D01*
X33962451Y-73258195D01*
X34123530Y-73454470D01*
X34319805Y-73615549D01*
X34543735Y-73735242D01*
X34786712Y-73808948D01*
X34976086Y-73827600D01*
X36410714Y-73827600D01*
X36600088Y-73808948D01*
X36843065Y-73735242D01*
X37066995Y-73615549D01*
X37263270Y-73454470D01*
X37276294Y-73438600D01*
X41044164Y-73438600D01*
X41069052Y-73691288D01*
X41142758Y-73934265D01*
X41262451Y-74158195D01*
X41423530Y-74354470D01*
X41619805Y-74515549D01*
X41843735Y-74635242D01*
X42086712Y-74708948D01*
X42276086Y-74727600D01*
X43710714Y-74727600D01*
X43900088Y-74708948D01*
X44143065Y-74635242D01*
X44366995Y-74515549D01*
X44563270Y-74354470D01*
X44724349Y-74158195D01*
X44844042Y-73934265D01*
X44917748Y-73691288D01*
X44942636Y-73438600D01*
X44917748Y-73185912D01*
X44844042Y-72942935D01*
X44724349Y-72719005D01*
X44563270Y-72522730D01*
X44366995Y-72361651D01*
X44143065Y-72241958D01*
X43900088Y-72168252D01*
X43710714Y-72149600D01*
X42276086Y-72149600D01*
X42086712Y-72168252D01*
X41843735Y-72241958D01*
X41619805Y-72361651D01*
X41423530Y-72522730D01*
X41262451Y-72719005D01*
X41142758Y-72942935D01*
X41069052Y-73185912D01*
X41044164Y-73438600D01*
X37276294Y-73438600D01*
X37424349Y-73258195D01*
X37544042Y-73034265D01*
X37617748Y-72791288D01*
X37642636Y-72538600D01*
X37617748Y-72285912D01*
X37544042Y-72042935D01*
X37512629Y-71984165D01*
X55107440Y-71984165D01*
X55174420Y-72224256D01*
X55423448Y-72341356D01*
X55690535Y-72407623D01*
X55965417Y-72420510D01*
X56237533Y-72379522D01*
X56496423Y-72286236D01*
X56612380Y-72224256D01*
X56679360Y-71984165D01*
X55893400Y-71198205D01*
X55107440Y-71984165D01*
X37512629Y-71984165D01*
X37424349Y-71819005D01*
X37263270Y-71622730D01*
X37066995Y-71461651D01*
X36843065Y-71341958D01*
X36600088Y-71268252D01*
X36410714Y-71249600D01*
X34976086Y-71249600D01*
X34786712Y-71268252D01*
X34543735Y-71341958D01*
X34319805Y-71461651D01*
X34123530Y-71622730D01*
X33962451Y-71819005D01*
X33842758Y-72042935D01*
X33769052Y-72285912D01*
X33744164Y-72538600D01*
X32703400Y-72538600D01*
X32703400Y-71090617D01*
X54491490Y-71090617D01*
X54532478Y-71362733D01*
X54625764Y-71621623D01*
X54687744Y-71737580D01*
X54927835Y-71804560D01*
X55713795Y-71018600D01*
X56073005Y-71018600D01*
X56858965Y-71804560D01*
X57033328Y-71755917D01*
X57033328Y-71780600D01*
X57045588Y-71905082D01*
X57081898Y-72024780D01*
X57140863Y-72135094D01*
X57220215Y-72231785D01*
X57316906Y-72311137D01*
X57427220Y-72370102D01*
X57546918Y-72406412D01*
X57671400Y-72418672D01*
X59195400Y-72418672D01*
X59319882Y-72406412D01*
X59439580Y-72370102D01*
X59549894Y-72311137D01*
X59646585Y-72231785D01*
X59725937Y-72135094D01*
X59784902Y-72024780D01*
X59821212Y-71905082D01*
X59829480Y-71821135D01*
X59888280Y-71909135D01*
X60082865Y-72103720D01*
X60311673Y-72256605D01*
X60565910Y-72361914D01*
X60835808Y-72415600D01*
X61110992Y-72415600D01*
X61380890Y-72361914D01*
X61635127Y-72256605D01*
X61863935Y-72103720D01*
X62058520Y-71909135D01*
X62211405Y-71680327D01*
X62243400Y-71603085D01*
X62275395Y-71680327D01*
X62428280Y-71909135D01*
X62622865Y-72103720D01*
X62851673Y-72256605D01*
X63105910Y-72361914D01*
X63375808Y-72415600D01*
X63650992Y-72415600D01*
X63920890Y-72361914D01*
X64175127Y-72256605D01*
X64403935Y-72103720D01*
X64598520Y-71909135D01*
X64751405Y-71680327D01*
X64783400Y-71603085D01*
X64815395Y-71680327D01*
X64968280Y-71909135D01*
X65162865Y-72103720D01*
X65391673Y-72256605D01*
X65645910Y-72361914D01*
X65915808Y-72415600D01*
X66190992Y-72415600D01*
X66460890Y-72361914D01*
X66715127Y-72256605D01*
X66943935Y-72103720D01*
X67138520Y-71909135D01*
X67291405Y-71680327D01*
X67323400Y-71603085D01*
X67355395Y-71680327D01*
X67508280Y-71909135D01*
X67702865Y-72103720D01*
X67931673Y-72256605D01*
X68185910Y-72361914D01*
X68455808Y-72415600D01*
X68730992Y-72415600D01*
X69000890Y-72361914D01*
X69255127Y-72256605D01*
X69483935Y-72103720D01*
X69678520Y-71909135D01*
X69831405Y-71680327D01*
X69863400Y-71603085D01*
X69895395Y-71680327D01*
X70048280Y-71909135D01*
X70242865Y-72103720D01*
X70471673Y-72256605D01*
X70725910Y-72361914D01*
X70995808Y-72415600D01*
X71270992Y-72415600D01*
X71540890Y-72361914D01*
X71795127Y-72256605D01*
X72023935Y-72103720D01*
X72218520Y-71909135D01*
X72277320Y-71821135D01*
X72285588Y-71905082D01*
X72321898Y-72024780D01*
X72380863Y-72135094D01*
X72460215Y-72231785D01*
X72556906Y-72311137D01*
X72667220Y-72370102D01*
X72786918Y-72406412D01*
X72911400Y-72418672D01*
X74435400Y-72418672D01*
X74559882Y-72406412D01*
X74679580Y-72370102D01*
X74789894Y-72311137D01*
X74886585Y-72231785D01*
X74965937Y-72135094D01*
X75024902Y-72024780D01*
X75061212Y-71905082D01*
X75071630Y-71799301D01*
X82480320Y-71799301D01*
X82480320Y-72003179D01*
X82520094Y-72203138D01*
X82598115Y-72391496D01*
X82711383Y-72561014D01*
X82855546Y-72705177D01*
X83025064Y-72818445D01*
X83213422Y-72896466D01*
X83413381Y-72936240D01*
X83617259Y-72936240D01*
X83817218Y-72896466D01*
X84005576Y-72818445D01*
X84175094Y-72705177D01*
X84319257Y-72561014D01*
X84432525Y-72391496D01*
X84510546Y-72203138D01*
X84550320Y-72003179D01*
X84550320Y-71799301D01*
X84545268Y-71773901D01*
X92066280Y-71773901D01*
X92066280Y-71977779D01*
X92106054Y-72177738D01*
X92184075Y-72366096D01*
X92297343Y-72535614D01*
X92441506Y-72679777D01*
X92611024Y-72793045D01*
X92799382Y-72871066D01*
X92999341Y-72910840D01*
X93203219Y-72910840D01*
X93403178Y-72871066D01*
X93574597Y-72800061D01*
X112142440Y-72800061D01*
X112142440Y-73003939D01*
X112182214Y-73203898D01*
X112260235Y-73392256D01*
X112373503Y-73561774D01*
X112517666Y-73705937D01*
X112687184Y-73819205D01*
X112875542Y-73897226D01*
X113075501Y-73937000D01*
X113279379Y-73937000D01*
X113479338Y-73897226D01*
X113667696Y-73819205D01*
X113837214Y-73705937D01*
X113981377Y-73561774D01*
X114094645Y-73392256D01*
X114172666Y-73203898D01*
X114212440Y-73003939D01*
X114212440Y-72800061D01*
X114172666Y-72600102D01*
X114094645Y-72411744D01*
X113981377Y-72242226D01*
X113837214Y-72098063D01*
X113667696Y-71984795D01*
X113479338Y-71906774D01*
X113279379Y-71867000D01*
X113075501Y-71867000D01*
X112875542Y-71906774D01*
X112687184Y-71984795D01*
X112517666Y-72098063D01*
X112373503Y-72242226D01*
X112260235Y-72411744D01*
X112182214Y-72600102D01*
X112142440Y-72800061D01*
X93574597Y-72800061D01*
X93591536Y-72793045D01*
X93761054Y-72679777D01*
X93905217Y-72535614D01*
X94018485Y-72366096D01*
X94096506Y-72177738D01*
X94136280Y-71977779D01*
X94136280Y-71773901D01*
X94096506Y-71573942D01*
X94018485Y-71385584D01*
X93905217Y-71216066D01*
X93761054Y-71071903D01*
X93591536Y-70958635D01*
X93403178Y-70880614D01*
X93203219Y-70840840D01*
X92999341Y-70840840D01*
X92799382Y-70880614D01*
X92611024Y-70958635D01*
X92441506Y-71071903D01*
X92297343Y-71216066D01*
X92184075Y-71385584D01*
X92106054Y-71573942D01*
X92066280Y-71773901D01*
X84545268Y-71773901D01*
X84510546Y-71599342D01*
X84432525Y-71410984D01*
X84319257Y-71241466D01*
X84175094Y-71097303D01*
X84005576Y-70984035D01*
X83817218Y-70906014D01*
X83617259Y-70866240D01*
X83413381Y-70866240D01*
X83213422Y-70906014D01*
X83025064Y-70984035D01*
X82855546Y-71097303D01*
X82711383Y-71241466D01*
X82598115Y-71410984D01*
X82520094Y-71599342D01*
X82480320Y-71799301D01*
X75071630Y-71799301D01*
X75073472Y-71780600D01*
X75073472Y-70371821D01*
X78792240Y-70371821D01*
X78792240Y-70575699D01*
X78832014Y-70775658D01*
X78910035Y-70964016D01*
X79023303Y-71133534D01*
X79167466Y-71277697D01*
X79336984Y-71390965D01*
X79525342Y-71468986D01*
X79725301Y-71508760D01*
X79929179Y-71508760D01*
X80129138Y-71468986D01*
X80317496Y-71390965D01*
X80487014Y-71277697D01*
X80631177Y-71133534D01*
X80744445Y-70964016D01*
X80822466Y-70775658D01*
X80862240Y-70575699D01*
X80862240Y-70371821D01*
X84095760Y-70371821D01*
X84095760Y-70575699D01*
X84135534Y-70775658D01*
X84213555Y-70964016D01*
X84326823Y-71133534D01*
X84470986Y-71277697D01*
X84640504Y-71390965D01*
X84828862Y-71468986D01*
X85028821Y-71508760D01*
X85232699Y-71508760D01*
X85432658Y-71468986D01*
X85621016Y-71390965D01*
X85790534Y-71277697D01*
X85934697Y-71133534D01*
X86047965Y-70964016D01*
X86125986Y-70775658D01*
X86165760Y-70575699D01*
X86165760Y-70371821D01*
X86125986Y-70171862D01*
X86047965Y-69983504D01*
X85934697Y-69813986D01*
X85790534Y-69669823D01*
X85621016Y-69556555D01*
X85432658Y-69478534D01*
X85232699Y-69438760D01*
X85028821Y-69438760D01*
X84828862Y-69478534D01*
X84640504Y-69556555D01*
X84470986Y-69669823D01*
X84326823Y-69813986D01*
X84213555Y-69983504D01*
X84135534Y-70171862D01*
X84095760Y-70371821D01*
X80862240Y-70371821D01*
X80822466Y-70171862D01*
X80744445Y-69983504D01*
X80631177Y-69813986D01*
X80487014Y-69669823D01*
X80317496Y-69556555D01*
X80129138Y-69478534D01*
X79929179Y-69438760D01*
X79725301Y-69438760D01*
X79525342Y-69478534D01*
X79336984Y-69556555D01*
X79167466Y-69669823D01*
X79023303Y-69813986D01*
X78910035Y-69983504D01*
X78832014Y-70171862D01*
X78792240Y-70371821D01*
X75073472Y-70371821D01*
X75073472Y-70256600D01*
X75061212Y-70132118D01*
X75024902Y-70012420D01*
X74965937Y-69902106D01*
X74886585Y-69805415D01*
X74789894Y-69726063D01*
X74679580Y-69667098D01*
X74559882Y-69630788D01*
X74435400Y-69618528D01*
X72911400Y-69618528D01*
X72786918Y-69630788D01*
X72667220Y-69667098D01*
X72556906Y-69726063D01*
X72460215Y-69805415D01*
X72380863Y-69902106D01*
X72321898Y-70012420D01*
X72285588Y-70132118D01*
X72277320Y-70216065D01*
X72218520Y-70128065D01*
X72023935Y-69933480D01*
X71795127Y-69780595D01*
X71540890Y-69675286D01*
X71270992Y-69621600D01*
X71230984Y-69621600D01*
X71238033Y-69613011D01*
X71320583Y-69458571D01*
X71341683Y-69389011D01*
X71371416Y-69290996D01*
X71376842Y-69235903D01*
X71384280Y-69160387D01*
X71384280Y-69160381D01*
X71388580Y-69116721D01*
X71384280Y-69073061D01*
X71384280Y-67835600D01*
X99558328Y-67835600D01*
X99558328Y-69535600D01*
X99570588Y-69660082D01*
X99606898Y-69779780D01*
X99665863Y-69890094D01*
X99745215Y-69986785D01*
X99841906Y-70066137D01*
X99952220Y-70125102D01*
X100071918Y-70161412D01*
X100196400Y-70173672D01*
X101896400Y-70173672D01*
X102020882Y-70161412D01*
X102029292Y-70158861D01*
X101922435Y-70318784D01*
X101844414Y-70507142D01*
X101804640Y-70707101D01*
X101804640Y-70910979D01*
X101844414Y-71110938D01*
X101922435Y-71299296D01*
X102035703Y-71468814D01*
X102179866Y-71612977D01*
X102349384Y-71726245D01*
X102537742Y-71804266D01*
X102737701Y-71844040D01*
X102941579Y-71844040D01*
X103141538Y-71804266D01*
X103329896Y-71726245D01*
X103499414Y-71612977D01*
X103643577Y-71468814D01*
X103756845Y-71299296D01*
X103834866Y-71110938D01*
X103874640Y-70910979D01*
X103874640Y-70707101D01*
X103834866Y-70507142D01*
X103756845Y-70318784D01*
X103657832Y-70170600D01*
X103732660Y-70170600D01*
X104019558Y-70113532D01*
X104289811Y-70001590D01*
X104533032Y-69839075D01*
X104739875Y-69632232D01*
X104856400Y-69457840D01*
X104972925Y-69632232D01*
X105179768Y-69839075D01*
X105197630Y-69851010D01*
X105001542Y-69890014D01*
X104813184Y-69968035D01*
X104643666Y-70081303D01*
X104499503Y-70225466D01*
X104386235Y-70394984D01*
X104308214Y-70583342D01*
X104268440Y-70783301D01*
X104268440Y-70987179D01*
X104308214Y-71187138D01*
X104386235Y-71375496D01*
X104499503Y-71545014D01*
X104643666Y-71689177D01*
X104813184Y-71802445D01*
X105001542Y-71880466D01*
X105201501Y-71920240D01*
X105405379Y-71920240D01*
X105605338Y-71880466D01*
X105793696Y-71802445D01*
X105963214Y-71689177D01*
X106107377Y-71545014D01*
X106220645Y-71375496D01*
X106272353Y-71250661D01*
X108058120Y-71250661D01*
X108058120Y-71454539D01*
X108097894Y-71654498D01*
X108175915Y-71842856D01*
X108289183Y-72012374D01*
X108433346Y-72156537D01*
X108602864Y-72269805D01*
X108791222Y-72347826D01*
X108991181Y-72387600D01*
X109195059Y-72387600D01*
X109395018Y-72347826D01*
X109583376Y-72269805D01*
X109752894Y-72156537D01*
X109897057Y-72012374D01*
X110010325Y-71842856D01*
X110088346Y-71654498D01*
X110128120Y-71454539D01*
X110128120Y-71250661D01*
X110088346Y-71050702D01*
X110010325Y-70862344D01*
X109897057Y-70692826D01*
X109752894Y-70548663D01*
X109583376Y-70435395D01*
X109395018Y-70357374D01*
X109195059Y-70317600D01*
X108991181Y-70317600D01*
X108791222Y-70357374D01*
X108602864Y-70435395D01*
X108433346Y-70548663D01*
X108289183Y-70692826D01*
X108175915Y-70862344D01*
X108097894Y-71050702D01*
X108058120Y-71250661D01*
X106272353Y-71250661D01*
X106298666Y-71187138D01*
X106338440Y-70987179D01*
X106338440Y-70783301D01*
X106298666Y-70583342D01*
X106220645Y-70394984D01*
X106107377Y-70225466D01*
X106065772Y-70183861D01*
X115800040Y-70183861D01*
X115800040Y-70387739D01*
X115839814Y-70587698D01*
X115917835Y-70776056D01*
X116031103Y-70945574D01*
X116175266Y-71089737D01*
X116344784Y-71203005D01*
X116533142Y-71281026D01*
X116733101Y-71320800D01*
X116936979Y-71320800D01*
X117110820Y-71286221D01*
X118380680Y-71286221D01*
X118380680Y-71490099D01*
X118420454Y-71690058D01*
X118498475Y-71878416D01*
X118611743Y-72047934D01*
X118755906Y-72192097D01*
X118925424Y-72305365D01*
X119113782Y-72383386D01*
X119313741Y-72423160D01*
X119517619Y-72423160D01*
X119717578Y-72383386D01*
X119905936Y-72305365D01*
X120075454Y-72192097D01*
X120124256Y-72143295D01*
X120349548Y-72368587D01*
X120617337Y-72547518D01*
X120914888Y-72670768D01*
X121230767Y-72733600D01*
X121552833Y-72733600D01*
X121868712Y-72670768D01*
X122166263Y-72547518D01*
X122434052Y-72368587D01*
X122661787Y-72140852D01*
X122840718Y-71873063D01*
X122963968Y-71575512D01*
X123026800Y-71259633D01*
X123026800Y-70937567D01*
X126256800Y-70937567D01*
X126256800Y-71259633D01*
X126319632Y-71575512D01*
X126442882Y-71873063D01*
X126621813Y-72140852D01*
X126849548Y-72368587D01*
X127117337Y-72547518D01*
X127414888Y-72670768D01*
X127730767Y-72733600D01*
X128052833Y-72733600D01*
X128368712Y-72670768D01*
X128666263Y-72547518D01*
X128934052Y-72368587D01*
X129161787Y-72140852D01*
X129340718Y-71873063D01*
X129463968Y-71575512D01*
X129526800Y-71259633D01*
X129526800Y-70937567D01*
X129463968Y-70621688D01*
X129340718Y-70324137D01*
X129161787Y-70056348D01*
X128934052Y-69828613D01*
X128666263Y-69649682D01*
X128368712Y-69526432D01*
X128052833Y-69463600D01*
X127730767Y-69463600D01*
X127414888Y-69526432D01*
X127117337Y-69649682D01*
X126849548Y-69828613D01*
X126621813Y-70056348D01*
X126442882Y-70324137D01*
X126319632Y-70621688D01*
X126256800Y-70937567D01*
X123026800Y-70937567D01*
X122963968Y-70621688D01*
X122840718Y-70324137D01*
X122661787Y-70056348D01*
X122434052Y-69828613D01*
X122166263Y-69649682D01*
X121868712Y-69526432D01*
X121552833Y-69463600D01*
X121230767Y-69463600D01*
X120914888Y-69526432D01*
X120617337Y-69649682D01*
X120349548Y-69828613D01*
X120121813Y-70056348D01*
X119942882Y-70324137D01*
X119885563Y-70462516D01*
X119717578Y-70392934D01*
X119517619Y-70353160D01*
X119313741Y-70353160D01*
X119113782Y-70392934D01*
X118925424Y-70470955D01*
X118755906Y-70584223D01*
X118611743Y-70728386D01*
X118498475Y-70897904D01*
X118420454Y-71086262D01*
X118380680Y-71286221D01*
X117110820Y-71286221D01*
X117136938Y-71281026D01*
X117325296Y-71203005D01*
X117494814Y-71089737D01*
X117638977Y-70945574D01*
X117752245Y-70776056D01*
X117830266Y-70587698D01*
X117870040Y-70387739D01*
X117870040Y-70183861D01*
X117830266Y-69983902D01*
X117752245Y-69795544D01*
X117638977Y-69626026D01*
X117494814Y-69481863D01*
X117325296Y-69368595D01*
X117136938Y-69290574D01*
X116936979Y-69250800D01*
X116733101Y-69250800D01*
X116533142Y-69290574D01*
X116344784Y-69368595D01*
X116175266Y-69481863D01*
X116031103Y-69626026D01*
X115917835Y-69795544D01*
X115839814Y-69983902D01*
X115800040Y-70183861D01*
X106065772Y-70183861D01*
X106052511Y-70170600D01*
X106272660Y-70170600D01*
X106559558Y-70113532D01*
X106829811Y-70001590D01*
X107073032Y-69839075D01*
X107279875Y-69632232D01*
X107396400Y-69457840D01*
X107512925Y-69632232D01*
X107719768Y-69839075D01*
X107962989Y-70001590D01*
X108233242Y-70113532D01*
X108520140Y-70170600D01*
X108812660Y-70170600D01*
X109099558Y-70113532D01*
X109369811Y-70001590D01*
X109613032Y-69839075D01*
X109819875Y-69632232D01*
X109982390Y-69389011D01*
X110094332Y-69118758D01*
X110151400Y-68831860D01*
X110151400Y-68539340D01*
X110094332Y-68252442D01*
X109982390Y-67982189D01*
X109819875Y-67738968D01*
X109613032Y-67532125D01*
X109369811Y-67369610D01*
X109099558Y-67257668D01*
X108812660Y-67200600D01*
X108520140Y-67200600D01*
X108233242Y-67257668D01*
X107962989Y-67369610D01*
X107719768Y-67532125D01*
X107512925Y-67738968D01*
X107396400Y-67913360D01*
X107279875Y-67738968D01*
X107073032Y-67532125D01*
X106829811Y-67369610D01*
X106559558Y-67257668D01*
X106272660Y-67200600D01*
X105980140Y-67200600D01*
X105693242Y-67257668D01*
X105422989Y-67369610D01*
X105179768Y-67532125D01*
X104972925Y-67738968D01*
X104856400Y-67913360D01*
X104739875Y-67738968D01*
X104533032Y-67532125D01*
X104289811Y-67369610D01*
X104019558Y-67257668D01*
X103732660Y-67200600D01*
X103440140Y-67200600D01*
X103153242Y-67257668D01*
X102882989Y-67369610D01*
X102639768Y-67532125D01*
X102507913Y-67663980D01*
X102485902Y-67591420D01*
X102426937Y-67481106D01*
X102347585Y-67384415D01*
X102250894Y-67305063D01*
X102140580Y-67246098D01*
X102020882Y-67209788D01*
X101896400Y-67197528D01*
X100196400Y-67197528D01*
X100071918Y-67209788D01*
X99952220Y-67246098D01*
X99841906Y-67305063D01*
X99745215Y-67384415D01*
X99665863Y-67481106D01*
X99606898Y-67591420D01*
X99570588Y-67711118D01*
X99558328Y-67835600D01*
X71384280Y-67835600D01*
X71384280Y-65637261D01*
X100570200Y-65637261D01*
X100570200Y-65841139D01*
X100609974Y-66041098D01*
X100687995Y-66229456D01*
X100801263Y-66398974D01*
X100945426Y-66543137D01*
X101114944Y-66656405D01*
X101303302Y-66734426D01*
X101503261Y-66774200D01*
X101707139Y-66774200D01*
X101907098Y-66734426D01*
X102095456Y-66656405D01*
X102264974Y-66543137D01*
X102409137Y-66398974D01*
X102522405Y-66229456D01*
X102600426Y-66041098D01*
X102640200Y-65841139D01*
X102640200Y-65637261D01*
X107453600Y-65637261D01*
X107453600Y-65841139D01*
X107493374Y-66041098D01*
X107571395Y-66229456D01*
X107684663Y-66398974D01*
X107828826Y-66543137D01*
X107998344Y-66656405D01*
X108186702Y-66734426D01*
X108386661Y-66774200D01*
X108590539Y-66774200D01*
X108790498Y-66734426D01*
X108978856Y-66656405D01*
X109148374Y-66543137D01*
X109253944Y-66437567D01*
X119756800Y-66437567D01*
X119756800Y-66759633D01*
X119819632Y-67075512D01*
X119942882Y-67373063D01*
X120121813Y-67640852D01*
X120349548Y-67868587D01*
X120617337Y-68047518D01*
X120914888Y-68170768D01*
X121230767Y-68233600D01*
X121552833Y-68233600D01*
X121868712Y-68170768D01*
X122166263Y-68047518D01*
X122434052Y-67868587D01*
X122661787Y-67640852D01*
X122840718Y-67373063D01*
X122845880Y-67360600D01*
X126437720Y-67360600D01*
X126442882Y-67373063D01*
X126621813Y-67640852D01*
X126849548Y-67868587D01*
X127117337Y-68047518D01*
X127414888Y-68170768D01*
X127730767Y-68233600D01*
X128052833Y-68233600D01*
X128368712Y-68170768D01*
X128666263Y-68047518D01*
X128934052Y-67868587D01*
X129161787Y-67640852D01*
X129340718Y-67373063D01*
X129463968Y-67075512D01*
X129526800Y-66759633D01*
X129526800Y-66437567D01*
X129463968Y-66121688D01*
X129340718Y-65824137D01*
X129161787Y-65556348D01*
X128934052Y-65328613D01*
X128666263Y-65149682D01*
X128368712Y-65026432D01*
X128052833Y-64963600D01*
X127730767Y-64963600D01*
X127414888Y-65026432D01*
X127117337Y-65149682D01*
X126849548Y-65328613D01*
X126621813Y-65556348D01*
X126442882Y-65824137D01*
X126437720Y-65836600D01*
X122845880Y-65836600D01*
X122840718Y-65824137D01*
X122661787Y-65556348D01*
X122434052Y-65328613D01*
X122166263Y-65149682D01*
X121868712Y-65026432D01*
X121552833Y-64963600D01*
X121230767Y-64963600D01*
X120914888Y-65026432D01*
X120617337Y-65149682D01*
X120349548Y-65328613D01*
X120121813Y-65556348D01*
X119942882Y-65824137D01*
X119819632Y-66121688D01*
X119756800Y-66437567D01*
X109253944Y-66437567D01*
X109292537Y-66398974D01*
X109405805Y-66229456D01*
X109483826Y-66041098D01*
X109523600Y-65841139D01*
X109523600Y-65637261D01*
X109483826Y-65437302D01*
X109405805Y-65248944D01*
X109292537Y-65079426D01*
X109148374Y-64935263D01*
X108978856Y-64821995D01*
X108790498Y-64743974D01*
X108590539Y-64704200D01*
X108386661Y-64704200D01*
X108186702Y-64743974D01*
X107998344Y-64821995D01*
X107828826Y-64935263D01*
X107684663Y-65079426D01*
X107571395Y-65248944D01*
X107493374Y-65437302D01*
X107453600Y-65637261D01*
X102640200Y-65637261D01*
X102600426Y-65437302D01*
X102522405Y-65248944D01*
X102409137Y-65079426D01*
X102264974Y-64935263D01*
X102095456Y-64821995D01*
X101907098Y-64743974D01*
X101707139Y-64704200D01*
X101503261Y-64704200D01*
X101303302Y-64743974D01*
X101114944Y-64821995D01*
X100945426Y-64935263D01*
X100801263Y-65079426D01*
X100687995Y-65248944D01*
X100609974Y-65437302D01*
X100570200Y-65637261D01*
X71384280Y-65637261D01*
X71384280Y-63484740D01*
X72256400Y-63484740D01*
X72256400Y-63777260D01*
X72313468Y-64064158D01*
X72425410Y-64334411D01*
X72587925Y-64577632D01*
X72794768Y-64784475D01*
X73037989Y-64946990D01*
X73308242Y-65058932D01*
X73595140Y-65116000D01*
X73887660Y-65116000D01*
X74174558Y-65058932D01*
X74444811Y-64946990D01*
X74688032Y-64784475D01*
X74894875Y-64577632D01*
X75011400Y-64403240D01*
X75127925Y-64577632D01*
X75334768Y-64784475D01*
X75577989Y-64946990D01*
X75848242Y-65058932D01*
X76135140Y-65116000D01*
X76427660Y-65116000D01*
X76714558Y-65058932D01*
X76984811Y-64946990D01*
X77228032Y-64784475D01*
X77434875Y-64577632D01*
X77551400Y-64403240D01*
X77667925Y-64577632D01*
X77874768Y-64784475D01*
X78117989Y-64946990D01*
X78388242Y-65058932D01*
X78675140Y-65116000D01*
X78967660Y-65116000D01*
X79254558Y-65058932D01*
X79524811Y-64946990D01*
X79768032Y-64784475D01*
X79974875Y-64577632D01*
X80091400Y-64403240D01*
X80207925Y-64577632D01*
X80414768Y-64784475D01*
X80657989Y-64946990D01*
X80928242Y-65058932D01*
X81215140Y-65116000D01*
X81507660Y-65116000D01*
X81794558Y-65058932D01*
X82064811Y-64946990D01*
X82308032Y-64784475D01*
X82514875Y-64577632D01*
X82631400Y-64403240D01*
X82747925Y-64577632D01*
X82954768Y-64784475D01*
X83197989Y-64946990D01*
X83468242Y-65058932D01*
X83755140Y-65116000D01*
X84047660Y-65116000D01*
X84334558Y-65058932D01*
X84604811Y-64946990D01*
X84848032Y-64784475D01*
X84979887Y-64652620D01*
X85001898Y-64725180D01*
X85060863Y-64835494D01*
X85140215Y-64932185D01*
X85236906Y-65011537D01*
X85347220Y-65070502D01*
X85466918Y-65106812D01*
X85591400Y-65119072D01*
X87291400Y-65119072D01*
X87415882Y-65106812D01*
X87535580Y-65070502D01*
X87645894Y-65011537D01*
X87742585Y-64932185D01*
X87821937Y-64835494D01*
X87880902Y-64725180D01*
X87917212Y-64605482D01*
X87929472Y-64481000D01*
X87929472Y-63198861D01*
X93788400Y-63198861D01*
X93788400Y-63402739D01*
X93828174Y-63602698D01*
X93906195Y-63791056D01*
X94019463Y-63960574D01*
X94163626Y-64104737D01*
X94333144Y-64218005D01*
X94521502Y-64296026D01*
X94721461Y-64335800D01*
X94925339Y-64335800D01*
X95125298Y-64296026D01*
X95313656Y-64218005D01*
X95455211Y-64123421D01*
X97710160Y-64123421D01*
X97710160Y-64327299D01*
X97749934Y-64527258D01*
X97827955Y-64715616D01*
X97941223Y-64885134D01*
X98085386Y-65029297D01*
X98254904Y-65142565D01*
X98443262Y-65220586D01*
X98643221Y-65260360D01*
X98847099Y-65260360D01*
X99047058Y-65220586D01*
X99235416Y-65142565D01*
X99404934Y-65029297D01*
X99549097Y-64885134D01*
X99662365Y-64715616D01*
X99740386Y-64527258D01*
X99780160Y-64327299D01*
X99780160Y-64123421D01*
X99740386Y-63923462D01*
X99662365Y-63735104D01*
X99604175Y-63648016D01*
X99833340Y-63693600D01*
X100125860Y-63693600D01*
X100412758Y-63636532D01*
X100683011Y-63524590D01*
X100926232Y-63362075D01*
X101133075Y-63155232D01*
X101249600Y-62980840D01*
X101366125Y-63155232D01*
X101572968Y-63362075D01*
X101816189Y-63524590D01*
X102086442Y-63636532D01*
X102373340Y-63693600D01*
X102665860Y-63693600D01*
X102952758Y-63636532D01*
X103223011Y-63524590D01*
X103466232Y-63362075D01*
X103673075Y-63155232D01*
X103789600Y-62980840D01*
X103906125Y-63155232D01*
X104112968Y-63362075D01*
X104356189Y-63524590D01*
X104626442Y-63636532D01*
X104913340Y-63693600D01*
X105205860Y-63693600D01*
X105492758Y-63636532D01*
X105763011Y-63524590D01*
X106006232Y-63362075D01*
X106213075Y-63155232D01*
X106329600Y-62980840D01*
X106446125Y-63155232D01*
X106652968Y-63362075D01*
X106896189Y-63524590D01*
X107166442Y-63636532D01*
X107453340Y-63693600D01*
X107745860Y-63693600D01*
X108032758Y-63636532D01*
X108303011Y-63524590D01*
X108546232Y-63362075D01*
X108678087Y-63230220D01*
X108700098Y-63302780D01*
X108759063Y-63413094D01*
X108838415Y-63509785D01*
X108935106Y-63589137D01*
X109045420Y-63648102D01*
X109165118Y-63684412D01*
X109289600Y-63696672D01*
X110989600Y-63696672D01*
X111114082Y-63684412D01*
X111233780Y-63648102D01*
X111344094Y-63589137D01*
X111440785Y-63509785D01*
X111520137Y-63413094D01*
X111579102Y-63302780D01*
X111615412Y-63183082D01*
X111627672Y-63058600D01*
X111627672Y-61358600D01*
X111615412Y-61234118D01*
X111579102Y-61114420D01*
X111520137Y-61004106D01*
X111440785Y-60907415D01*
X111344094Y-60828063D01*
X111233780Y-60769098D01*
X111114082Y-60732788D01*
X110989600Y-60720528D01*
X109289600Y-60720528D01*
X109165118Y-60732788D01*
X109045420Y-60769098D01*
X108935106Y-60828063D01*
X108838415Y-60907415D01*
X108759063Y-61004106D01*
X108700098Y-61114420D01*
X108678087Y-61186980D01*
X108546232Y-61055125D01*
X108303011Y-60892610D01*
X108032758Y-60780668D01*
X107745860Y-60723600D01*
X107453340Y-60723600D01*
X107166442Y-60780668D01*
X106896189Y-60892610D01*
X106652968Y-61055125D01*
X106446125Y-61261968D01*
X106329600Y-61436360D01*
X106213075Y-61261968D01*
X106006232Y-61055125D01*
X105763011Y-60892610D01*
X105492758Y-60780668D01*
X105205860Y-60723600D01*
X104913340Y-60723600D01*
X104626442Y-60780668D01*
X104356189Y-60892610D01*
X104112968Y-61055125D01*
X103906125Y-61261968D01*
X103789600Y-61436360D01*
X103673075Y-61261968D01*
X103466232Y-61055125D01*
X103223011Y-60892610D01*
X102952758Y-60780668D01*
X102665860Y-60723600D01*
X102373340Y-60723600D01*
X102086442Y-60780668D01*
X101816189Y-60892610D01*
X101572968Y-61055125D01*
X101366125Y-61261968D01*
X101249600Y-61436360D01*
X101133075Y-61261968D01*
X100926232Y-61055125D01*
X100683011Y-60892610D01*
X100412758Y-60780668D01*
X100125860Y-60723600D01*
X99833340Y-60723600D01*
X99546442Y-60780668D01*
X99276189Y-60892610D01*
X99032968Y-61055125D01*
X98826125Y-61261968D01*
X98663610Y-61505189D01*
X98551668Y-61775442D01*
X98494600Y-62062340D01*
X98494600Y-62354860D01*
X98551668Y-62641758D01*
X98663610Y-62912011D01*
X98826125Y-63155232D01*
X98864767Y-63193874D01*
X98847099Y-63190360D01*
X98643221Y-63190360D01*
X98443262Y-63230134D01*
X98254904Y-63308155D01*
X98085386Y-63421423D01*
X97941223Y-63565586D01*
X97827955Y-63735104D01*
X97749934Y-63923462D01*
X97710160Y-64123421D01*
X95455211Y-64123421D01*
X95483174Y-64104737D01*
X95627337Y-63960574D01*
X95740605Y-63791056D01*
X95818626Y-63602698D01*
X95858400Y-63402739D01*
X95858400Y-63198861D01*
X95818626Y-62998902D01*
X95740605Y-62810544D01*
X95627337Y-62641026D01*
X95483174Y-62496863D01*
X95313656Y-62383595D01*
X95125298Y-62305574D01*
X94925339Y-62265800D01*
X94721461Y-62265800D01*
X94521502Y-62305574D01*
X94333144Y-62383595D01*
X94163626Y-62496863D01*
X94019463Y-62641026D01*
X93906195Y-62810544D01*
X93828174Y-62998902D01*
X93788400Y-63198861D01*
X87929472Y-63198861D01*
X87929472Y-62781000D01*
X87917212Y-62656518D01*
X87880902Y-62536820D01*
X87821937Y-62426506D01*
X87742585Y-62329815D01*
X87645894Y-62250463D01*
X87535580Y-62191498D01*
X87415882Y-62155188D01*
X87291400Y-62142928D01*
X85591400Y-62142928D01*
X85466918Y-62155188D01*
X85347220Y-62191498D01*
X85236906Y-62250463D01*
X85140215Y-62329815D01*
X85060863Y-62426506D01*
X85001898Y-62536820D01*
X84979887Y-62609380D01*
X84848032Y-62477525D01*
X84604811Y-62315010D01*
X84334558Y-62203068D01*
X84047660Y-62146000D01*
X83755140Y-62146000D01*
X83468242Y-62203068D01*
X83197989Y-62315010D01*
X82954768Y-62477525D01*
X82747925Y-62684368D01*
X82631400Y-62858760D01*
X82514875Y-62684368D01*
X82308032Y-62477525D01*
X82064811Y-62315010D01*
X81794558Y-62203068D01*
X81507660Y-62146000D01*
X81215140Y-62146000D01*
X80928242Y-62203068D01*
X80657989Y-62315010D01*
X80414768Y-62477525D01*
X80207925Y-62684368D01*
X80091400Y-62858760D01*
X79974875Y-62684368D01*
X79768032Y-62477525D01*
X79524811Y-62315010D01*
X79254558Y-62203068D01*
X78967660Y-62146000D01*
X78675140Y-62146000D01*
X78388242Y-62203068D01*
X78117989Y-62315010D01*
X77874768Y-62477525D01*
X77667925Y-62684368D01*
X77551400Y-62858760D01*
X77434875Y-62684368D01*
X77228032Y-62477525D01*
X76984811Y-62315010D01*
X76714558Y-62203068D01*
X76427660Y-62146000D01*
X76135140Y-62146000D01*
X75848242Y-62203068D01*
X75577989Y-62315010D01*
X75334768Y-62477525D01*
X75127925Y-62684368D01*
X75011400Y-62858760D01*
X74894875Y-62684368D01*
X74688032Y-62477525D01*
X74444811Y-62315010D01*
X74174558Y-62203068D01*
X73887660Y-62146000D01*
X73595140Y-62146000D01*
X73308242Y-62203068D01*
X73037989Y-62315010D01*
X72794768Y-62477525D01*
X72587925Y-62684368D01*
X72425410Y-62927589D01*
X72313468Y-63197842D01*
X72256400Y-63484740D01*
X71384280Y-63484740D01*
X71384280Y-62496100D01*
X71388580Y-62452440D01*
X71384280Y-62408780D01*
X71384280Y-62408773D01*
X71371416Y-62278166D01*
X71320583Y-62110589D01*
X71238033Y-61956149D01*
X71126939Y-61820781D01*
X71093021Y-61792945D01*
X70416137Y-61116061D01*
X91121400Y-61116061D01*
X91121400Y-61319939D01*
X91161174Y-61519898D01*
X91239195Y-61708256D01*
X91352463Y-61877774D01*
X91496626Y-62021937D01*
X91666144Y-62135205D01*
X91854502Y-62213226D01*
X92054461Y-62253000D01*
X92258339Y-62253000D01*
X92458298Y-62213226D01*
X92646656Y-62135205D01*
X92816174Y-62021937D01*
X92960337Y-61877774D01*
X93073605Y-61708256D01*
X93151626Y-61519898D01*
X93191400Y-61319939D01*
X93191400Y-61116061D01*
X93151626Y-60916102D01*
X93073605Y-60727744D01*
X92960337Y-60558226D01*
X92816174Y-60414063D01*
X92646656Y-60300795D01*
X92458298Y-60222774D01*
X92258339Y-60183000D01*
X92054461Y-60183000D01*
X91854502Y-60222774D01*
X91666144Y-60300795D01*
X91496626Y-60414063D01*
X91352463Y-60558226D01*
X91239195Y-60727744D01*
X91161174Y-60916102D01*
X91121400Y-61116061D01*
X70416137Y-61116061D01*
X70074493Y-60774418D01*
X69977390Y-60539989D01*
X69814875Y-60296768D01*
X69641838Y-60123731D01*
X123335200Y-60123731D01*
X123335200Y-60780669D01*
X123463362Y-61424984D01*
X123714761Y-62031915D01*
X124079736Y-62578139D01*
X124544261Y-63042664D01*
X125090485Y-63407639D01*
X125697416Y-63659038D01*
X126341731Y-63787200D01*
X126998669Y-63787200D01*
X127642984Y-63659038D01*
X128249915Y-63407639D01*
X128796139Y-63042664D01*
X129260664Y-62578139D01*
X129625639Y-62031915D01*
X129877038Y-61424984D01*
X130005200Y-60780669D01*
X130005200Y-60123731D01*
X129877038Y-59479416D01*
X129625639Y-58872485D01*
X129260664Y-58326261D01*
X128796139Y-57861736D01*
X128249915Y-57496761D01*
X127642984Y-57245362D01*
X126998669Y-57117200D01*
X126341731Y-57117200D01*
X125697416Y-57245362D01*
X125090485Y-57496761D01*
X124544261Y-57861736D01*
X124079736Y-58326261D01*
X123714761Y-58872485D01*
X123463362Y-59479416D01*
X123335200Y-60123731D01*
X69641838Y-60123731D01*
X69608032Y-60089925D01*
X69433640Y-59973400D01*
X69608032Y-59856875D01*
X69814875Y-59650032D01*
X69977390Y-59406811D01*
X70089332Y-59136558D01*
X70146400Y-58849660D01*
X70146400Y-58557140D01*
X70089332Y-58270242D01*
X69977390Y-57999989D01*
X69814875Y-57756768D01*
X69608032Y-57549925D01*
X69433640Y-57433400D01*
X69608032Y-57316875D01*
X69814875Y-57110032D01*
X69977390Y-56866811D01*
X70089332Y-56596558D01*
X70146400Y-56309660D01*
X70146400Y-56017140D01*
X70089332Y-55730242D01*
X69977390Y-55459989D01*
X69814875Y-55216768D01*
X69608032Y-55009925D01*
X69364811Y-54847410D01*
X69153012Y-54759680D01*
X94122728Y-54759680D01*
X94122728Y-56459680D01*
X94134988Y-56584162D01*
X94171298Y-56703860D01*
X94230263Y-56814174D01*
X94309615Y-56910865D01*
X94406306Y-56990217D01*
X94516620Y-57049182D01*
X94636318Y-57085492D01*
X94760800Y-57097752D01*
X96460800Y-57097752D01*
X96585282Y-57085492D01*
X96704980Y-57049182D01*
X96815294Y-56990217D01*
X96911985Y-56910865D01*
X96991337Y-56814174D01*
X97050302Y-56703860D01*
X97072313Y-56631300D01*
X97204168Y-56763155D01*
X97447389Y-56925670D01*
X97717642Y-57037612D01*
X98004540Y-57094680D01*
X98297060Y-57094680D01*
X98583958Y-57037612D01*
X98854211Y-56925670D01*
X99097432Y-56763155D01*
X99304275Y-56556312D01*
X99420800Y-56381920D01*
X99537325Y-56556312D01*
X99744168Y-56763155D01*
X99987389Y-56925670D01*
X100257642Y-57037612D01*
X100544540Y-57094680D01*
X100837060Y-57094680D01*
X101123958Y-57037612D01*
X101394211Y-56925670D01*
X101637432Y-56763155D01*
X101844275Y-56556312D01*
X101960800Y-56381920D01*
X102077325Y-56556312D01*
X102284168Y-56763155D01*
X102527389Y-56925670D01*
X102797642Y-57037612D01*
X103084540Y-57094680D01*
X103377060Y-57094680D01*
X103663958Y-57037612D01*
X103934211Y-56925670D01*
X104177432Y-56763155D01*
X104384275Y-56556312D01*
X104500800Y-56381920D01*
X104617325Y-56556312D01*
X104824168Y-56763155D01*
X105067389Y-56925670D01*
X105337642Y-57037612D01*
X105624540Y-57094680D01*
X105917060Y-57094680D01*
X106203958Y-57037612D01*
X106474211Y-56925670D01*
X106717432Y-56763155D01*
X106924275Y-56556312D01*
X107040800Y-56381920D01*
X107157325Y-56556312D01*
X107364168Y-56763155D01*
X107607389Y-56925670D01*
X107877642Y-57037612D01*
X108164540Y-57094680D01*
X108457060Y-57094680D01*
X108743958Y-57037612D01*
X109014211Y-56925670D01*
X109257432Y-56763155D01*
X109464275Y-56556312D01*
X109580800Y-56381920D01*
X109697325Y-56556312D01*
X109904168Y-56763155D01*
X110147389Y-56925670D01*
X110417642Y-57037612D01*
X110704540Y-57094680D01*
X110997060Y-57094680D01*
X111283958Y-57037612D01*
X111554211Y-56925670D01*
X111797432Y-56763155D01*
X112004275Y-56556312D01*
X112120800Y-56381920D01*
X112237325Y-56556312D01*
X112444168Y-56763155D01*
X112687389Y-56925670D01*
X112957642Y-57037612D01*
X113244540Y-57094680D01*
X113537060Y-57094680D01*
X113823958Y-57037612D01*
X114094211Y-56925670D01*
X114337432Y-56763155D01*
X114544275Y-56556312D01*
X114706790Y-56313091D01*
X114818732Y-56042838D01*
X114875800Y-55755940D01*
X114875800Y-55463420D01*
X114818732Y-55176522D01*
X114706790Y-54906269D01*
X114544275Y-54663048D01*
X114337432Y-54456205D01*
X114094211Y-54293690D01*
X113823958Y-54181748D01*
X113537060Y-54124680D01*
X113244540Y-54124680D01*
X112957642Y-54181748D01*
X112687389Y-54293690D01*
X112444168Y-54456205D01*
X112237325Y-54663048D01*
X112120800Y-54837440D01*
X112004275Y-54663048D01*
X111797432Y-54456205D01*
X111554211Y-54293690D01*
X111283958Y-54181748D01*
X110997060Y-54124680D01*
X110704540Y-54124680D01*
X110417642Y-54181748D01*
X110147389Y-54293690D01*
X109904168Y-54456205D01*
X109697325Y-54663048D01*
X109580800Y-54837440D01*
X109464275Y-54663048D01*
X109257432Y-54456205D01*
X109014211Y-54293690D01*
X108743958Y-54181748D01*
X108457060Y-54124680D01*
X108164540Y-54124680D01*
X107877642Y-54181748D01*
X107607389Y-54293690D01*
X107364168Y-54456205D01*
X107157325Y-54663048D01*
X107040800Y-54837440D01*
X106924275Y-54663048D01*
X106717432Y-54456205D01*
X106474211Y-54293690D01*
X106203958Y-54181748D01*
X105917060Y-54124680D01*
X105624540Y-54124680D01*
X105337642Y-54181748D01*
X105067389Y-54293690D01*
X104824168Y-54456205D01*
X104617325Y-54663048D01*
X104500800Y-54837440D01*
X104384275Y-54663048D01*
X104177432Y-54456205D01*
X103934211Y-54293690D01*
X103663958Y-54181748D01*
X103377060Y-54124680D01*
X103084540Y-54124680D01*
X102797642Y-54181748D01*
X102527389Y-54293690D01*
X102284168Y-54456205D01*
X102077325Y-54663048D01*
X101960800Y-54837440D01*
X101844275Y-54663048D01*
X101637432Y-54456205D01*
X101394211Y-54293690D01*
X101123958Y-54181748D01*
X100837060Y-54124680D01*
X100544540Y-54124680D01*
X100257642Y-54181748D01*
X99987389Y-54293690D01*
X99744168Y-54456205D01*
X99537325Y-54663048D01*
X99420800Y-54837440D01*
X99304275Y-54663048D01*
X99097432Y-54456205D01*
X98854211Y-54293690D01*
X98583958Y-54181748D01*
X98297060Y-54124680D01*
X98004540Y-54124680D01*
X97717642Y-54181748D01*
X97447389Y-54293690D01*
X97204168Y-54456205D01*
X97072313Y-54588060D01*
X97050302Y-54515500D01*
X96991337Y-54405186D01*
X96911985Y-54308495D01*
X96815294Y-54229143D01*
X96704980Y-54170178D01*
X96585282Y-54133868D01*
X96460800Y-54121608D01*
X94760800Y-54121608D01*
X94636318Y-54133868D01*
X94516620Y-54170178D01*
X94406306Y-54229143D01*
X94309615Y-54308495D01*
X94230263Y-54405186D01*
X94171298Y-54515500D01*
X94134988Y-54635198D01*
X94122728Y-54759680D01*
X69153012Y-54759680D01*
X69094558Y-54735468D01*
X68807660Y-54678400D01*
X68515140Y-54678400D01*
X68228242Y-54735468D01*
X67957989Y-54847410D01*
X67714768Y-55009925D01*
X67507925Y-55216768D01*
X67345410Y-55459989D01*
X67233468Y-55730242D01*
X67176400Y-56017140D01*
X67176400Y-56309660D01*
X67189923Y-56377642D01*
X63829320Y-59738245D01*
X63828400Y-59524350D01*
X63669650Y-59365600D01*
X62320400Y-59365600D01*
X62320400Y-60714850D01*
X62479150Y-60873600D01*
X63193400Y-60876672D01*
X63225121Y-60873548D01*
X63225120Y-67509644D01*
X61112804Y-69621960D01*
X61110992Y-69621600D01*
X60835808Y-69621600D01*
X60565910Y-69675286D01*
X60311673Y-69780595D01*
X60082865Y-69933480D01*
X59888280Y-70128065D01*
X59829480Y-70216065D01*
X59821212Y-70132118D01*
X59784902Y-70012420D01*
X59725937Y-69902106D01*
X59646585Y-69805415D01*
X59549894Y-69726063D01*
X59439580Y-69667098D01*
X59319882Y-69630788D01*
X59195400Y-69618528D01*
X57671400Y-69618528D01*
X57546918Y-69630788D01*
X57427220Y-69667098D01*
X57316906Y-69726063D01*
X57220215Y-69805415D01*
X57140863Y-69902106D01*
X57081898Y-70012420D01*
X57045588Y-70132118D01*
X57033328Y-70256600D01*
X57033328Y-70281283D01*
X56858965Y-70232640D01*
X56073005Y-71018600D01*
X55713795Y-71018600D01*
X54927835Y-70232640D01*
X54687744Y-70299620D01*
X54570644Y-70548648D01*
X54504377Y-70815735D01*
X54491490Y-71090617D01*
X32703400Y-71090617D01*
X32703400Y-70053035D01*
X55107440Y-70053035D01*
X55893400Y-70838995D01*
X56679360Y-70053035D01*
X56612380Y-69812944D01*
X56363352Y-69695844D01*
X56096265Y-69629577D01*
X55821383Y-69616690D01*
X55549267Y-69657678D01*
X55290377Y-69750964D01*
X55174420Y-69812944D01*
X55107440Y-70053035D01*
X32703400Y-70053035D01*
X32703400Y-60123731D01*
X34435200Y-60123731D01*
X34435200Y-60780669D01*
X34563362Y-61424984D01*
X34814761Y-62031915D01*
X35179736Y-62578139D01*
X35644261Y-63042664D01*
X36190485Y-63407639D01*
X36797416Y-63659038D01*
X37441731Y-63787200D01*
X38098669Y-63787200D01*
X38742984Y-63659038D01*
X39349915Y-63407639D01*
X39896139Y-63042664D01*
X40360664Y-62578139D01*
X40725639Y-62031915D01*
X40977038Y-61424984D01*
X41105200Y-60780669D01*
X41105200Y-60238600D01*
X44055328Y-60238600D01*
X44067588Y-60363082D01*
X44103898Y-60482780D01*
X44162863Y-60593094D01*
X44242215Y-60689785D01*
X44338906Y-60769137D01*
X44449220Y-60828102D01*
X44568918Y-60864412D01*
X44693400Y-60876672D01*
X45407650Y-60873600D01*
X45566400Y-60714850D01*
X45566400Y-59365600D01*
X45820400Y-59365600D01*
X45820400Y-60714850D01*
X45979150Y-60873600D01*
X46693400Y-60876672D01*
X46817882Y-60864412D01*
X46937580Y-60828102D01*
X47047894Y-60769137D01*
X47144585Y-60689785D01*
X47223937Y-60593094D01*
X47282902Y-60482780D01*
X47319212Y-60363082D01*
X47331472Y-60238600D01*
X47328400Y-59524350D01*
X47169650Y-59365600D01*
X45820400Y-59365600D01*
X45566400Y-59365600D01*
X44217150Y-59365600D01*
X44058400Y-59524350D01*
X44055328Y-60238600D01*
X41105200Y-60238600D01*
X41105200Y-60123731D01*
X40977038Y-59479416D01*
X40725639Y-58872485D01*
X40360664Y-58326261D01*
X40273003Y-58238600D01*
X44055328Y-58238600D01*
X44058400Y-58952850D01*
X44217150Y-59111600D01*
X45566400Y-59111600D01*
X45566400Y-57762350D01*
X45820400Y-57762350D01*
X45820400Y-59111600D01*
X47169650Y-59111600D01*
X47203683Y-59077567D01*
X49058400Y-59077567D01*
X49058400Y-59399633D01*
X49121232Y-59715512D01*
X49244482Y-60013063D01*
X49423413Y-60280852D01*
X49651148Y-60508587D01*
X49918937Y-60687518D01*
X50216488Y-60810768D01*
X50532367Y-60873600D01*
X50854433Y-60873600D01*
X51170312Y-60810768D01*
X51467863Y-60687518D01*
X51735652Y-60508587D01*
X51963387Y-60280852D01*
X52142318Y-60013063D01*
X52265568Y-59715512D01*
X52328400Y-59399633D01*
X52328400Y-59077567D01*
X55558400Y-59077567D01*
X55558400Y-59399633D01*
X55621232Y-59715512D01*
X55744482Y-60013063D01*
X55923413Y-60280852D01*
X56151148Y-60508587D01*
X56418937Y-60687518D01*
X56716488Y-60810768D01*
X57032367Y-60873600D01*
X57354433Y-60873600D01*
X57670312Y-60810768D01*
X57967863Y-60687518D01*
X58235652Y-60508587D01*
X58463387Y-60280852D01*
X58491618Y-60238600D01*
X60555328Y-60238600D01*
X60567588Y-60363082D01*
X60603898Y-60482780D01*
X60662863Y-60593094D01*
X60742215Y-60689785D01*
X60838906Y-60769137D01*
X60949220Y-60828102D01*
X61068918Y-60864412D01*
X61193400Y-60876672D01*
X61907650Y-60873600D01*
X62066400Y-60714850D01*
X62066400Y-59365600D01*
X60717150Y-59365600D01*
X60558400Y-59524350D01*
X60555328Y-60238600D01*
X58491618Y-60238600D01*
X58642318Y-60013063D01*
X58765568Y-59715512D01*
X58828400Y-59399633D01*
X58828400Y-59077567D01*
X58765568Y-58761688D01*
X58642318Y-58464137D01*
X58491619Y-58238600D01*
X60555328Y-58238600D01*
X60558400Y-58952850D01*
X60717150Y-59111600D01*
X62066400Y-59111600D01*
X62066400Y-57762350D01*
X62320400Y-57762350D01*
X62320400Y-59111600D01*
X63669650Y-59111600D01*
X63828400Y-58952850D01*
X63831472Y-58238600D01*
X63819212Y-58114118D01*
X63782902Y-57994420D01*
X63723937Y-57884106D01*
X63644585Y-57787415D01*
X63547894Y-57708063D01*
X63437580Y-57649098D01*
X63317882Y-57612788D01*
X63193400Y-57600528D01*
X62479150Y-57603600D01*
X62320400Y-57762350D01*
X62066400Y-57762350D01*
X61907650Y-57603600D01*
X61193400Y-57600528D01*
X61068918Y-57612788D01*
X60949220Y-57649098D01*
X60838906Y-57708063D01*
X60742215Y-57787415D01*
X60662863Y-57884106D01*
X60603898Y-57994420D01*
X60567588Y-58114118D01*
X60555328Y-58238600D01*
X58491619Y-58238600D01*
X58463387Y-58196348D01*
X58235652Y-57968613D01*
X57967863Y-57789682D01*
X57670312Y-57666432D01*
X57354433Y-57603600D01*
X57032367Y-57603600D01*
X56716488Y-57666432D01*
X56418937Y-57789682D01*
X56151148Y-57968613D01*
X55923413Y-58196348D01*
X55744482Y-58464137D01*
X55621232Y-58761688D01*
X55558400Y-59077567D01*
X52328400Y-59077567D01*
X52265568Y-58761688D01*
X52142318Y-58464137D01*
X51963387Y-58196348D01*
X51735652Y-57968613D01*
X51467863Y-57789682D01*
X51170312Y-57666432D01*
X50854433Y-57603600D01*
X50532367Y-57603600D01*
X50216488Y-57666432D01*
X49918937Y-57789682D01*
X49651148Y-57968613D01*
X49423413Y-58196348D01*
X49244482Y-58464137D01*
X49121232Y-58761688D01*
X49058400Y-59077567D01*
X47203683Y-59077567D01*
X47328400Y-58952850D01*
X47331472Y-58238600D01*
X47319212Y-58114118D01*
X47282902Y-57994420D01*
X47223937Y-57884106D01*
X47144585Y-57787415D01*
X47047894Y-57708063D01*
X46937580Y-57649098D01*
X46817882Y-57612788D01*
X46693400Y-57600528D01*
X45979150Y-57603600D01*
X45820400Y-57762350D01*
X45566400Y-57762350D01*
X45407650Y-57603600D01*
X44693400Y-57600528D01*
X44568918Y-57612788D01*
X44449220Y-57649098D01*
X44338906Y-57708063D01*
X44242215Y-57787415D01*
X44162863Y-57884106D01*
X44103898Y-57994420D01*
X44067588Y-58114118D01*
X44055328Y-58238600D01*
X40273003Y-58238600D01*
X39896139Y-57861736D01*
X39349915Y-57496761D01*
X38742984Y-57245362D01*
X38098669Y-57117200D01*
X37441731Y-57117200D01*
X36797416Y-57245362D01*
X36190485Y-57496761D01*
X35644261Y-57861736D01*
X35179736Y-58326261D01*
X34814761Y-58872485D01*
X34563362Y-59479416D01*
X34435200Y-60123731D01*
X32703400Y-60123731D01*
X32703400Y-58317992D01*
X32774573Y-57520517D01*
X32978056Y-56776709D01*
X33310038Y-56080695D01*
X33760026Y-55454470D01*
X34313803Y-54917823D01*
X34953851Y-54487729D01*
X35659953Y-54177771D01*
X36414857Y-53996535D01*
X37067607Y-53948600D01*
X127014008Y-53948600D01*
X127811483Y-54019773D01*
%TD*%
M02*
